<svg xmlns="http://www.w3.org/2000/svg" id="mainsvg" width="2117.931640625" height="326.5" viewBox="-10 -10 2117.931640625 326.5"><defs><marker id="arrow" viewBox="0 0 10 10" refX="10" refY="5" markerWidth="6" markerHeight="6" orient="auto-start-reverse"><path d="M 0 0 L 10 5 L 0 10 z"/></marker><filter id="shadowfilter" x="-20%" y="-20%" width="150%" height="150%" filterUnits="objectBoundingBox" primitiveUnits="userSpaceOnUse" color-interpolation-filters="linearRGB"><feDropShadow stdDeviation="4 4" in="SourceGraphic" dx="1" dy="1" flood-color="#BABABA" flood-opacity="0.9" x="0%" y="0%" width="100%" height="100%" result="dropShadow"/></filter><filter id="shadowfilter2" x="0" y="0" width="200%" height="200%" filterUnits="userSpaceOnUse" color-interpolation-filters="sRGB"><feFlood flood-opacity="0" result="BackgroundImageFix"/><feColorMatrix in="SourceAlpha" type="matrix" values="0 0 0 0 0 0 0 0 0 0 0 0 0 0 0 0 0 0 127 0"/><feOffset dy="4" dx="2"/><feGaussianBlur stdDeviation="2"/><feColorMatrix type="matrix" values="0 0 0 0 0 0 0 0 0 0 0 0 0 0 0 0 0 0 0.25 0"/><feBlend mode="normal" in2="BackgroundImageFix" result="effect1_dropShadow"/><feBlend mode="normal" in="SourceGraphic" in2="effect1_dropShadow" result="shape"/></filter></defs><g transform="translate(0, 0)"><rect width="50.2109375" height="38.5" stroke="#555656" fill="white" stroke-width="1.3" transform="translate(0, 0)" rx="2" filter="url(#shadowfilter)"/><text fill="black" font-size="16" font-weight="normal" transform="translate(10, 10)" alignment-baseline="middle" font-family="Bookman"><tspan x="0" dy="16">User</tspan></text></g><g transform="translate(238.2451171875, 0)"><rect width="74.2109375" height="38.5" stroke="#555656" fill="white" stroke-width="1.3" transform="translate(0, 0)" rx="2" filter="url(#shadowfilter)"/><text fill="black" font-size="16" font-weight="normal" transform="translate(10, 10)" alignment-baseline="middle" font-family="Bookman"><tspan x="0" dy="16">Browser</tspan></text></g><g transform="translate(849.4677734375, 0)"><rect width="61.7578125" height="38.5" stroke="#555656" fill="white" stroke-width="1.3" transform="translate(0, 0)" rx="2" filter="url(#shadowfilter)"/><text fill="black" font-size="16" font-weight="normal" transform="translate(10, 10)" alignment-baseline="middle" font-family="Bookman"><tspan x="0" dy="16">Server</tspan></text></g><g transform="translate(1353.4970703125, 0)"><rect width="85.765625" height="38.5" stroke="#555656" fill="white" stroke-width="1.3" transform="translate(0, 0)" rx="2" filter="url(#shadowfilter)"/><text fill="black" font-size="16" font-weight="normal" transform="translate(10, 10)" alignment-baseline="middle" font-family="Bookman"><tspan x="0" dy="16">Controller</tspan></text></g><g transform="translate(1691.892578125, 0)"><rect width="53.703125" height="38.5" stroke="#555656" fill="white" stroke-width="1.3" transform="translate(0, 0)" rx="2" filter="url(#shadowfilter)"/><text fill="black" font-size="16" font-weight="normal" transform="translate(10, 10)" alignment-baseline="middle" font-family="Bookman"><tspan x="0" dy="16">View</tspan></text></g><g transform="translate(2009.509765625, 0)"><rect width="88.421875" height="38.5" stroke="#555656" fill="white" stroke-width="1.3" transform="translate(0, 0)" rx="2" filter="url(#shadowfilter)"/><text fill="black" font-size="16" font-weight="normal" transform="translate(10, 10)" alignment-baseline="middle" font-family="Bookman"><tspan x="0" dy="16">controllers</tspan></text></g><path d="M 25.10546875,73 L 275.3505859375 73" fill="none" stroke="black" stroke-dasharray="none" stroke-width="1" marker-end="url(#arrow)"/><path d="M 275.3505859375,103.5 L 880.3466796875 103.5" fill="none" stroke="black" stroke-dasharray="none" stroke-width="1" marker-end="url(#arrow)"/><path d="M 880.3466796875,134 L 1396.3798828125 134" fill="none" stroke="black" stroke-dasharray="none" stroke-width="1" marker-end="url(#arrow)"/><path d="M 1396.3798828125,164.5 L 1718.744140625 164.5" fill="none" stroke="black" stroke-dasharray="none" stroke-width="1" marker-end="url(#arrow)"/><path d="M 1718.744140625,195 L 2053.720703125 195" fill="none" stroke="black" stroke-dasharray="none" stroke-width="1" marker-end="url(#arrow)"/><path d="M 1396.3798828125,225.5 L 880.3466796875 225.5" fill="none" stroke="black" stroke-dasharray="none" stroke-width="1" marker-end="url(#arrow)"/><path d="M 880.3466796875,256 L 275.3505859375 256" fill="none" stroke="black" stroke-dasharray="none" stroke-width="1" marker-end="url(#arrow)"/><path d="M 275.3505859375,286.5 L 25.10546875 286.5" fill="none" stroke="black" stroke-dasharray="none" stroke-width="1" marker-end="url(#arrow)"/><path d="M 25.10546875,38.5 L 25.10546875 306.5" fill="none" stroke="black" stroke-dasharray="none" stroke-width="1"/><path d="M 275.3505859375,38.5 L 275.3505859375 306.5" fill="none" stroke="black" stroke-dasharray="none" stroke-width="1"/><path d="M 880.3466796875,38.5 L 880.3466796875 306.5" fill="none" stroke="black" stroke-dasharray="none" stroke-width="1"/><path d="M 1396.3798828125,38.5 L 1396.3798828125 306.5" fill="none" stroke="black" stroke-dasharray="none" stroke-width="1"/><path d="M 1718.744140625,38.5 L 1718.744140625 306.5" fill="none" stroke="black" stroke-dasharray="none" stroke-width="1"/><path d="M 2053.720703125,38.5 L 2053.720703125 306.5" fill="none" stroke="black" stroke-dasharray="none" stroke-width="1"/><g transform="translate(49.10546875, 50.5)"><rect width="202.2451171875" height="18.5" stroke="none" fill="white" stroke-width="1" transform="translate(0, 0)" rx="5"/><text fill="black" font-size="14" font-weight="normal" transform="translate(1, 1)" alignment-baseline="middle"><tspan x="0" dy="14">fill in name and hit 'Register' button</tspan></text></g><g transform="translate(299.3505859375, 81)"><rect width="556.99609375" height="18.5" stroke="none" fill="white" stroke-width="1" transform="translate(0, 0)" rx="5"/><text fill="black" font-size="14" font-weight="normal" transform="translate(1, 1)" alignment-baseline="middle"><tspan x="0" dy="14">request POST http://localhost:9292/name &amp; player's name parameter included in the message body</tspan></text></g><g transform="translate(976.048828125, 111.5)"><rect width="324.62890625" height="18.5" stroke="none" fill="white" stroke-width="1" transform="translate(0, 0)" rx="5"/><text fill="black" font-size="14" font-weight="normal" transform="translate(1, 1)" alignment-baseline="middle"><tspan x="0" dy="14">request '/name' path and passes the name-value parameter</tspan></text></g><g transform="translate(1420.3798828125, 142)"><rect width="274.3642578125" height="18.5" stroke="none" fill="white" stroke-width="1" transform="translate(0, 0)" rx="5"/><text fill="black" font-size="14" font-weight="normal" transform="translate(1, 1)" alignment-baseline="middle"><tspan x="0" dy="14">saves value in a variable and request for play.erb</tspan></text></g><g transform="translate(1742.744140625, 172.5)"><rect width="286.9765625" height="18.5" stroke="none" fill="white" stroke-width="1" transform="translate(0, 0)" rx="5"/><text fill="black" font-size="14" font-weight="normal" transform="translate(1, 1)" alignment-baseline="middle"><tspan x="0" dy="14">response with the embedded ruby and HTML code</tspan></text></g><g transform="translate(904.3466796875, 203)"><rect width="468.033203125" height="18.5" stroke="none" fill="white" stroke-width="1" transform="translate(0, 0)" rx="5"/><text fill="black" font-size="14" font-weight="normal" transform="translate(1, 1)" alignment-baseline="middle"><tspan x="0" dy="14">response with value inserted in embedded ruby, HTML code &amp; response status line</tspan></text></g><g transform="translate(415.50341796875, 233.5)"><rect width="324.6904296875" height="18.5" stroke="none" fill="white" stroke-width="1" transform="translate(0, 0)" rx="5"/><text fill="black" font-size="14" font-weight="normal" transform="translate(1, 1)" alignment-baseline="middle"><tspan x="0" dy="14">response including HTTP metadata &amp; controller response</tspan></text></g><g transform="translate(54.861328125, 264)"><rect width="190.7333984375" height="18.5" stroke="none" fill="white" stroke-width="1" transform="translate(0, 0)" rx="5"/><text fill="black" font-size="14" font-weight="normal" transform="translate(1, 1)" alignment-baseline="middle"><tspan x="0" dy="14">renders the page with user's name</tspan></text></g></svg>