<svg xmlns="http://www.w3.org/2000/svg" id="mainsvg" width="439.59609375" height="330.27500000000003" viewBox="-91.52734375 -24 399.6328125 300.25"><defs><marker id="arrow" viewBox="0 0 10 10" refX="10" refY="5" markerWidth="5" markerHeight="5" orient="auto-start-reverse" fill="black"><path d="M 0 0 L 10 5 L 0 10 z"/></marker><filter id="shadowOLD" x="-50%" y="-50%" width="250%" height="250%"><feDropShadow flood-color="black" flood-opacity="0.3" dx="1" dy="1" stdDeviation="2"> </feDropShadow></filter><filter id="shadow-path" filterUnits="userSpaceOnUse" x="-91.52734375" y="-24" width="399.6328125px" height="300.25px"><feDropShadow flood-color="black" flood-opacity="0.1" dx="1" dy="1" stdDeviation="1"> </feDropShadow></filter><filter id="shadow" filterUnits="userSpaceOnUse" x="-91.52734375" y="-24" width="499.6328125px" height="400.25px"><feDropShadow flood-color="black" flood-opacity="0.1" dx="1" dy="1" stdDeviation="1"> </feDropShadow></filter></defs><rect x="-91.52734375" y="-24" width="399.6328125" height="300.25" fill="#fff"/><g transform="translate(0, 0)"><rect width="244.578125" height="33.375" stroke="black" fill="white" stroke-width="2" transform="translate(0, 0)" rx="3"/><text fill="black" font-size="16" font-weight="normal" transform="translate(8, 8)" alignment-baseline="middle" font-family="Arial"><tspan x="0" dy="16" font-family="Arial" font-size="16" font-weight="normal">Index Page: Player enters name</tspan></text></g><g transform="translate(-27.4140625, 61.375)"><rect width="299.40625" height="50.75" stroke="black" fill="white" stroke-width="2" transform="translate(0, 0)" rx="3"/><text fill="black" font-size="16" font-weight="normal" transform="translate(8, 8)" alignment-baseline="middle" font-family="Arial"><tspan x="0" dy="16" font-family="Arial" font-size="16" font-weight="normal">Welcome Page: Player name displayed </tspan><tspan x="0" dy="16" font-family="Arial" font-size="16" font-weight="normal">Dropdown: Select RPS</tspan></text></g><g transform="translate(-53.52734375, 140.125)"><rect width="351.6328125" height="50.75" stroke="black" fill="white" stroke-width="2" transform="translate(0, 0)" rx="3"/><text fill="black" font-size="16" font-weight="normal" transform="translate(8, 8)" alignment-baseline="middle" font-family="Arial"><tspan x="0" dy="16" font-family="Arial" font-size="16" font-weight="normal">Result Page: You chose: X, Opponent chose: Y</tspan><tspan x="0" dy="16" font-family="Arial" font-size="16" font-weight="normal">Game Over - You won/lost/drew</tspan></text></g><g transform="translate(77.81640625, 218.875)"><rect width="88.9453125" height="33.375" stroke="black" fill="white" stroke-width="2" transform="translate(0, 0)" rx="3"/><text fill="black" font-size="16" font-weight="normal" transform="translate(8, 8)" alignment-baseline="middle" font-family="Arial"><tspan x="0" dy="16" font-family="Arial" font-size="16" font-weight="normal">play again</tspan></text></g><path d="M 122.2890625,33.375 L 122.2890625 47.375 L 122.2890625 61.375" fill="none" stroke="black" stroke-dasharray="none" stroke-width="2" marker-end="url(#arrow)"/><path d="M 122.2890625,112.125 L 122.2890625 126.125 L 122.2890625 140.125" fill="none" stroke="black" stroke-dasharray="none" stroke-width="2" marker-end="url(#arrow)"/><path d="M 122.2890625,190.875 L 122.2890625 204.875 L 122.2890625 218.875" fill="none" stroke="black" stroke-dasharray="none" stroke-width="2" marker-end="url(#arrow)"/><path d="M 122.2890625,252.25 L 122.2890625 266.25 L -81.52734375 266.25 L -81.52734375 -14 L 122.2890625 -14 L 122.2890625 0" fill="none" stroke="black" stroke-dasharray="none" stroke-width="2" marker-end="url(#arrow)"/></svg>