<svg xmlns="http://www.w3.org/2000/svg" id="mainsvg" width="751.3375976562501" height="729.5375" viewBox="-10 -10 683.0341796875 664.125"><defs><marker id="arrow" viewBox="0 0 10 10" refX="10" refY="5" markerWidth="5" markerHeight="5" orient="auto-start-reverse" fill="black"><path stroke="black" d="M 0 0 L 10 5 L 0 10 z"/></marker><marker id="Many" viewBox="0 0 16 16" refX="15" refY="8" markerWidth="15" markerHeight="15" orient="auto-start-reverse"><path stroke="black" d="M0 8H15M15 15L2 8L15 1" fill="none"/></marker><marker id="ZeroOrOne" viewBox="0 0 16 10" refX="15" refY="5" markerWidth="21" markerHeight="21" orient="auto-start-reverse"><path d="M9 5H16" stroke="black" fill="none"/><circle cx="5" cy="5" r="4.5" stroke="black" fill="#fff"/><path d="M12 0L12 10" stroke="black" fill="none"/></marker><marker id="OneOnlyOne" viewBox="0 0 10 14" refX="10" refY="7" markerWidth="13" markerHeight="13" orient="auto-start-reverse"><path d="M0 7H4M4 7H7M4 7V0M4 7V14M7 7H10M7 7V0M7 7V14" stroke="black" fill="none"/></marker><marker id="OneOrMany" viewBox="0 0 16 16" refX="15" refY="8" markerWidth="15" markerHeight="15" orient="auto-start-reverse"><path stroke="black" d="M2 1V15M2 8L15 15M2 8L15 1M2 8H0M2 8H15" fill="none"/></marker><marker id="ZeroOrMany" viewBox="0 0 25 16" refX="23" refY="8" markerWidth="25" markerHeight="25" orient="auto-start-reverse"><path d="M13 8H27M27 15L14 8L27 1" stroke="black" fill="none"/><path d="M13.5 7.5C13.5 10.7795 10.6254 13.5 7 13.5C3.37461 13.5 0.5 10.7795 0.5 7.5C0.5 4.22054 3.37461 1.5 7 1.5C10.6254 1.5 13.5 4.22054 13.5 7.5Z" stroke="black" fill="#fff"/></marker><marker id="aggregation" viewBox="0 0 10 6" refX="9.3" refY="2.8" markerWidth="23" markerHeight="15" orient="auto-start-reverse"><path stroke="black" fill="#fff" stroke-width="0.7" d="M1.01614 2.82609L5 0.574341L8.98386 2.82609L5 5.07783L1.01614 2.82609Z"/></marker><marker id="composition" viewBox="0 0 10 6" refX="9.7" refY="2.8" markerWidth="18" markerHeight="15" orient="auto-start-reverse"><path stroke="black" fill="black" d="M1.01614 2.82609L5 0.574341L8.98386 2.82609L5 5.07783L1.01614 2.82609Z"/></marker><marker id="implementation" viewBox="0 0 8 10" refX="8" refY="5" markerWidth="20" markerHeight="20" orient="auto-start-reverse"><path stroke="black" fill="#fff" stroke-width="0.7" d="M0.750001 1.10289L7.5 5L0.750001 8.89712L0.750001 1.10289Z"/></marker><marker id="dependency" viewBox="0 0 12 12" refX="11" refY="6" markerWidth="12" markerHeight="11" orient="auto-start-reverse"><path stroke="black" fill="#fff" d="M1 5.93162H10.886M10.886 5.93162L1 0.5M10.886 5.93162L1 11"/></marker><marker id="inheritance" viewBox="0 0 8 10" refX="8" refY="5" markerWidth="20" markerHeight="20" orient="auto-start-reverse"><path stroke="black" fill="#fff" stroke-width="0.7" d="M0.750001 1.10289L7.5 5L0.750001 8.89712L0.750001 1.10289Z"/></marker><marker id="association" viewBox="0 0 12 12" refX="11" refY="6" markerWidth="12" markerHeight="11" orient="auto-start-reverse"><path stroke="black" d="M1 5.93162H10.886M10.886 5.93162L1 0.5M10.886 5.93162L1 11"/></marker><filter id="shadowOLD" x="-50%" y="-50%" width="250%" height="250%"><feDropShadow flood-color="black" flood-opacity="0.3" dx="1" dy="1" stdDeviation="2"> </feDropShadow></filter><filter id="shadow-path" filterUnits="userSpaceOnUse" x="-10" y="-10" width="683.0341796875px" height="654.125px"><feDropShadow flood-color="black" flood-opacity="0.1" dx="1" dy="1" stdDeviation="1"> </feDropShadow></filter><filter id="shadow" filterUnits="userSpaceOnUse" x="-10" y="-10" width="783.0341796875px" height="754.125px"><feDropShadow flood-color="black" flood-opacity="0.1" dx="1" dy="1" stdDeviation="1"> </feDropShadow></filter></defs><rect x="-10" y="-10" width="683.0341796875" height="654.125" fill="#fff"/><g transform="translate(0, 0)"><rect width="61.3515625" height="33.375" stroke="black" fill="white" stroke-width="2" transform="translate(0, 0)" rx="3"/><text fill="black" font-size="16" font-weight="normal" transform="translate(8, 8)" alignment-baseline="middle" font-family="Arial"><tspan x="0" dy="16" font-family="Arial" font-size="16" font-weight="normal">Player</tspan></text></g><g transform="translate(213.44921875, 0)"><rect width="130.6875" height="33.375" stroke="black" fill="white" stroke-width="2" transform="translate(0, 0)" rx="3"/><text fill="black" font-size="16" font-weight="normal" transform="translate(8, 8)" alignment-baseline="middle" font-family="Arial"><tspan x="0" dy="16" font-family="Arial" font-size="16" font-weight="normal">Client (Browser)</tspan></text></g><g transform="translate(456.4853515625, 0)"><rect width="63.125" height="33.375" stroke="black" fill="white" stroke-width="2" transform="translate(0, 0)" rx="3"/><text fill="black" font-size="16" font-weight="normal" transform="translate(8, 8)" alignment-baseline="middle" font-family="Arial"><tspan x="0" dy="16" font-family="Arial" font-size="16" font-weight="normal">Server</tspan></text></g><path d="M 30.67578125,72.75 L 278.79296875 72.75" fill="none" stroke="black" stroke-dasharray="none" stroke-width="2" marker-end="url(#arrow)"/><path d="M 278.79296875,108.125 L 488.0478515625 108.125" fill="none" stroke="black" stroke-dasharray="none" stroke-width="2" marker-end="url(#arrow)"/><path d="M 488.0478515625,143.5 L 278.79296875 143.5" fill="none" stroke="black" stroke-dasharray="none" stroke-width="2" marker-end="url(#arrow)"/><path d="M 278.79296875,178.875 L 30.67578125 178.875" fill="none" stroke="black" stroke-dasharray="none" stroke-width="2" marker-end="url(#arrow)"/><path d="M 30.67578125,214.25 L 278.79296875 214.25" fill="none" stroke="black" stroke-dasharray="none" stroke-width="2" marker-end="url(#arrow)"/><path d="M 278.79296875,249.625 L 488.0478515625 249.625" fill="none" stroke="black" stroke-dasharray="none" stroke-width="2" marker-end="url(#arrow)"/><path d="M 488.0478515625,285 L 278.79296875 285" fill="none" stroke="black" stroke-dasharray="none" stroke-width="2" marker-end="url(#arrow)"/><path d="M 278.79296875,320.375 L 30.67578125 320.375" fill="none" stroke="black" stroke-dasharray="none" stroke-width="2" marker-end="url(#arrow)"/><path d="M 30.67578125,355.75 L 278.79296875 355.75" fill="none" stroke="black" stroke-dasharray="none" stroke-width="2" marker-end="url(#arrow)"/><path d="M 278.79296875,391.125 L 488.0478515625 391.125" fill="none" stroke="black" stroke-dasharray="none" stroke-width="2" marker-end="url(#arrow)"/><path d="M 488.0478515625,399.125 L 502.0478515625 399.125 L 502.0478515625 437.875 L 488.0478515625 437.875" fill="none" stroke="black" stroke-dasharray="none" stroke-width="2" marker-end="url(#arrow)"/><path d="M 488.0478515625,449.875 L 502.0478515625 449.875 L 502.0478515625 473.25 L 488.0478515625 473.25" fill="none" stroke="black" stroke-dasharray="none" stroke-width="2" marker-end="url(#arrow)"/><path d="M 488.0478515625,512.625 L 278.79296875 512.625" fill="none" stroke="black" stroke-dasharray="none" stroke-width="2" marker-end="url(#arrow)"/><path d="M 278.79296875,548 L 30.67578125 548" fill="none" stroke="black" stroke-dasharray="none" stroke-width="2" marker-end="url(#arrow)"/><path d="M 30.67578125,556 L 44.67578125 556 L 44.67578125 610.125 L 30.67578125 610.125" fill="none" stroke="black" stroke-dasharray="none" stroke-width="2" marker-end="url(#arrow)"/><path d="M 30.67578125,33.375 L 30.67578125 634.125" fill="none" stroke="black" stroke-dasharray="none" stroke-width="2"/><path d="M 278.79296875,33.375 L 278.79296875 634.125" fill="none" stroke="black" stroke-dasharray="none" stroke-width="2"/><path d="M 488.0478515625,33.375 L 488.0478515625 634.125" fill="none" stroke="black" stroke-dasharray="none" stroke-width="2"/><g transform="translate(121.55517578125, 45.375)"><rect width="66.3583984375" height="23.375" stroke="none" fill="white" stroke-width="0" transform="translate(0, 0)" rx="2"/><text fill="black" font-size="14" font-weight="bold" transform="translate(4, 4)" alignment-baseline="middle" font-family="Arial"><tspan x="0" dy="14" font-family="Arial" font-size="14" font-weight="bold">enters url</tspan></text></g><g transform="translate(307.4619140625, 80.75)"><rect width="151.9169921875" height="23.375" stroke="none" fill="white" stroke-width="0" transform="translate(0, 0)" rx="2"/><text fill="black" font-size="14" font-weight="normal" transform="translate(4, 4)" alignment-baseline="middle" font-family="Arial"><tspan x="0" dy="14" font-family="Arial" font-size="14" font-weight="normal">GET request (in HTTP)</tspan></text></g><g transform="translate(318.34814453125, 116.125)"><rect width="130.14453125" height="23.375" stroke="none" fill="white" stroke-width="0" transform="translate(0, 0)" rx="2"/><text fill="black" font-size="14" font-weight="normal" transform="translate(4, 4)" alignment-baseline="middle" font-family="Arial"><tspan x="0" dy="14" font-family="Arial" font-size="14" font-weight="normal">response (in HTTP)</tspan></text></g><g transform="translate(101.365234375, 151.5)"><rect width="106.73828125" height="23.375" stroke="none" fill="white" stroke-width="0" transform="translate(0, 0)" rx="2"/><text fill="black" font-size="14" font-weight="normal" transform="translate(4, 4)" alignment-baseline="middle" font-family="Arial"><tspan x="0" dy="14" font-family="Arial" font-size="14" font-weight="normal">displays '/' page</tspan></text></g><g transform="translate(59.30712890625, 186.875)"><rect width="190.8544921875" height="23.375" stroke="none" fill="white" stroke-width="0" transform="translate(0, 0)" rx="2"/><text fill="black" font-size="14" font-weight="bold" transform="translate(4, 4)" alignment-baseline="middle" font-family="Arial"><tspan x="0" dy="14" font-family="Arial" font-size="14" font-weight="bold">types name and clicks submit</tspan></text></g><g transform="translate(302.79296875, 222.25)"><rect width="161.2548828125" height="23.375" stroke="none" fill="white" stroke-width="0" transform="translate(0, 0)" rx="2"/><text fill="black" font-size="14" font-weight="normal" transform="translate(4, 4)" alignment-baseline="middle" font-family="Arial"><tspan x="0" dy="14" font-family="Arial" font-size="14" font-weight="normal">POST request (in HTTP)</tspan></text></g><g transform="translate(318.34814453125, 257.625)"><rect width="130.14453125" height="23.375" stroke="none" fill="white" stroke-width="0" transform="translate(0, 0)" rx="2"/><text fill="black" font-size="14" font-weight="normal" transform="translate(4, 4)" alignment-baseline="middle" font-family="Arial"><tspan x="0" dy="14" font-family="Arial" font-size="14" font-weight="normal">response (in HTTP)</tspan></text></g><g transform="translate(88.52392578125, 293)"><rect width="132.4208984375" height="23.375" stroke="none" fill="white" stroke-width="0" transform="translate(0, 0)" rx="2"/><text fill="black" font-size="14" font-weight="normal" transform="translate(4, 4)" alignment-baseline="middle" font-family="Arial"><tspan x="0" dy="14" font-family="Arial" font-size="14" font-weight="normal">displays '/play' page</tspan></text></g><g transform="translate(54.67578125, 328.375)"><rect width="200.1171875" height="23.375" stroke="none" fill="white" stroke-width="0" transform="translate(0, 0)" rx="2"/><text fill="black" font-size="14" font-weight="bold" transform="translate(4, 4)" alignment-baseline="middle" font-family="Arial"><tspan x="0" dy="14" font-family="Arial" font-size="14" font-weight="bold">mouseclick to choose 'weapon'</tspan></text></g><g transform="translate(302.79296875, 363.75)"><rect width="161.2548828125" height="23.375" stroke="none" fill="white" stroke-width="0" transform="translate(0, 0)" rx="2"/><text fill="black" font-size="14" font-weight="normal" transform="translate(4, 4)" alignment-baseline="middle" font-family="Arial"><tspan x="0" dy="14" font-family="Arial" font-size="14" font-weight="normal">POST request (in HTTP)</tspan></text></g><g transform="translate(508.0478515625, 399.125)"><rect width="154.986328125" height="38.75" stroke="none" fill="white" stroke-width="0" transform="translate(0, 0)" rx="2"/><text fill="black" font-size="14" font-weight="normal" transform="translate(4, 4)" alignment-baseline="middle" font-family="Arial"><tspan x="0" dy="14" font-family="Arial" font-size="14" font-weight="normal">randomly chooses </tspan><tspan x="0" dy="14" font-family="Arial" font-size="14" font-weight="normal">counter-attack 'weapon'</tspan></text></g><g transform="translate(508.0478515625, 449.875)"><rect width="123.1650390625" height="23.375" stroke="none" fill="white" stroke-width="0" transform="translate(0, 0)" rx="2"/><text fill="black" font-size="14" font-weight="normal" transform="translate(4, 4)" alignment-baseline="middle" font-family="Arial"><tspan x="0" dy="14" font-family="Arial" font-size="14" font-weight="normal">computes win/lose</tspan></text></g><g transform="translate(318.34814453125, 485.25)"><rect width="130.14453125" height="23.375" stroke="none" fill="white" stroke-width="0" transform="translate(0, 0)" rx="2"/><text fill="black" font-size="14" font-weight="normal" transform="translate(4, 4)" alignment-baseline="middle" font-family="Arial"><tspan x="0" dy="14" font-family="Arial" font-size="14" font-weight="normal">response (in HTTP)</tspan></text></g><g transform="translate(84.248046875, 520.625)"><rect width="140.97265625" height="23.375" stroke="none" fill="white" stroke-width="0" transform="translate(0, 0)" rx="2"/><text fill="black" font-size="14" font-weight="normal" transform="translate(4, 4)" alignment-baseline="middle" font-family="Arial"><tspan x="0" dy="14" font-family="Arial" font-size="14" font-weight="normal">displays '/result' page</tspan></text></g><g transform="translate(50.67578125, 556)"><rect width="129.3720703125" height="54.125" stroke="none" fill="white" stroke-width="0" transform="translate(0, 0)" rx="2"/><text fill="black" font-size="14" font-weight="bold" transform="translate(4, 4)" alignment-baseline="middle" font-family="Arial"><tspan x="0" dy="14" font-family="Arial" font-size="14" font-weight="bold">celebrates victory :)</tspan><tspan x="0" dy="14" font-family="Arial" font-size="14" font-weight="bold">OR </tspan><tspan x="0" dy="14" font-family="Arial" font-size="14" font-weight="bold">wallows in defeat :(</tspan></text></g></svg>