<svg xmlns="http://www.w3.org/2000/svg" id="mainsvg" width="837.484375" height="326.5" viewBox="-10 -10 837.484375 326.5"><defs><marker id="arrow" viewBox="0 0 10 10" refX="10" refY="5" markerWidth="6" markerHeight="6" orient="auto-start-reverse"><path d="M 0 0 L 10 5 L 0 10 z"/></marker><filter id="shadowfilter" x="-20%" y="-20%" width="150%" height="150%" filterUnits="objectBoundingBox" primitiveUnits="userSpaceOnUse" color-interpolation-filters="linearRGB"><feDropShadow stdDeviation="4 4" in="SourceGraphic" dx="1" dy="1" flood-color="#BABABA" flood-opacity="0.9" x="0%" y="0%" width="100%" height="100%" result="dropShadow"/></filter><filter id="shadowfilter2" x="0" y="0" width="200%" height="200%" filterUnits="userSpaceOnUse" color-interpolation-filters="sRGB"><feFlood flood-opacity="0" result="BackgroundImageFix"/><feColorMatrix in="SourceAlpha" type="matrix" values="0 0 0 0 0 0 0 0 0 0 0 0 0 0 0 0 0 0 127 0"/><feOffset dy="4" dx="2"/><feGaussianBlur stdDeviation="2"/><feColorMatrix type="matrix" values="0 0 0 0 0 0 0 0 0 0 0 0 0 0 0 0 0 0 0.25 0"/><feBlend mode="normal" in2="BackgroundImageFix" result="effect1_dropShadow"/><feBlend mode="normal" in="SourceGraphic" in2="effect1_dropShadow" result="shape"/></filter></defs><g transform="translate(0, 0)"><rect width="50.2109375" height="38.5" stroke="#555656" fill="white" stroke-width="1.3" transform="translate(0, 0)" rx="2" filter="url(#shadowfilter)"/><text fill="black" font-size="16" font-weight="normal" transform="translate(10, 10)" alignment-baseline="middle" font-family="Bookman"><tspan x="0" dy="16">User</tspan></text></g><g transform="translate(272.0458984375, 0)"><rect width="59.109375" height="38.5" stroke="#555656" fill="white" stroke-width="1.3" transform="translate(0, 0)" rx="2" filter="url(#shadowfilter)"/><text fill="black" font-size="16" font-weight="normal" transform="translate(10, 10)" alignment-baseline="middle" font-family="Bookman"><tspan x="0" dy="16">Client</tspan></text></g><g transform="translate(755.7265625, 0)"><rect width="61.7578125" height="38.5" stroke="#555656" fill="white" stroke-width="1.3" transform="translate(0, 0)" rx="2" filter="url(#shadowfilter)"/><text fill="black" font-size="16" font-weight="normal" transform="translate(10, 10)" alignment-baseline="middle" font-family="Bookman"><tspan x="0" dy="16">Server</tspan></text></g><path d="M 25.10546875,73 L 301.6005859375 73" fill="none" stroke="black" stroke-dasharray="none" stroke-width="1" marker-end="url(#arrow)"/><path d="M 301.6005859375,103.5 L 786.60546875 103.5" fill="none" stroke="black" stroke-dasharray="none" stroke-width="1" marker-end="url(#arrow)"/><path d="M 786.60546875,134 L 301.6005859375 134" fill="none" stroke="black" stroke-dasharray="none" stroke-width="1" marker-end="url(#arrow)"/><path d="M 301.6005859375,164.5 L 25.10546875 164.5" fill="none" stroke="black" stroke-dasharray="none" stroke-width="1" marker-end="url(#arrow)"/><path d="M 25.10546875,195 L 301.6005859375 195" fill="none" stroke="black" stroke-dasharray="none" stroke-width="1" marker-end="url(#arrow)"/><path d="M 301.6005859375,225.5 L 786.60546875 225.5" fill="none" stroke="black" stroke-dasharray="none" stroke-width="1" marker-end="url(#arrow)"/><path d="M 786.60546875,256 L 301.6005859375 256" fill="none" stroke="black" stroke-dasharray="none" stroke-width="1" marker-end="url(#arrow)"/><path d="M 301.6005859375,286.5 L 25.10546875 286.5" fill="none" stroke="black" stroke-dasharray="none" stroke-width="1" marker-end="url(#arrow)"/><path d="M 25.10546875,38.5 L 25.10546875 306.5" fill="none" stroke="black" stroke-dasharray="none" stroke-width="1"/><path d="M 301.6005859375,38.5 L 301.6005859375 306.5" fill="none" stroke="black" stroke-dasharray="none" stroke-width="1"/><path d="M 786.60546875,38.5 L 786.60546875 306.5" fill="none" stroke="black" stroke-dasharray="none" stroke-width="1"/><g transform="translate(49.10546875, 50.5)"><rect width="228.4951171875" height="18.5" stroke="none" fill="white" stroke-width="1" transform="translate(0, 0)" rx="5"/><text fill="black" font-size="14" font-weight="normal" transform="translate(1, 1)" alignment-baseline="middle"><tspan x="0" dy="14">Types http://localhost:9292 into browser</tspan></text></g><g transform="translate(469.927734375, 81)"><rect width="148.3505859375" height="18.5" stroke="none" fill="white" stroke-width="1" transform="translate(0, 0)" rx="5"/><text fill="black" font-size="14" font-weight="normal" transform="translate(1, 1)" alignment-baseline="middle"><tspan x="0" dy="14">GET http://localhost:9292</tspan></text></g><g transform="translate(392.94482421875, 111.5)"><rect width="302.31640625" height="18.5" stroke="none" fill="white" stroke-width="1" transform="translate(0, 0)" rx="5"/><text fill="black" font-size="14" font-weight="normal" transform="translate(1, 1)" alignment-baseline="middle"><tspan x="0" dy="14">HTTP Response, html in the body, 200 response code</tspan></text></g><g transform="translate(116.86669921875, 142)"><rect width="92.97265625" height="18.5" stroke="none" fill="white" stroke-width="1" transform="translate(0, 0)" rx="5"/><text fill="black" font-size="14" font-weight="normal" transform="translate(1, 1)" alignment-baseline="middle"><tspan x="0" dy="14">renders the html</tspan></text></g><g transform="translate(86.93896484375, 172.5)"><rect width="152.828125" height="18.5" stroke="none" fill="white" stroke-width="1" transform="translate(0, 0)" rx="5"/><text fill="black" font-size="14" font-weight="normal" transform="translate(1, 1)" alignment-baseline="middle"><tspan x="0" dy="14">enters player name in form</tspan></text></g><g transform="translate(325.6005859375, 203)"><rect width="437.0048828125" height="18.5" stroke="none" fill="white" stroke-width="1" transform="translate(0, 0)" rx="5"/><text fill="black" font-size="14" font-weight="normal" transform="translate(1, 1)" alignment-baseline="middle"><tspan x="0" dy="14">POST http://localhost:9292/names, redirect to GET http://localhost:9292/play</tspan></text></g><g transform="translate(392.94482421875, 233.5)"><rect width="302.31640625" height="18.5" stroke="none" fill="white" stroke-width="1" transform="translate(0, 0)" rx="5"/><text fill="black" font-size="14" font-weight="normal" transform="translate(1, 1)" alignment-baseline="middle"><tspan x="0" dy="14">HTTP Response, html in the body, 200 response code</tspan></text></g><g transform="translate(116.86669921875, 264)"><rect width="92.97265625" height="18.5" stroke="none" fill="white" stroke-width="1" transform="translate(0, 0)" rx="5"/><text fill="black" font-size="14" font-weight="normal" transform="translate(1, 1)" alignment-baseline="middle"><tspan x="0" dy="14">renders the html</tspan></text></g></svg>