<svg xmlns="http://www.w3.org/2000/svg" id="mainsvg" width="1166.5625" height="326.5" viewBox="-10 -10 1166.5625 326.5"><defs><marker id="arrow" viewBox="0 0 10 10" refX="10" refY="5" markerWidth="6" markerHeight="6" orient="auto-start-reverse"><path d="M 0 0 L 10 5 L 0 10 z"/></marker><filter id="shadowfilter" x="-20%" y="-20%" width="150%" height="150%" filterUnits="objectBoundingBox" primitiveUnits="userSpaceOnUse" color-interpolation-filters="linearRGB"><feDropShadow stdDeviation="4 4" in="SourceGraphic" dx="1" dy="1" flood-color="#BABABA" flood-opacity="0.9" x="0%" y="0%" width="100%" height="100%" result="dropShadow"/></filter><filter id="shadowfilter2" x="0" y="0" width="200%" height="200%" filterUnits="userSpaceOnUse" color-interpolation-filters="sRGB"><feFlood flood-opacity="0" result="BackgroundImageFix"/><feColorMatrix in="SourceAlpha" type="matrix" values="0 0 0 0 0 0 0 0 0 0 0 0 0 0 0 0 0 0 127 0"/><feOffset dy="4" dx="2"/><feGaussianBlur stdDeviation="2"/><feColorMatrix type="matrix" values="0 0 0 0 0 0 0 0 0 0 0 0 0 0 0 0 0 0 0.25 0"/><feBlend mode="normal" in2="BackgroundImageFix" result="effect1_dropShadow"/><feBlend mode="normal" in="SourceGraphic" in2="effect1_dropShadow" result="shape"/></filter></defs><g transform="translate(0, 0)"><rect width="50.2109375" height="38.5" stroke="#555656" fill="white" stroke-width="1.3" transform="translate(0, 0)" rx="2" filter="url(#shadowfilter)"/><text fill="black" font-size="16" font-weight="normal" transform="translate(10, 10)" alignment-baseline="middle" font-family="Bookman"><tspan x="0" dy="16">User</tspan></text></g><g transform="translate(250.65234375, 0)"><rect width="74.2109375" height="38.5" stroke="#555656" fill="white" stroke-width="1.3" transform="translate(0, 0)" rx="2" filter="url(#shadowfilter)"/><text fill="black" font-size="16" font-weight="normal" transform="translate(10, 10)" alignment-baseline="middle" font-family="Bookman"><tspan x="0" dy="16">Browser</tspan></text></g><g transform="translate(561.162109375, 0)"><rect width="61.7578125" height="38.5" stroke="#555656" fill="white" stroke-width="1.3" transform="translate(0, 0)" rx="2" filter="url(#shadowfilter)"/><text fill="black" font-size="16" font-weight="normal" transform="translate(10, 10)" alignment-baseline="middle" font-family="Bookman"><tspan x="0" dy="16">Server</tspan></text></g><g transform="translate(795.5068359375, 0)"><rect width="85.765625" height="38.5" stroke="#555656" fill="white" stroke-width="1.3" transform="translate(0, 0)" rx="2" filter="url(#shadowfilter)"/><text fill="black" font-size="16" font-weight="normal" transform="translate(10, 10)" alignment-baseline="middle" font-family="Bookman"><tspan x="0" dy="16">Controller</tspan></text></g><g transform="translate(1092.859375, 0)"><rect width="53.703125" height="38.5" stroke="#555656" fill="white" stroke-width="1.3" transform="translate(0, 0)" rx="2" filter="url(#shadowfilter)"/><text fill="black" font-size="16" font-weight="normal" transform="translate(10, 10)" alignment-baseline="middle" font-family="Bookman"><tspan x="0" dy="16">View</tspan></text></g><path d="M 25.10546875,73 L 287.7578125 73" fill="none" stroke="black" stroke-dasharray="none" stroke-width="1" marker-end="url(#arrow)"/><path d="M 287.7578125,103.5 L 592.041015625 103.5" fill="none" stroke="black" stroke-dasharray="none" stroke-width="1" marker-end="url(#arrow)"/><path d="M 592.041015625,134 L 838.3896484375 134" fill="none" stroke="black" stroke-dasharray="none" stroke-width="1" marker-end="url(#arrow)"/><path d="M 838.3896484375,164.5 L 1119.7109375 164.5" fill="none" stroke="black" stroke-dasharray="none" stroke-width="1" marker-end="url(#arrow)"/><path d="M 1119.7109375,195 L 838.3896484375 195" fill="none" stroke="black" stroke-dasharray="none" stroke-width="1" marker-end="url(#arrow)"/><path d="M 838.3896484375,225.5 L 592.041015625 225.5" fill="none" stroke="black" stroke-dasharray="none" stroke-width="1" marker-end="url(#arrow)"/><path d="M 592.041015625,256 L 287.7578125 256" fill="none" stroke="black" stroke-dasharray="none" stroke-width="1" marker-end="url(#arrow)"/><path d="M 287.7578125,286.5 L 25.10546875 286.5" fill="none" stroke="black" stroke-dasharray="none" stroke-width="1" marker-end="url(#arrow)"/><path d="M 25.10546875,38.5 L 25.10546875 306.5" fill="none" stroke="black" stroke-dasharray="none" stroke-width="1"/><path d="M 287.7578125,38.5 L 287.7578125 306.5" fill="none" stroke="black" stroke-dasharray="none" stroke-width="1"/><path d="M 592.041015625,38.5 L 592.041015625 306.5" fill="none" stroke="black" stroke-dasharray="none" stroke-width="1"/><path d="M 838.3896484375,38.5 L 838.3896484375 306.5" fill="none" stroke="black" stroke-dasharray="none" stroke-width="1"/><path d="M 1119.7109375,38.5 L 1119.7109375 306.5" fill="none" stroke="black" stroke-dasharray="none" stroke-width="1"/><g transform="translate(81.74365234375, 50.5)"><rect width="149.3759765625" height="18.5" stroke="none" fill="white" stroke-width="1" transform="translate(0, 0)" rx="5"/><text fill="black" font-size="14" font-weight="normal" transform="translate(1, 1)" alignment-baseline="middle"><tspan x="0" dy="14">type http://localhost:9292/</tspan></text></g><g transform="translate(341.6923828125, 81)"><rect width="196.4140625" height="18.5" stroke="none" fill="white" stroke-width="1" transform="translate(0, 0)" rx="5"/><text fill="black" font-size="14" font-weight="normal" transform="translate(1, 1)" alignment-baseline="middle"><tspan x="0" dy="14">request GET http://localhost:9292/</tspan></text></g><g transform="translate(663.6806640625, 111.5)"><rect width="103.0693359375" height="18.5" stroke="none" fill="white" stroke-width="1" transform="translate(0, 0)" rx="5"/><text fill="black" font-size="14" font-weight="normal" transform="translate(1, 1)" alignment-baseline="middle"><tspan x="0" dy="14">request the '/' path</tspan></text></g><g transform="translate(914.48974609375, 142)"><rect width="129.12109375" height="18.5" stroke="none" fill="white" stroke-width="1" transform="translate(0, 0)" rx="5"/><text fill="black" font-size="14" font-weight="normal" transform="translate(1, 1)" alignment-baseline="middle"><tspan x="0" dy="14">request GET index.erb</tspan></text></g><g transform="translate(862.3896484375, 172.5)"><rect width="233.3212890625" height="18.5" stroke="none" fill="white" stroke-width="1" transform="translate(0, 0)" rx="5"/><text fill="black" font-size="14" font-weight="normal" transform="translate(1, 1)" alignment-baseline="middle"><tspan x="0" dy="14">response with the HTML code for a form</tspan></text></g><g transform="translate(616.041015625, 203)"><rect width="198.3486328125" height="18.5" stroke="none" fill="white" stroke-width="1" transform="translate(0, 0)" rx="5"/><text fill="black" font-size="14" font-weight="normal" transform="translate(1, 1)" alignment-baseline="middle"><tspan x="0" dy="14">response status line &amp; HTML code</tspan></text></g><g transform="translate(311.7578125, 233.5)"><rect width="256.283203125" height="18.5" stroke="none" fill="white" stroke-width="1" transform="translate(0, 0)" rx="5"/><text fill="black" font-size="14" font-weight="normal" transform="translate(1, 1)" alignment-baseline="middle"><tspan x="0" dy="14">HTTP response, status line and the html code</tspan></text></g><g transform="translate(49.10546875, 264)"><rect width="214.65234375" height="18.5" stroke="none" fill="white" stroke-width="1" transform="translate(0, 0)" rx="5"/><text fill="black" font-size="14" font-weight="normal" transform="translate(1, 1)" alignment-baseline="middle"><tspan x="0" dy="14">renders the page with the form to user</tspan></text></g></svg>