<svg xmlns="http://www.w3.org/2000/svg" xmlns:xlink="http://www.w3.org/1999/xlink" version="1.1" x="0px" y="0px" viewBox="0 0 100 125" style="enable-background:new 0 0 100 100;" xml:space="preserve"><path d="M63.8574,27.0121c0.03213-1.79464-0.39763-3.15038-1.27651-4.02944c-0.0513-0.0513-0.10858-0.10123-0.16335-0.15171  l0.08704-0.66089c0-0.00055,0-0.00109,0-0.00164l1.08372-8.24054c0.2545-1.93339-1.30901-3.51278-3.80215-3.84067  c-1.84639-0.24318-3.82209,0.36687-4.49184,1.94922c-0.22853-0.69494-0.70316-1.28614-1.40435-1.7117  c-1.40285-0.85149-3.46987-0.8933-4.91617-0.09986c-1.06364,0.58349-1.66319,1.53576-1.68838,2.68118l-0.0032,0.14738  c-0.69522-1.04173-2.11764-1.6431-3.88622-1.54347c-1.86114,0.10689-3.69443,1.08764-3.97152,2.7794  c-0.74241-0.5351-1.8259-0.77997-3.0805-0.63679c-2.25051,0.25833-3.69005,1.59326-3.50036,3.24623l1.01526,8.84702  c0.01981,0.1723,0.05742,0.33647,0.10876,0.49348c-0.04304,0.09932-0.0675,0.20854-0.0675,0.32369v1.31448  c0,1.57665,0.30452,6.95253,4.22314,9.94115c1.62613,1.24,3.61757,1.86145,5.95169,1.86145  c1.31102,0,2.73189-0.19904,4.25464-0.59166c0.60005,0.32077,1.28742,0.48431,2.05726,0.48431l0.35856,0.00037  c0.12816,0,0.25888,0.00037,0.39288,0.00037c2.68009,0,6.47858-0.0964,8.80266-2.26019  C61.66038,35.71252,63.79057,30.76093,63.8574,27.0121z M56.79204,13.03421c0.15226-1.15729,1.74096-1.37528,2.76955-1.24  c0.8734,0.11483,2.48109,0.66108,2.32043,1.906c-0.00109,0.00602-0.00182,0.01223-0.00256,0.01826l-1.053,8.0084  c-1.2504-0.67481-2.90501-1.25232-4.94871-1.72864L56.79204,13.03421z M48.92413,15.18886c0-0.00036,0-0.00073,0-0.00128  l0.04929-2.24466c0.01168-0.532,0.28481-0.94844,0.81242-1.23762c0.92014-0.50498,2.33832-0.4776,3.22779,0.06262  c0.51703,0.31383,0.76276,0.73228,0.75071,1.28162l-0.00036,0.00584c0,0.00329,0,0.00657,0,0.00986l-0.12803,6.47917  c-1.77423-0.30922-3.44842-0.46692-4.797-0.45446L48.92413,15.18886z M43.49348,13.20801  c0.98787-0.05459,2.48,0.24592,2.54937,1.31028c0.13327,2.04293,0.22036,2.96854,0.35217,4.36975l0.04897,0.52351  c-2.25525,0.73944-3.278,2.74627-3.10442,4.59805c0.08471,0.90325,0.46167,1.78706,1.09276,2.44868  c-0.71384,0.17691-1.50381,0.09877-2.08611-0.23889c-0.52342-0.30306-0.80092-0.76459-0.8252-1.37218l-0.34469-8.65588  c-0.00274-0.06892-0.01575-0.1346-0.03373-0.19818c-0.0199-0.42734-0.03916-0.83114-0.05719-1.19572  C41.03302,13.73563,42.49667,13.26515,43.49348,13.20801z M35.3497,25.56215l-0.80056-6.97717  c-0.00055-0.00383-0.00091-0.00767-0.00146-0.01168l-0.21178-1.84575c-0.09804-0.85441,1.04958-1.45305,2.17931-1.58268  c0.92397-0.10644,2.33996,0.08617,2.45078,1.0514l0.00092,0.00676c0.00018,0.00201,0.00036,0.0042,0.00055,0.00621l0.775,6.75398  c0.0152,0.36719,0.02419,0.58746,0.02465,0.59836c0.00032,0.00739,0.00256,0.01419,0.00301,0.02154l0.05304,1.33201  c0.00826,0.20758,0.03898,0.40617,0.07973,0.60028c-0.2754,0.59909-1.19321,1.00658-2.10075,1.11074  c-0.92452,0.10662-2.34033-0.08654-2.45097-1.05122L35.3497,25.56215z M50.74834,37.94276l-0.36148-0.00073  c-0.7949,0-1.4138-0.24792-1.89249-0.75802c-1.31704-1.40394-1.15145-4.24578-1.14962-4.27426  c0.02939-0.44875-0.31018-0.83652-0.75893-0.86683c-0.45258-0.02739-0.8378,0.30963-0.86792,0.75911  c-0.00881,0.13181-0.17686,2.98671,1.1572,4.94903c-3.23687,0.64528-5.84412,0.2346-7.76321-1.22904  c-2.64047-2.01372-3.58142-5.78592-3.58142-8.64456v-0.04478c0.50197,0.21041,1.09307,0.32629,1.74863,0.32629  c0.22438,0,0.45642-0.01351,0.69412-0.04053c1.13443-0.13031,2.06178-0.53447,2.67926-1.11448  c0.23588,0.26281,0.51406,0.49594,0.84191,0.68581c0.64172,0.37171,1.41125,0.55829,2.19008,0.55829  c0.74633,0,1.50107-0.17125,2.15922-0.51484c0.12944-0.06764,0.23072-0.16591,0.30713-0.27896  c0.37782,0.0916,0.78988,0.12889,1.23557,0.09786c5.12302-0.37025,6.47876,1.54525,6.5244,1.61243  c0.22784,0.37901,0.71785,0.50754,1.10417,0.28626c0.39033-0.22419,0.52506-0.7226,0.30087-1.11293  c-0.16869-0.29393-1.83042-2.86046-8.04665-2.41208c-1.44976,0.10479-2.20267-0.96395-2.30619-2.06849  c-0.12707-1.35501,0.69503-2.83198,2.81829-3.07754c1.34187-0.15536,3.49215-0.00566,5.75124,0.40019  c3.88357,0.69777,6.68744,1.74735,7.8953,2.95558c0.5466,0.54624,0.82301,1.53101,0.79964,2.84768  c-0.06208,3.46622-2.10354,7.93218-3.39721,9.13676C56.86032,37.95372,53.18269,37.94094,50.74834,37.94276z"/><path d="M40.76196,64.04655c-1.09601-0.97235-3.04298-1.25277-4.72643,0.43262c-0.91653,0.91621-2.02909,2.21441-3.1053,3.46976  c-1.57147,1.83306-3.93951,4.66035-4.64594,4.71799c-0.19085,0.01556-0.51311-0.38362-0.51311-2.95277V51.41538  c0-1.90965-1.57212-2.9401-3.0511-2.9401c-0.52196,0-1.01256,0.13323-1.43703,0.36946  c-0.07939-1.52628-1.25905-2.58289-2.93856-2.58289c-1.65569,0-3.36486,1.06047-3.40084,2.83681  c-0.57571-0.35571-1.26128-0.54192-1.9312-0.54192c-0.80488,0-1.55687,0.24893-2.11769,0.70135  c-0.65462,0.52739-1.01519,1.31151-1.01519,2.20694v2.71986c-0.47315-0.23064-1.01791-0.34999-1.56141-0.34999  c-1.48936,0-2.99722,0.86687-2.99722,2.52435v11.57833v10.65823c0,4.36066,2.29392,8.77519,6.67795,8.77519h7.54417  c4.86728,0,8.71515-4.58784,9.9796-6.09538c0.92205-1.09925,3.02935-3.99651,5.0672-6.79868  c1.68377-2.31502,3.42498-4.70922,4.38533-5.93148C42.28508,66.87826,41.85959,65.0202,40.76196,64.04655z M39.86393,67.67243  c-0.97657,1.24303-2.64768,3.54084-4.41681,5.97335c-2.0239,2.78269-4.11627,5.65983-5.00716,6.72176  c-1.15962,1.38258-4.68878,5.59039-8.8969,5.59039h-7.54417c-4.16463,0-5.26486-4.81568-5.26486-7.36211V67.93758V56.35925  c0-0.8792,1.03629-1.11126,1.58413-1.11126c0.57997,0,1.56141,0.234,1.56141,1.11126v11.57833  c0,0.39011,0.31644,0.70655,0.70655,0.70655c0.39011,0,0.70655-0.31644,0.70655-0.70655V51.46503  c0-0.47287,0.16455-0.84545,0.48877-1.10704c0.90355-0.72764,3.15917-0.45275,3.15885,1.25763V68.0885  c0,0.39011,0.31644,0.70655,0.70655,0.70655s0.70655-0.31644,0.70655-0.70655V49.15456c0-1.02039,1.16416-1.47962,1.99112-1.47962  c0.36123,0,1.54064,0.09607,1.54064,1.32871c0,1.80263,0,1.92795,0,2.41173v0.04609v16.69033  c0,0.39011,0.31644,0.70654,0.70655,0.70654s0.70655-0.31644,0.70655-0.70654V51.46146v-0.04609  c0-0.51344,0.1454-0.90777,0.43165-1.1726c0.24731-0.22848,0.59879-0.35441,0.9902-0.35441  c0.65819,0,1.63801,0.40666,1.63801,1.52701v18.29879c0,1.63282,0,4.36585,1.92621,4.36585  c1.13268,0,2.6123-1.58802,5.71857-5.21162c1.05901-1.23492,2.15372-2.51202,3.03163-3.39026  c1.04375-1.0431,2.15242-0.94022,2.78983-0.37453C40.428,65.63912,40.67434,66.64101,39.86393,67.67243z"/><path d="M24.97486,73.74866c-4.59011,0-6.21871,4.47912-6.21871,8.31498c0,0.39011,0.31643,0.70654,0.70654,0.70654  s0.70655-0.31644,0.70655-0.70654c0-1.15248,0.23173-6.90189,4.80562-6.90189c0.39011,0,0.70655-0.31644,0.70655-0.70654  S25.36497,73.74866,24.97486,73.74866z"/><path d="M24.12876,72.34856c0-0.39011-0.31643-0.70655-0.70654-0.70655h-8.35133c-0.39011,0-0.70655,0.31644-0.70655,0.70655  c0,0.39011,0.31644,0.70654,0.70655,0.70654h8.35133C23.81232,73.05511,24.12876,72.73867,24.12876,72.34856z"/><path d="M13.21446,71.64201h-1.69091c-0.39011,0-0.70655,0.31644-0.70655,0.70655c0,0.39011,0.31644,0.70654,0.70655,0.70654  h1.69091c0.39011,0,0.70655-0.31644,0.70655-0.70654C13.921,71.95845,13.60456,71.64201,13.21446,71.64201z"/><path d="M90.79465,44.88972c-1.85085-0.50456-3.48927,0.35035-3.97649,2.05391c-0.92872,2.90016-3.84204,13.61954-4.90452,17.95574  c-0.00728,0.00346-0.03916,0.00728-0.07485-0.0097c-0.0298-0.01421-0.04713-0.03604-0.05822-0.07312  c-0.64491-2.21887-2.12773-8.39552-3.2103-12.90533c-0.51426-2.14193-0.93842-3.90788-1.14045-4.69937  c-0.46332-1.81654-2.07298-2.75738-3.99625-2.34327c-1.86887,0.40233-3.58318,2.06535-3.20753,4.19481  c0.51794,2.19587,1.8382,8.6743,2.48328,11.86252c-0.36915-0.10006-0.77065-0.1517-1.20387-0.13402  c-1.20841,0.05592-2.40253,0.64811-2.9482,1.70755c-0.28788-0.39111-0.68618-0.70551-1.18355-0.92126  c-1.26104-0.54649-2.98159-0.34654-4.0912,0.47614c-0.85594,0.63451-1.26312,1.54277-1.14669,2.55778l1.06456,9.27849  l0.00173,0.01351c0.04912,0.42841,0.18791,0.81384,0.39886,1.15176v0.93785c0,5.18175,2.71788,10.4276,7.91279,10.4276  c1.3858,0,2.31339-0.17141,2.98033-0.40779c0.76216,0.32501,2.5094,0.50586,4.55473,0.50586  c3.65076,0,8.21324-0.57109,9.64409-1.90352c1.43396-1.33485,2.46248-3.79595,2.50164-5.98432  c0.02911-1.62595-0.47406-3.00446-1.4558-3.9862c-0.233-0.23292-0.63373-0.50625-1.18165-0.8183  c0.64806-3.35109,4.14851-21.41027,4.9173-24.55677C94.04549,47.05349,92.5197,45.35893,90.79465,44.88972z M71.57509,62.29932  c0.17361-0.01247,1.69421-0.03985,1.76421,1.28946c0.10154,1.93713,0.16808,2.81525,0.26857,4.14422l0.03404,0.45327  c-0.93408,0.36291-1.72028,1.12711-2.19677,2.03139c-0.71469,1.35625-0.81059,3.18791,0.41576,4.42171  c-0.37565-0.01196-0.74224-0.09698-1.0416-0.27055c-0.41766-0.24158-0.64209-0.60765-0.67943-1.08167  c-0.00325-0.05939-0.00225-0.11782-0.00914-0.17799l-0.00801-0.06974l-0.15213-3.81813l-0.21273-5.34453  C69.71107,62.69749,70.92603,62.32912,71.57509,62.29932z M64.18106,63.2665c0.68164-0.50525,1.81931-0.63936,2.59209-0.30391  c0.47094,0.20411,0.73743,0.54961,0.79218,1.02644l0.84243,7.34136c0.00034,0.00311,0.00069,0.00589,0.00104,0.009l0.20866,1.81828  l0.00446,0.11193h0.00018l0.00052,0.01317c0.00112,0.02776,0.00628,0.05393,0.00806,0.08144  c0.0233,0.43265-0.15425,0.8011-0.54519,1.09055c-0.68129,0.50491-1.82001,0.63936-2.59209,0.30392  c-0.47094-0.20412-0.73743-0.54961-0.79218-1.02644l-0.84243-7.34135c-0.00034-0.00312-0.00069-0.00589-0.00104-0.00901  l-0.22282-1.94164C63.58086,63.96997,63.76453,63.57491,64.18106,63.2665z M89.68608,78.60451  c-0.03604,2.01961-1.04411,3.99763-2.021,4.90729c-1.49405,1.39069-8.3175,1.71994-11.33106,1.38354  c0.0859-0.05177,0.16911-0.09184,0.26514-0.11973c0.3999-0.11609,0.63035-0.53471,0.51426-0.93495  c-0.1161-0.3999-0.53401-0.62965-0.93496-0.51426c-0.51044,0.14832-0.85074,0.41723-1.15119,0.65426  c-0.55272,0.43664-1.1796,0.93183-3.51352,0.93183c-4.9526,0-6.33857-5.56965-6.39817-8.70151  c0.42178,0.14949,0.87669,0.23876,1.34568,0.23876c0.9055,0,1.83248-0.27099,2.52278-0.78282  c0.18227-0.13515,0.33969-0.28503,0.48056-0.44339c0.17461,0.16993,0.37443,0.32124,0.59855,0.45101  c0.55134,0.31951,1.21322,0.47961,1.88239,0.47961c0.57698,0,1.15682-0.12583,1.67982-0.36469  c2.46188,1.35262,7.39195,3.9272,7.63609,4.0546c0.36837,0.19337,0.82475,0.04955,1.01778-0.31985  c0.19267-0.36906,0.04955-0.8251-0.31985-1.01778c-0.06965-0.03638-6.99309-3.65179-8.59408-4.59333  c-1.21842-0.71664-1.07668-2.05981-0.5853-2.99199c0.52569-0.99733,1.62283-1.82069,2.78857-1.2749  c0.93495,0.43837,2.35957,1.04342,4.00907,1.74411c3.30352,1.40312,8.29572,3.52393,9.09447,4.32199  C89.53741,76.57796,89.70098,77.76277,89.68608,78.60451z M92.01099,48.90295c-0.76048,3.11215-4.01891,19.89993-4.84998,24.19541  c-1.71474-0.84043-4.1246-1.87809-6.99356-3.0966c-1.63565-0.69515-3.04848-1.29501-3.95848-1.72159  c-0.36044-0.16907-0.71893-0.26558-1.06975-0.30266l-0.02703-0.35854c-0.09946-1.31857-0.16565-2.18941-0.26614-4.10921  c-0.02291-0.43555-0.13402-0.83034-0.31426-1.17831c-0.22642-1.12672-2.17503-10.80615-2.82847-13.57198  c-0.2093-1.19139,0.87674-2.16376,2.04768-2.4157c0.54163-0.11678,1.84148-0.22871,2.21713,1.24129  c0.20099,0.78802,0.62307,2.546,1.1349,4.67858c1.08604,4.52437,2.57372,10.72077,3.22867,12.97395  c0.20515,0.70589,0.86946,1.20109,1.59372,1.17302c0.71005-0.01456,1.27941-0.47233,1.4506-1.16644  c1.14738-4.65432,4.02016-15.1585,4.8858-17.86252c0.31743-1.10788,1.35011-1.24891,2.13673-1.03614  C91.42084,46.62344,92.36202,47.53968,92.01099,48.90295z"/><path d="M30.29634,29.41318l-2.37135-1.06743c-0.3385-0.1524-0.73759-0.00154-0.88999,0.33726  c-0.14993,0.3329-0.00448,0.7202,0.32134,0.87859c-6.42847,1.0354-11.19629,6.46843-11.19629,13.23359  c0,0.37158,0.3014,0.67298,0.67298,0.67298c0.37158,0,0.67298-0.3014,0.67298-0.67298c0-6.01791,4.19148-10.86769,9.87584-11.87754  c-0.22853,0.21589-0.29159,0.56146-0.11809,0.83813c0.12767,0.20372,0.34685,0.31531,0.57066,0.31531  c0.12211,0,0.24576-0.03308,0.35705-0.10294l2.18618-1.37131c0.21021-0.13169,0.33077-0.36848,0.31377-0.6161  C30.67441,29.73314,30.52262,29.51489,30.29634,29.41318z"/><path d="M80.04794,42.74707l1.06743-2.37135c0.1524-0.3385,0.00155-0.73759-0.33727-0.88999  c-0.33289-0.14993-0.7202-0.00448-0.87859,0.32134c-1.0354-6.42847-6.46843-11.19629-13.23359-11.19629  c-0.37157,0-0.67298,0.3014-0.67298,0.67298c0,0.37158,0.30141,0.67298,0.67298,0.67298  c6.01791,0,10.86768,4.19148,11.87754,9.87584c-0.21589-0.22853-0.56146-0.29159-0.83813-0.11809  c-0.20371,0.12767-0.31532,0.34684-0.31532,0.57066c0,0.12211,0.03308,0.24576,0.10294,0.35705l1.37131,2.18618  c0.13169,0.21021,0.36848,0.33077,0.6161,0.31377C79.72799,43.12514,79.94624,42.97335,80.04794,42.74707z"/><path d="M40.10731,76.50504l0.91021,2.43604c0.12991,0.34775,0.51792,0.52516,0.86589,0.39503  c0.34203-0.12772,0.51488-0.50359,0.39814-0.84656c5.2592,3.83903,12.47449,3.40363,17.28132-1.35681  c0.26402-0.26147,0.26608-0.68771,0.00462-0.95172s-0.68771-0.26608-0.95173-0.00462  c-4.27589,4.23462-10.6712,4.6691-15.38864,1.34082c0.3142,0.01046,0.60411-0.1879,0.67861-0.50587  c0.05491-0.23406-0.02003-0.46832-0.17752-0.62734c-0.08592-0.08676-0.19643-0.15134-0.32439-0.18126l-2.5127-0.58839  c-0.24149-0.05669-0.49457,0.02427-0.65855,0.21059C40.06861,76.01127,40.02034,76.27269,40.10731,76.50504z"/><text x="0" y="115" fill="#000000" font-size="5px" font-weight="bold" font-family="'Helvetica Neue', Helvetica, Arial-Unicode, Arial, Sans-serif">Created by Lucas Helle</text><text x="0" y="120" fill="#000000" font-size="5px" font-weight="bold" font-family="'Helvetica Neue', Helvetica, Arial-Unicode, Arial, Sans-serif">from the Noun Project</text></svg>