<svg xmlns="http://www.w3.org/2000/svg" xmlns:xlink="http://www.w3.org/1999/xlink" version="1.1" x="0px" y="0px" viewBox="0 0 100 125" enable-background="new 0 0 100 100" xml:space="preserve"><path d="M74.4,50.9L74,36.4c0-0.8-0.7-1.5-1.5-1.5c-1.8,0-3.3,0.3-4.5,0.7v-21c0-3.5-2.9-6.4-6.4-6.4c-1.4,0-2.7,0.4-3.7,1.2  C56.9,6.9,54.5,5,51.7,5c-3.5,0-6.4,2.9-6.4,6.4v0.4c-1-0.6-2.2-1-3.4-1c-3.5,0-6.4,2.9-6.4,6.4v7.7c-1-0.6-2.2-1-3.4-1  c-3.5,0-6.4,2.9-6.4,6.4v33c0,0.1,0,0.2,0,0.3v0.9c0,12.9,2.2,18.5,3.8,22.5c0.9,2.3,1.6,4,1.6,6.4c0,0.8,0.7,1.5,1.5,1.5  s1.5-0.7,1.5-1.5c0-3-0.8-5.1-1.8-7.5c-1.5-3.8-3.6-9.1-3.6-21.4v-1.2c0-0.1,0-0.2,0-0.3V30.4c0-1.9,1.5-3.4,3.4-3.4  s3.4,1.5,3.4,3.4v2.2v20c0,0.8,0.7,1.5,1.5,1.5s1.5-0.7,1.5-1.5v-20v-2.2V17.2c0-1.9,1.5-3.4,3.4-3.4s3.4,1.5,3.4,3.4v9.5v25.8  c0,0.8,0.7,1.5,1.5,1.5s1.5-0.7,1.5-1.5V26.7v-9.5v-5.8c0-1.9,1.5-3.4,3.4-3.4s3.4,1.5,3.4,3.4v3.3v12v25.6c0,0.8,0.7,1.5,1.5,1.5  s1.5-0.7,1.5-1.5V26.7v-12c0-1.9,1.5-3.4,3.4-3.4s3.4,1.5,3.4,3.4v23c-2.6,2.8-3.1,7.4-3.1,12.3v12.6c-7.1,1.3-10.1,12-10.2,12.4  c-0.2,0.8,0.2,1.6,1,1.8c0.8,0.2,1.6-0.2,1.8-1c0.8-2.9,3.9-10.4,8.8-10.4c0.8,0,1.5-0.7,1.5-1.5V49.9c0-9.1,2.2-11.5,6.2-11.9  l0.4,12.9l0,13.7c0,13-3.8,17.9-6.8,21.8c-1.6,2.1-3.1,4-3.8,6.7c-0.2,0.8,0.3,1.6,1.1,1.8c0.1,0,0.2,0,0.4,0c0.7,0,1.3-0.5,1.5-1.1  c0.5-2.1,1.7-3.6,3.2-5.6c3.3-4.3,7.4-9.7,7.4-23.7L74.4,50.9z"/><text x="0" y="115" fill="#000000" font-size="5px" font-weight="bold" font-family="'Helvetica Neue', Helvetica, Arial-Unicode, Arial, Sans-serif">Created by Till Teenck</text><text x="0" y="120" fill="#000000" font-size="5px" font-weight="bold" font-family="'Helvetica Neue', Helvetica, Arial-Unicode, Arial, Sans-serif">from the Noun Project</text></svg>