<?xml version="1.0" encoding="UTF-8" standalone="no"?>
<svg
   xmlns:dc="http://purl.org/dc/elements/1.1/"
   xmlns:cc="http://creativecommons.org/ns#"
   xmlns:rdf="http://www.w3.org/1999/02/22-rdf-syntax-ns#"
   xmlns:svg="http://www.w3.org/2000/svg"
   xmlns="http://www.w3.org/2000/svg"
   id="svg4084"
   version="1.1"
   viewBox="0 0 73.610832 37.62328"
   height="37.62328mm"
   width="73.610832mm">
  <defs
     id="defs4078" />
  <metadata
     id="metadata4081">
    <rdf:RDF>
      <cc:Work
         rdf:about="">
        <dc:format>image/svg+xml</dc:format>
        <dc:type
           rdf:resource="http://purl.org/dc/dcmitype/StillImage" />
        <dc:title></dc:title>
      </cc:Work>
    </rdf:RDF>
  </metadata>
  <g
     transform="translate(-39.545777,-49.134788)"
     id="layer1">
    <g
       transform="matrix(-0.17210806,0.03612937,0.03612937,0.17210806,108.2553,46.517499)"
       id="g2906">
      <path
         d="m 259.08,17.719 c -4.01,-0.256 -2.042,5.467 -6.258,5.006 -2.182,-2.162 -1.385,-7.737 1.251,-8.761 0.281,0.971 0.035,2.469 1.252,2.503 0.28,-0.97 0.034,-2.468 1.251,-2.503 0.299,1.786 2.062,2.111 2.504,3.755 z"
         id="path3" />
      <path
         d="m 173.97,17.719 c -1.584,1.436 -9.868,2.515 -11.265,0 4.306,0.479 7.803,-6.286 11.265,-2.503 -1.511,0.264 -0.771,1.389 0,2.503 z"
         id="path5" />
      <path
         d="m 240.3,20.221 c -1.901,1.276 -8.113,-1.155 -10.014,-3.754 5.03,-0.44 9.158,0.02 10.014,3.754 z"
         id="path7" />
      <path
         d="m 290.36,57.769 c 1.164,-2.922 4.529,-10.066 0,-5.006 -1.437,-2.351 -0.207,-10.399 5.006,-10.013 0.505,7.179 0.247,13.597 -5.006,15.019 z"
         id="path9" />
      <path
         d="M 112.88,15.406 H 94.107 c -0.743,-0.873 29.706,-4.351 18.773,0 z"
         id="path11" />
      <path
         d="m 369.21,86.556 c -0.326,-1.948 -2.745,-0.868 -3.754,0 3.313,-2.11 1.396,-9.449 3.754,-12.516 1.525,1.894 2.458,10.78 0,12.516 z"
         id="path13" />
      <path
         d="m 295.37,89.058 c 1.109,-4.731 0.937,-10.745 3.756,-13.767 -0.142,5.699 -0.024,11.657 -3.756,13.767 z"
         id="path15" />
      <path
         d="m 191.49,85.303 c -7.078,-0.848 -17.994,2.142 -21.276,-2.503 9.66,0.83 16.427,-3.137 21.276,2.503 z"
         id="path17" />
      <path
         d="m 334.17,125.35 c -1.795,-1.543 -2.371,-4.304 -2.503,-7.51 2.142,-1.195 2.521,-4.152 5.006,-5.005 -1.2,3.807 2.68,12.692 -2.503,12.515 z"
         id="path19" />
      <path
         d="m 289.11,124.1 c 0.39,-3.784 -1.39,-9.734 2.503,-10.013 -1.03,3.141 2.434,10.775 -2.503,10.013 z"
         id="path21" />
      <path
         d="m 188.99,126.61 c -4.574,0.851 -9.1,1.746 -15.019,1.251 1.243,-3.813 9.789,-6.836 13.769,-3.754 -7.763,0.486 0.084,0.641 1.25,2.503 z"
         id="path23" />
      <path
         d="m 200.25,169.16 c -0.073,-5.496 0.504,-10.345 2.503,-13.768 -1.261,4.163 2.766,13.615 -2.503,13.768 z"
         id="path25" />
      <path
         d="m 158.95,46.505 c 5.797,0.809 10.295,-4.935 15.019,0 -5.767,-1.534 -11.103,3.833 -15.019,0 z"
         id="path27" />
      <path
         d="m 46.229,20.57 c 8.204,0.277 14.635,-1.219 21.277,-2.503 -2.471,4.077 -20.887,4.58 -21.277,2.503 z"
         id="path29" />
      <path
         d="m 281.6,126.61 c 1.312,-2.515 0.599,-13.491 2.503,-11.265 0.411,4.236 -0.976,13.112 -2.503,11.265 z"
         id="path31" />
      <path
         d="m 285.36,129.11 c 0.745,-6.283 0.367,-10.093 1.252,-13.768 2.044,2.957 2.173,12.365 -1.252,13.768 z"
         id="path33" />
      <path
         d="m 367.96,126.6 c -5.002,1.868 -15.024,1.868 -20.025,0 -1.197,-7.076 1.841,-16.464 0,-20.024 -46.83,1.298 -86.581,1.938 -135.17,1.251 20.958,-7.99 48.129,-3.82 75.094,-5.007 43.017,-1.89 87.378,1.49 122.65,-7.509 4.33,-5.413 3.127,-19.587 -2.503,-22.527 2.882,6.014 0.101,13.255 -2.503,17.521 -8.105,0.18 -16.143,0.289 -21.276,-2.502 0.216,-7.711 -1.787,-17.64 5.006,-18.773 -31.898,1.353 -56.328,-3.795 -86.357,-1.252 0.331,5.869 3.998,16.742 -2.503,18.773 1.253,-5.3 2.223,-13.686 0,-18.773 -29.323,-3.635 -65.038,-0.877 -91.364,-7.51 62.248,-1.654 128.88,7.685 183.98,1.252 -0.668,-4.338 1.859,-11.87 -2.503,-12.516 0.728,4.898 -1.077,7.267 -2.503,10.013 -8.161,-0.962 -16.246,1.611 -21.275,0 0.783,-3.804 -1.603,-10.78 1.252,-12.516 -5.466,15.413 17.483,12.443 20.023,5.006 -6.653,-8.223 -20.667,-9.609 -32.541,-11.264 -47.229,-6.583 -111.25,0.445 -155.19,-10.013 36.4,2.273 86.049,1.268 121.4,2.503 7.167,0.251 22.518,6.253 21.276,-7.509 -3.388,4.539 -11.951,3.901 -20.025,3.754 -2.494,-1.276 2.634,-8.914 -1.251,-11.264 C 270.562,12.4 207.742,3.398 153.952,6.458 112.452,8.817 71.454,6.336 36.312,11.464 23.843,13.281 11.686,18.925 0.014,16.47 22.259,8.675 47.527,6.475 75.107,5.207 107.902,3.7 144.382,-1.011 176.487,0.2 c 6.743,0.256 13.555,3.074 20.025,3.756 52.454,5.521 106.54,1.751 148.94,17.521 3.519,3.539 1.673,11.946 2.503,15.02 22.246,3.101 56.888,-0.582 48.811,28.785 5.949,-0.524 9.027,1.819 13.769,2.503 4.653,6.229 8.617,18.292 5.005,28.787 -7.016,9.671 -28.406,4.97 -41.302,8.762 7.52,10.533 1.729,26.649 -6.257,32.54 -31.736,6.23 -69.292,6.638 -106.38,7.51 5.988,5.631 10.071,17.214 6.259,28.786 -27.447,16.401 -68.675,7.55 -100.12,12.516 -15.694,2.479 -21.298,6.535 -33.792,7.51 -54.56,4.252 -64.943,-32.562 -103.88,-47.561 -5.108,-1.966 -11.236,-2.437 -16.271,-3.754 -3.554,-0.933 -13.292,0.196 -13.767,-7.51 0.09,-5.264 13.964,2.216 15.02,0 -1.541,-2.722 -13.286,-6.875 -7.511,-8.762 35.521,12.869 61.882,56.016 106.38,61.327 22.711,2.71 44.086,-4.475 67.584,-6.259 25.915,-1.966 51.778,2.017 75.094,-6.258 -5.259,-2.249 -14.193,-0.824 -20.024,-2.503 -0.108,-7.2 -0.271,-14.455 1.252,-20.025 6.923,-2.259 13.888,0.48 21.276,1.252 3.234,5.568 2.444,14.378 3.754,18.773 17.154,-49.229 -104.77,-10.208 -123.9,-36.295 32.543,9.766 100.99,5.861 148.94,3.754 34.288,-1.507 102.81,3.411 81.353,-31.289 2.749,4.647 1.047,13.937 -1.256,17.522 z M 326.66,17.72 c -1.144,2.194 -0.43,6.245 -2.503,7.51 4.209,1.758 10.931,2.934 15.021,1.251 1.364,-8.457 -6.901,-7.285 -12.518,-8.761 z m 60.076,55.068 v 13.768 c 4.332,1.925 11.41,1.106 17.522,1.252 8.308,-11.294 -5.278,-20.534 -17.522,-15.02 z m -35.044,37.548 c -2.397,3.025 -0.789,10.057 -1.251,15.019 h 13.768 c 9.719,-7.536 -0.683,-22.006 -12.517,-15.019 z m -111.39,45.057 c -1.666,3.758 -1.273,9.576 -1.252,15.021 7.063,-0.39 11.13,2.219 18.773,1.251 2.625,-3.851 1.255,-12.357 -1.252,-15.021 -6.133,0.292 -9.475,-2.205 -16.269,-1.251 z"
         id="path35" />
    </g>
  </g>
</svg>
