<?xml version="1.0" encoding="UTF-8" standalone="no"?>
<svg
   xmlns:dc="http://purl.org/dc/elements/1.1/"
   xmlns:cc="http://creativecommons.org/ns#"
   xmlns:rdf="http://www.w3.org/1999/02/22-rdf-syntax-ns#"
   xmlns:svg="http://www.w3.org/2000/svg"
   xmlns="http://www.w3.org/2000/svg"
   width="170.11462mm"
   height="99.435257mm"
   viewBox="0 0 170.11462 99.435257"
   version="1.1"
   id="svg8">
  <defs
     id="defs2" />
  <metadata
     id="metadata5">
    <rdf:RDF>
      <cc:Work
         rdf:about="">
        <dc:format>image/svg+xml</dc:format>
        <dc:type
           rdf:resource="http://purl.org/dc/dcmitype/StillImage" />
        <dc:title></dc:title>
      </cc:Work>
    </rdf:RDF>
  </metadata>
  <g
     id="layer1"
     transform="translate(-18.321084,-6.9996632)">
    <path
       style="fill:#ffff97;fill-opacity:1;stroke:#000000;stroke-width:1.765;stroke-linecap:butt;stroke-linejoin:miter;stroke-miterlimit:4;stroke-dasharray:none;stroke-opacity:1"
       d="m 37.62944,38.393537 c -1.112515,0.08657 -2.239284,-0.0129 -3.319426,-0.29304 -2.262576,-0.586807 -4.279456,-1.961701 -5.826803,-3.713645 -1.547348,-1.751944 -2.644294,-3.868456 -3.404408,-6.078845 -0.756685,-2.200417 -1.193128,-4.544967 -0.954093,-6.859544 0.239035,-2.314577 1.197993,-4.600872 2.90677,-6.180266 1.6177,-1.495213 3.850409,-2.280121 6.052186,-2.210856 2.201776,0.06927 4.353264,0.973302 6.002173,2.434026 1.643444,1.455883 2.765123,3.395419 3.877036,5.288605 1.111912,1.893186 2.276554,3.815512 3.976212,5.205355 1.507299,1.232547 3.378718,1.983511 5.303217,2.279188 1.924499,0.295677 3.901456,0.148528 5.799544,-0.285504 3.796175,-0.868066 7.230972,-2.842431 10.625703,-4.750384 8.045339,-4.521751 16.233,-8.817736 24.741659,-12.39215 4.610416,-1.9367956 9.49853,-3.6883928 14.48409,-3.2994761 2.49279,0.1944584 4.96887,0.9451339 7.0286,2.3626254 2.05973,1.4174917 3.67851,3.5279987 4.30126,5.9495607 0.66654,2.591823 0.19047,5.388923 0.96178,7.95152 0.57033,1.894889 1.83883,3.581226 3.53159,4.60614 1.69276,1.024913 3.79836,1.36571 5.71471,0.87226 2.1104,-0.543417 3.87453,-2.028817 5.20442,-3.755225 1.3299,-1.726408 2.28641,-3.703836 3.31619,-5.624425 1.77303,-3.306789 3.86975,-6.571807 6.93936,-8.72958 1.61659,-1.136381 3.48271,-1.9362362 5.43823,-2.2203248 1.95551,-0.2840887 3.99914,-0.040617 5.79244,0.7893382 1.7933,0.8299556 3.3215,2.2577546 4.1816,4.0367896 0.86011,1.779034 1.02425,3.902856 0.35417,5.761817 -0.66673,1.849674 -2.08001,3.334857 -2.91354,5.1156 -0.62252,1.329933 -0.90871,2.819735 -0.79331,4.283611 0.1154,1.463875 0.63558,2.897737 1.50978,4.077577 0.8742,1.17984 2.10255,2.099026 3.49099,2.577002 1.38845,0.477977 2.93186,0.508076 4.32912,0.05652 1.58079,-0.510868 2.90656,-1.591815 4.14448,-2.69971 1.23793,-1.107895 2.45144,-2.28165 3.92747,-3.04403 1.88633,-0.9743 4.1332,-1.20389 6.19401,-0.693475 2.06082,0.510414 3.9242,1.745262 5.24891,3.404365 1.22561,1.534985 1.9976,3.437171 2.13537,5.396589 0.13776,1.959418 -0.36793,3.966898 -1.46164,5.598491 -1.31467,1.961223 -3.37544,3.289507 -5.46733,4.384378 -2.09189,1.094872 -4.29165,2.024252 -6.17833,3.443822 -1.41269,1.062928 -2.6431,2.41514 -3.3519,4.034739 -0.70881,1.6196 -0.85692,3.523162 -0.18747,5.159421 0.55197,1.349116 1.60444,2.429408 2.71466,3.373968 1.11022,0.94456 2.30879,1.796295 3.29217,2.872282 1.16669,1.276558 2.00331,2.856645 2.37766,4.545025 0.37435,1.68838 0.28242,3.481199 -0.28752,5.113967 -0.56994,1.632769 -1.61919,3.098831 -2.9968,4.144281 -1.3776,1.04545 -3.08005,1.662844 -4.80857,1.717507 -2.13067,0.06738 -4.20286,-0.696824 -6.1104,-1.648447 -1.90754,-0.951624 -3.71913,-2.102852 -5.69545,-2.901893 -4.91407,-1.986797 -10.57686,-1.627763 -15.52983,0.259965 -4.95298,1.887728 -9.25577,5.203127 -12.97083,8.983845 -4.37679,4.454147 -8.05653,9.618395 -12.90794,13.550253 -2.92587,2.37129 -6.30797,4.28034 -10.0035,5.00616 -3.69553,0.72582 -7.72851,0.1746 -10.815785,-1.98235 -2.963556,-2.07051 -4.80691,-5.380103 -6.217712,-8.708663 -1.410802,-3.32856 -2.508262,-6.823401 -4.452087,-9.87155 -1.3295,-2.084814 -3.048685,-3.932006 -5.092116,-5.324274 -2.043431,-1.392269 -4.414295,-2.32184 -6.872453,-2.589196 -3.429797,-0.373034 -6.875857,0.536969 -10.095777,1.77583 -3.565093,1.371665 -7.039923,3.174082 -10.83377,3.619143 -1.896923,0.222531 -3.860323,0.08808 -5.641177,-0.602132 -1.780853,-0.690217 -3.367034,-1.966822 -4.238258,-3.666471 -0.770409,-1.502972 -0.949621,-3.227024 -1.190813,-4.898634 -0.241191,-1.67161 -0.586143,-3.401186 -1.610373,-4.744096 -0.923319,-1.210601 -2.328831,-1.990543 -3.800298,-2.381511 -1.471467,-0.390969 -3.014948,-0.421249 -4.535828,-0.350572 -1.52088,0.07068 -3.037987,0.239801 -4.560508,0.238571 -1.522521,-0.0012 -3.068579,-0.179745 -4.470061,-0.774658 -2.155592,-0.915024 -3.846515,-2.812316 -4.618376,-5.023215 -0.771861,-2.2109 -0.643224,-4.701093 0.244045,-6.868257 0.887269,-2.167164 2.507927,-4.00708 4.483612,-5.264266 1.975685,-1.257185 4.293468,-1.94182 6.630988,-2.082702 2.611494,-0.157395 5.304168,0.337312 7.807288,-0.42365 1.25156,-0.380481 2.43522,-1.097766 3.177355,-2.174986 0.371068,-0.53861 0.625589,-1.161061 0.709289,-1.809741 0.0837,-0.648681 -0.0067,-1.322874 -0.284792,-1.914883 -0.371596,-0.791151 -1.081877,-1.416175 -1.913863,-1.684136 -0.831985,-0.267962 -1.773528,-0.174948 -2.537,0.250626 z"
       id="path16" />
  </g>
</svg>
