<?xml version="1.0" encoding="UTF-8" standalone="no"?>
<svg
   xmlns:dc="http://purl.org/dc/elements/1.1/"
   xmlns:cc="http://creativecommons.org/ns#"
   xmlns:rdf="http://www.w3.org/1999/02/22-rdf-syntax-ns#"
   xmlns:svg="http://www.w3.org/2000/svg"
   xmlns="http://www.w3.org/2000/svg"
   xmlns:sodipodi="http://sodipodi.sourceforge.net/DTD/sodipodi-0.dtd"
   xmlns:inkscape="http://www.inkscape.org/namespaces/inkscape"
   id="svg176"
   version="1.1"
   viewBox="0 0 39.557597 55.800159"
   height="55.800159mm"
   width="39.557598mm"
   sodipodi:docname="rock.svg"
   inkscape:version="0.92.2 5c3e80d, 2017-08-06">
  <sodipodi:namedview
     pagecolor="#ffffff"
     bordercolor="#666666"
     borderopacity="1"
     objecttolerance="10"
     gridtolerance="10"
     guidetolerance="10"
     inkscape:pageopacity="0"
     inkscape:pageshadow="2"
     inkscape:window-width="1059"
     inkscape:window-height="814"
     id="namedview4076"
     showgrid="false"
     fit-margin-top="-2.7755576e-17"
     fit-margin-left="0"
     fit-margin-right="0"
     fit-margin-bottom="0"
     inkscape:zoom="1.1893044"
     inkscape:cx="127.9116"
     inkscape:cy="90.258341"
     inkscape:window-x="42"
     inkscape:window-y="112"
     inkscape:window-maximized="0"
     inkscape:current-layer="svg176" />
  <defs
     id="defs170" />
  <metadata
     id="metadata173">
    <rdf:RDF>
      <cc:Work
         rdf:about="">
        <dc:format>image/svg+xml</dc:format>
        <dc:type
           rdf:resource="http://purl.org/dc/dcmitype/StillImage" />
        <dc:title></dc:title>
      </cc:Work>
    </rdf:RDF>
  </metadata>
  <g
     id="layer1"
     transform="translate(-1.3878692,-2.248728)">
    <g
       transform="matrix(-0.06864335,-0.09901139,0.09901139,-0.06864335,24.163013,58.049067)"
       id="g2982">
      <path
         d="m 0,129.73 c 5.056,1.287 3.347,9.338 10.379,8.649 2.95,-0.709 -0.364,-2.23 0,-5.189 4.51,2.985 8.768,6.223 8.649,13.838 C 12.094,144.738 7.204,140.399 0,138.379 Z"
         style="fill-rule:evenodd"
         id="path3-4"
         inkscape:connector-curvature="0" />
      <path
         d="m 19.028,131.46 c 3.663,16.518 24.55,15.811 34.596,25.947 -11.769,-1.308 -20.868,-9.217 -29.407,-8.649 0.714,-8.21 -5.903,-9.088 -5.189,-17.298 z"
         style="fill-rule:evenodd"
         id="path5-0"
         inkscape:connector-curvature="0" />
      <path
         d="m 247.36,153.95 c 9.951,-0.126 16.131,18.447 20.758,29.405 -8.991,-7.729 -11.192,-22.252 -20.758,-29.405 z"
         style="fill-rule:evenodd"
         id="path7-9"
         inkscape:connector-curvature="0" />
      <path
         d="m 385.74,205.84 c 4.146,3.703 -5.014,8.726 -10.379,8.649 1.757,-4.586 7.999,-4.686 10.379,-8.649 z"
         style="fill-rule:evenodd"
         id="path9-4"
         inkscape:connector-curvature="0" />
      <path
         d="m 321.74,243.9 c 4.889,3.89 -2.845,9.726 -3.46,13.838 -4.889,-3.89 2.842,-9.726 3.46,-13.838 z"
         style="fill-rule:evenodd"
         id="path11-8"
         inkscape:connector-curvature="0" />
      <path
         d="m 0,153.95 c 10.402,3.682 40.146,8.392 53.624,13.838 40.282,16.275 58.092,66.777 124.55,51.894 -6.811,-5.875 -15.101,-10.27 -22.488,-15.567 13.222,1.081 20.92,12.012 34.596,17.297 7.584,2.931 18.474,2.089 27.677,6.92 11.564,6.071 21.198,19.362 32.866,27.677 24.197,17.243 40.023,31.271 64.002,6.919 -3.854,7.102 -9.293,12.617 -19.027,13.838 18.444,3.007 35.974,-11.953 36.325,-25.946 0.427,-16.97 -25.394,-39.572 -36.325,-57.084 -19.65,-31.474 -23.18,-54.689 -36.326,-79.57 5.988,-3.042 6.72,13.99 13.838,15.568 7.606,-5.078 5.466,-19.906 15.568,-22.487 -1.614,8.764 -4.848,15.91 -6.918,24.217 5.624,3.309 9.881,3.427 13.838,1.73 6.081,-24.971 9.578,-51.964 32.865,-55.354 -13.657,11.844 -36.839,46.024 -15.568,65.732 14.236,-11.135 18.784,-31.958 34.597,-41.515 3.048,6.002 -1.768,7.836 8.648,5.189 -5.946,5.585 -16.236,6.826 -20.757,13.838 2.43,2.873 9.672,-4.067 17.297,-1.73 -15.773,4.983 -27.891,13.624 -31.135,31.137 1.87,12.262 21.477,13.787 25.946,32.865 1.311,5.597 -2.26,12.064 -1.729,17.299 2.02,19.947 29.403,38.392 39.785,15.568 2.611,5.559 -0.23,6.872 5.189,6.919 8.24,-0.327 15.966,-9.178 17.298,-20.758 5.03,-43.67 -5.31,-129.17 -20.76,-152.23 -5.61,-8.383 -16.99,-15.295 -29.4,-17.293 -58.25,-9.38 -117.67,20.656 -172.98,20.757 C 116.646,53.743 58.116,15.272 0.006,5.183 v -5.189 c 28.95,8.619 55.573,15.987 83.03,24.217 25.389,7.61 52.703,19.662 83.03,22.488 34.634,3.226 63.573,-4.378 93.409,-10.379 44.027,-8.854 116.44,-25.423 136.65,13.838 10.15,19.708 10.938,52.111 13.839,74.381 3.635,27.895 10.597,61.064 5.189,83.03 -1.816,7.374 -10.973,14.042 -17.298,25.946 -5.971,11.24 -8.695,21.203 -15.568,25.947 -4.525,3.125 -12.553,0.71 -20.757,5.189 -8.051,4.396 -10.497,15.109 -22.488,19.028 -8.403,2.746 -20.753,1.121 -31.136,3.459 -12.255,2.761 -19.113,9.001 -27.677,8.649 -13.187,-0.541 -39.07,-11.738 -53.624,-22.488 -7.122,-5.26 -9.862,-15.02 -17.298,-20.757 -27.34,-21.11 -82.78,-17.64 -112.42,-31.14 -22.143,-10.08 -32.794,-35.57 -50.167,-43.24 -13.597,-6.01 -35.367,-5.07 -46.703,-8.65 v -15.57 z m 364.99,102.06 c 3.907,-6.804 8.095,-2.571 12.109,-8.649 2.249,4.296 -5.075,7.179 0,8.649 4.095,-6.283 10.517,-10.24 12.108,-19.028 -11.298,-0.811 -22.458,-1.761 -32.867,-3.46 -2.915,8.062 -3.552,24.269 8.65,22.488 z"
         style="fill-rule:evenodd"
         id="path13-8"
         inkscape:connector-curvature="0" />
      <path
         d="m 219.68,140.11 c 1.396,-5.323 10.558,10.831 10.379,1.729 6.086,5.444 12.56,10.504 13.838,20.758 -9.095,-6.473 -15.122,-16.014 -24.217,-22.487 z"
         style="fill-rule:evenodd"
         id="path15-2"
         inkscape:connector-curvature="0" />
      <path
         d="m 164.33,162.6 c 1.46,-2.458 8.919,3.65 10.379,6.919 2.568,-0.755 -0.683,-2.213 0,-5.189 7.596,6.242 14.36,13.316 22.487,19.027 C 187.175,182.4 172.132,171.533 164.33,162.6 Z"
         style="fill-rule:evenodd"
         id="path17-4"
         inkscape:connector-curvature="0" />
      <path
         d="m 207.58,138.38 c -6.535,-3.267 -16.759,-2.845 -19.027,-10.379 7.358,-3.752 17.359,2.874 19.027,10.379 z"
         style="fill-rule:evenodd"
         id="path19-5"
         inkscape:connector-curvature="0" />
    </g>
  </g>
</svg>
