<svg height="503pt" viewBox="0 0 503 503.08183" width="503pt" xmlns="http://www.w3.org/2000/svg"><path d="m503.101562 122.734375c-1.996093 26.902344-24.386718 59.789063-40.269531 71.851563-.773437.59375-1.617187 1.089843-2.515625 1.476562-16.660156 7.636719-189.003906 88.6875-194.296875 91.03125l33.320313-89.730469 185.363281-87.039062c4.117187-1.90625 8.933594-1.523438 12.699219 1.015625 3.761718 2.539062 5.921875 6.859375 5.699218 11.394531zm0 0" fill="#95a5a5"/><path d="m161.449219 257.9375c-1.171875-4.113281-2.679688-8.117188-4.511719-11.976562-20.074219-40.351563-68.601562-57.425782-109.519531-38.53125-19.632813 8.621093-34.9375 24.832031-42.410157 44.929687-7.472656 20.097656-6.480468 42.371094 2.753907 61.722656 19.25 38.933594 65.207031 56.507813 105.523437 40.351563 1.390625-.519532 2.691406-1.125 3.992188-1.734375l68.46875-33.671875 33.410156-89.816406zm-122.273438 43.824219c-8.1875-17.488281-5.035156-38.183594 7.988281-52.4375 13.023438-14.253907 33.351563-19.257813 51.503907-12.675781 18.148437 6.578124 30.550781 23.445312 31.414062 42.734374.863281 19.289063-9.980469 37.199219-27.46875 45.375-23.871093 11.15625-52.265625.863282-63.4375-22.996093zm0 0" fill="#c03a2b"/><path d="m354.878906.113281c-27.246094 4.339844-58.921875 29.070313-69.941406 45.558594-.550781.882813-1.015625 1.8125-1.390625 2.777344l-70.34375 189.449219 65 23.5625 90.5625-243.816407c1.628906-4.289062.882813-9.113281-1.964844-12.710937-2.847656-3.59375-7.375-5.425782-11.921875-4.820313zm0 0" fill="#bdc3c7"/><path d="m260.203125 347.234375c-4.117187-1.457031-8.355469-2.53125-12.667969-3.210937l33.496094-90.164063-65.257812-23-.957032 2.691406-33.410156 89.816407-26.726562 72.027343c-.433594 1.390625-.953126 2.605469-1.390626 3.992188-12.480468 41.25 10.027344 84.957031 50.855469 98.753906 42.394531 15.300781 89.242188-6.097656 105.4375-48.160156 7.355469-20.160157 6.261719-42.4375-3.035156-61.78125-9.292969-19.34375-26.003906-34.113281-46.34375-40.964844zm16.835937 91.289063c-9.429687 24.328124-36.542968 36.691406-61.09375 27.859374-11.769531-3.964843-21.441406-12.507812-26.832031-23.695312s-6.039062-24.078125-1.804687-35.75c9.429687-24.328125 36.519531-36.71875 61.09375-27.945312 11.765625 3.996093 21.433594 12.554687 26.820312 23.753906 5.386719 11.195312 6.042969 24.09375 1.816406 35.777344zm0 0" fill="#e64c3c"/><g fill="#7f8c8d"><path d="m250.746094 259.976562c0-4.792968-3.886719-8.679687-8.679688-8.679687-4.792968 0-8.679687 3.886719-8.679687 8.679687 0 4.792969 3.886719 8.675782 8.679687 8.675782 4.792969 0 8.679688-3.882813 8.679688-8.675782zm0 0"/><path d="m339.929688 225.132812c-4.058594.03125-7.59375-2.753906-8.515626-6.707031-.921874-3.949219 1.019532-8.011719 4.667969-9.78125l52.9375-26.03125c2.789063-1.453125 6.148438-1.277343 8.773438.453125 2.625 1.730469 4.113281 4.746094 3.878906 7.882813-.230469 3.136719-2.140625 5.902343-4.988281 7.230469l-52.980469 26.035156c-1.171875.585937-2.464844.902344-3.773437.917968zm0 0"/><path d="m428.226562 181.742188c-4.058593.03125-7.59375-2.753907-8.515624-6.707032-.917969-3.949218 1.019531-8.011718 4.671874-9.78125l17.660157-8.675781c2.789062-1.449219 6.148437-1.277344 8.773437.453125s4.109375 4.746094 3.878906 7.882812c-.230468 3.136719-2.140624 5.90625-4.992187 7.230469l-17.660156 8.679688c-1.183594.59375-2.492188.910156-3.816407.917969zm0 0"/><path d="m327.890625 184-26.03125 69.859375-2.867187 7.636719-4.511719 12.320312c-11.714844 5.46875-20.738281 9.632813-25.25 11.800782l8.9375-24.121094 2.515625-6.683594.347656-.953125 2.34375-6.511719h.085938l19.089843-51.457031zm0 0"/></g><path d="m215.773438 230.949219-.957032 2.601562-1.300781 3.386719v.085938l-.347656.867187-2.34375 6.246094-28.375 76.542969-24.039063 11.800781 3.386719-9.113281 29.9375-80.53125 6.507813-3.210938 9.460937-4.683594zm0 0" fill="#802f34"/><path d="m291.269531 396.089844c-7.351562-15.722656-20.746093-27.800782-37.140625-33.496094-7.03125-2.453125-14.421875-3.714844-21.867187-3.734375-27.1875-.074219-51.585938 16.683594-61.269531 42.089844-5.835938 15.796875-5.085938 33.273437 2.085937 48.511719 7.375 15.632812 20.726563 27.640624 37.054687 33.320312 7.082032 2.488281 14.535157 3.75 22.039063 3.734375 27.117187.054687 51.4375-16.667969 61.09375-42.003906 5.914063-15.746094 5.191406-33.214844-1.996094-48.421875zm-14.230469 42.433594c-9.429687 24.328124-36.542968 36.691406-61.09375 27.859374-11.769531-3.964843-21.441406-12.507812-26.832031-23.695312s-6.039062-24.078125-1.804687-35.75c9.429687-24.328125 36.519531-36.71875 61.09375-27.945312 11.765625 3.996093 21.433594 12.554687 26.820312 23.753906 5.386719 11.195312 6.042969 24.09375 1.816406 35.777344zm0 0" fill="#c03a2b"/><path d="m141.316406 253.945312c-7.308594-15.640624-20.535156-27.730468-36.765625-33.605468-16.230469-5.878906-34.128906-5.058594-49.753906 2.277344-32.535156 15.25-46.558594 53.976562-31.328125 86.519531 10.796875 22.828125 33.757812 37.414062 59.011719 37.488281 9.511719.007812 18.90625-2.097656 27.507812-6.160156 32.535157-15.25 46.554688-53.976563 31.328125-86.519532zm-38.703125 70.8125c-17.488281 8.1875-38.183593 5.035157-52.4375-7.988281-14.253906-13.023437-19.257812-33.351562-12.675781-51.503906 6.578125-18.152344 23.445312-30.550781 42.734375-31.414063 19.289063-.863281 37.199219 9.976563 45.375 27.46875 11.15625 23.867188.863281 52.261719-22.996094 63.4375zm0 0" fill="#802f34"/></svg>