<?xml version="1.0" encoding="UTF-8" standalone="no"?>
<!-- Created with Inkscape (http://www.inkscape.org/) -->

<svg
   xmlns:dc="http://purl.org/dc/elements/1.1/"
   xmlns:cc="http://creativecommons.org/ns#"
   xmlns:rdf="http://www.w3.org/1999/02/22-rdf-syntax-ns#"
   xmlns:svg="http://www.w3.org/2000/svg"
   xmlns="http://www.w3.org/2000/svg"
   xmlns:sodipodi="http://sodipodi.sourceforge.net/DTD/sodipodi-0.dtd"
   xmlns:inkscape="http://www.inkscape.org/namespaces/inkscape"
   width="81.586243mm"
   height="43.678238mm"
   viewBox="0 0 81.586243 43.678238"
   version="1.1"
   id="svg4196"
   inkscape:version="0.92.2 5c3e80d, 2017-08-06"
   sodipodi:docname="scissors.svg">
  <defs
     id="defs4190" />
  <sodipodi:namedview
     id="base"
     pagecolor="#ffffff"
     bordercolor="#666666"
     borderopacity="1.0"
     inkscape:pageopacity="0.0"
     inkscape:pageshadow="2"
     inkscape:zoom="0.35"
     inkscape:cx="62.750147"
     inkscape:cy="119.68442"
     inkscape:document-units="mm"
     inkscape:current-layer="layer1"
     showgrid="false"
     fit-margin-top="0"
     fit-margin-left="0"
     fit-margin-right="0"
     fit-margin-bottom="0"
     inkscape:window-width="580"
     inkscape:window-height="449"
     inkscape:window-x="309"
     inkscape:window-y="238"
     inkscape:window-maximized="0" />
  <metadata
     id="metadata4193">
    <rdf:RDF>
      <cc:Work
         rdf:about="">
        <dc:format>image/svg+xml</dc:format>
        <dc:type
           rdf:resource="http://purl.org/dc/dcmitype/StillImage" />
        <dc:title></dc:title>
      </cc:Work>
    </rdf:RDF>
  </metadata>
  <g
     inkscape:label="Layer 1"
     inkscape:groupmode="layer"
     id="layer1"
     transform="translate(-89.23069,-167.05969)">
    <g
       id="g3028"
       transform="matrix(0.19259459,0.06838584,-0.06838584,0.19259459,93.512522,161.50073)">
      <path
         inkscape:connector-curvature="0"
         id="path3-1"
         style="fill-rule:evenodd"
         d="m 361.4,18.798 c 0.183,3.935 -2.72,8.736 0.351,11.859 0.581,-1.918 2.404,-2.862 1.882,-1.278 3.681,-0.369 -0.205,-4.866 1.708,-7.206 -2.92,-0.673 -1.599,-2.539 -3.941,-3.375 z" />
      <path
         inkscape:connector-curvature="0"
         id="path5-7"
         style="fill-rule:evenodd"
         d="m 323.56,19.741 c -1.958,1.333 -1.575,8.389 0.848,10.972 2.115,-4.334 -1.078,-7.171 -0.848,-10.972 z" />
      <path
         inkscape:connector-curvature="0"
         id="path7-1"
         style="fill-rule:evenodd"
         d="m 373.98,89.99 c -3.714,1.095 -4.415,7.683 -4.585,10.26 3.952,-1.163 2.957,-7.273 4.585,-10.26 z" />
      <path
         inkscape:connector-curvature="0"
         id="path9-1"
         style="fill-rule:evenodd"
         d="m 321.97,72.5 c -2.411,1.459 -2.76,8.722 -4.691,12.531 4.131,-1.946 5.219,-9.416 4.691,-12.531 z" />
      <path
         inkscape:connector-curvature="0"
         id="path11-5"
         style="fill-rule:evenodd"
         d="m 270.18,127.44 c -4.752,9.811 -19.64,1.719 -24.672,-8 5.153,-4.7 10.842,-7.498 16.442,-10.608 2.885,6.549 11.457,11.943 8.23,18.608 z m -21.122,-6.01 c 4.796,2.948 9.505,7.987 15.086,8.457 11.746,-11.772 -8.793,-23.322 -15.086,-8.457 z" />
      <path
         inkscape:connector-curvature="0"
         id="path13-2"
         style="fill-rule:evenodd"
         d="m 253.65,111.17 c -2.67,-1.188 -6.125,1.818 -5.647,3.832 2.115,-0.45 3.98,-1.786 5.647,-3.832 z" />
      <path
         inkscape:connector-curvature="0"
         id="path15-7"
         style="fill-rule:evenodd"
         d="m 2.984,27.804 c 19.307,-0.023 39.398,-2.352 60.289,-3.524 19.921,-1.12 40.249,-0.095 60.179,-1.253 17.961,-1.042 38.129,-5.02 57.842,-9.561 20.324,-4.681 39.488,-12.878 57.559,-13.218 13.051,-0.246 29.157,4.603 43.064,4.315 9.181,-0.19 19.653,-2.939 30.252,-4.035 21.304,-2.203 44.943,3.055 65.787,5.389 12.365,1.385 29.646,4.323 29.889,13.256 0.524,19.289 -27.008,14.056 -36.328,16.955 -13.509,1.351 -27.446,-2.572 -41.397,-1.047 -7.37,0.806 -14.535,4.626 -21.66,5.351 -9.644,0.983 -20.19,-3.831 -27.589,5.527 42.685,20.521 87.223,26.455 127.48,49.3 5.767,34.513 -41.071,12.854 -62.277,7.074 -26.268,-7.161 -48.3,-16.484 -64.968,-13.095 -0.35,10.063 16.708,15.225 17.493,24.967 -10.56,23.538 -31.963,8.575 -42.513,32.15 -10.699,-0.138 -23.185,6.185 -32.632,6.199 -7.419,0.01 -15.125,-4.914 -25.168,-7.113 -23.599,-5.165 -59.929,-1.638 -81.196,-7.028 -22.981,-5.826 -35.052,-17.105 -52.047,-7.019 -1.775,-0.994 -3.549,-1.988 -5.325,-2.983 8.888,-5.595 19.42,-5.348 29.083,-8.189 0.795,-1.107 -2.106,-4.701 1.102,-4.046 -0.22,1.557 0.171,2.94 1.171,4.154 0.967,-2.802 -1.314,-8.549 1.813,-9.479 0.1,3.21 -0.55,6.631 1.843,9.196 21.318,-4.805 47.895,-5.07 65.761,-13.287 -18.073,0.189 -38.065,2.406 -58.541,-14.155 28.437,15.536 61.903,14.136 83.4,-1.064 -5.337,-3.071 -11.74,-3.682 -13.7,-8.847 1.478,0.828 2.957,1.657 4.436,2.487 -1.045,-6.191 -9.188,-14.342 -6.843,-18.997 -0.98,21.186 32.324,21.716 50.648,36.556 3.521,2.852 4.986,8.622 8.552,11.79 12.459,11.079 38.325,27.914 43.629,11.63 1.475,-4.527 -5.874,-17.871 -9.398,-22.763 -6.85,-9.518 -17.31,-22.53 -25.97,-28.56 -15.51,-10.8 -35.67,-11.84 -39.22,-27.814 5.059,3.557 6.6,8.104 13.593,11.116 3.937,-3.393 -0.896,-8.159 2.702,-8.98 0.786,2.865 0.175,8.934 4.612,8.417 3.356,-4.005 6.206,-9.805 10.124,-11.819 -2.581,5.461 -8.058,11.736 -6.682,16.081 14.856,5.141 28.032,15.589 34.783,25.328 31.917,-10.33 73.244,4.919 112.58,17.624 10.837,3.501 33.131,11.804 36.853,0.833 2.115,-6.233 -8.018,-11.988 -14.763,-15.274 -34.38,-16.744 -79.11,-26.327 -115.55,-41.446 -1.908,-0.621 -8.7,3.843 -6.816,-0.324 10.694,-11.2 25.805,-10.954 39.771,-12.692 5.622,-0.7 11.034,-2.603 17.008,-3.294 26.229,-3.041 50.338,4.846 68.879,-2.207 6.501,-2.474 12.802,-8.383 8.456,-15.085 -33.85,-7.884 -68.86,-11.57 -103.92,-8.105 -18.22,1.801 -33.92,0.942 -50.98,-0.589 -32.88,-2.953 -66.64,12.387 -96.51,18.207 -16.4,3.195 -32.97,1.52 -50.21,2.181 -33.113,1.266 -69.593,3.773 -101.4,6.13 0.995,-1.775 1.99,-3.55 2.984,-5.324 z m 261.6,63.842 c 0.395,11.847 9.998,21.099 12.129,32.457 6.438,0.748 12.617,0.576 16.336,-8.335 -5.655,-8.494 -16.405,-22.274 -28.465,-24.122 z m -43.467,23.451 c -2.333,-0.235 0.908,10.869 4.329,4.76 -2.22,-1.369 -3.948,-2.875 -4.329,-4.76 z m 34.5,21.673 c -11.813,-7.808 -30.909,-17.961 -31.703,-3.777 -8.923,-9.287 -27.699,-17.935 -34.863,-4.381 7.407,-3.651 15.946,-0.771 21.513,7.394 -0.996,1.774 -1.99,3.55 -2.985,5.324 4.788,2.848 9.016,3.707 13.418,5.189 8.938,-5.838 28.133,3.156 34.62,-9.749 z m -64.013,-4.395 c 4.305,3.021 6.208,6.721 12.316,9.237 0.995,-1.775 1.99,-3.551 2.984,-5.325 -2.4,-4.755 -11.471,-9.038 -15.3,-3.912 z" />
      <path
         inkscape:connector-curvature="0"
         id="path17-6"
         style="fill-rule:evenodd"
         d="m 320.29,21.408 c -1.362,-2.508 -1.234,5.898 -0.82,7.705 3.498,-0.554 0.371,-5.536 0.82,-7.705 z" />
      <path
         inkscape:connector-curvature="0"
         id="path19-1"
         style="fill-rule:evenodd"
         d="m 239.77,96.394 c -2.115,0.449 -3.981,1.787 -5.646,3.832 -0.551,-3.857 6.066,-4.896 7.354,-11.038 -5.153,2.885 -9.686,10.019 -12.503,13.983 3.877,-1.264 7.735,-2.605 10.795,-6.777 z" />
      <path
         inkscape:connector-curvature="0"
         id="path21-4"
         style="fill-rule:evenodd"
         d="m 61.931,91.17 c 1.902,1.954 2.553,4.263 1.951,6.924 -16.353,-0.565 -31.533,3.027 -47.544,3.672 15.331,5.78 32.779,-3.897 50.486,1.477 -0.191,-3.683 -1.925,-6.93 -2.231,-10.58 1.717,-3.636 5.314,-0.588 7.032,-4.223 -20.932,-0.899 -40.87,1.712 -60.396,5.797 14.697,1.758 33.589,-4.559 50.702,-3.067 z" />
    </g>
  </g>
</svg>
