<svg xmlns="http://www.w3.org/2000/svg" xmlns:xlink="http://www.w3.org/1999/xlink" version="1.1" x="0px" y="0px" viewBox="0 0 67.183 109.73625" enable-background="new 0 0 67.183 87.789" xml:space="preserve"><path d="M61.164,10.847c-0.328-0.045-0.656-0.069-0.982-0.069c-1.096,0-2.146,0.26-3.086,0.724l0.279-1.945  c0.045-0.337,0.068-0.662,0.068-0.988c0-3.438-2.525-6.425-6.018-6.917c-0.332-0.047-0.662-0.07-0.984-0.07  c-3.438,0-6.424,2.526-6.918,6.021l-4.482,30.114L29.822,5.166C28.985,2.062,26.165,0,23.073,0c-0.601,0-1.213,0.079-1.819,0.243  c-3.121,0.839-5.181,3.659-5.181,6.752c0,0.211,0.022,0.426,0.042,0.64c-0.867-0.378-1.805-0.604-2.779-0.604  c-0.6,0-1.212,0.077-1.821,0.242c-3.119,0.84-5.181,3.658-5.181,6.751c0,0.599,0.077,1.209,0.242,1.818l4.196,17.213  c-0.822,0.145-1.689,0.414-2.623,0.839c-0.479,0.22-0.801,0.679-0.843,1.205c0,0-0.004,0.049-0.028,0.224  c-0.17,1.214-1.236,7.072-6.973,14.419c-0.224,0.286-0.332,0.647-0.301,1.011c0.008,0.062,0.745,9.06,3.72,18.182  c1.493,4.565,3.536,9.169,6.436,12.739c2.871,3.553,6.755,6.114,11.62,6.114h0.028c0.094-0.002,0.144-0.002,0.156-0.002h24.932  c8.867,0,16.055-7.187,16.055-16.055V51.534l4.17-32.804c0.043-0.315,0.064-0.642,0.063-0.963  C67.183,14.327,64.656,11.341,61.164,10.847z M64.246,18.348l-3.463,27.248l-0.729,5.746v0.957l-0.002,19.434  c-0.014,7.267-5.891,13.146-13.156,13.157l-24.89,0.002c-0.08-0.004-0.162,0-0.198,0c-3.824-0.012-6.827-1.91-9.4-5.045  c-3.836-4.688-6.293-12.067-7.695-18.238c-0.707-3.086-1.162-5.87-1.441-7.878C3.103,52.522,3,51.605,2.945,51.065  c5.286-6.933,6.743-12.677,7.124-14.83c0.533-0.197,0.991-0.307,1.391-0.363c0.214-0.031,0.417-0.051,0.595-0.05  c0.339,0,0.617,0.048,0.856,0.124c0.525,0.172,0.913,0.483,1.278,0.987c1.014,1.35,1.278,4.154,1.248,5.395  c0,0.148-0.001,0.271-0.004,0.369c-0.242,0.501-0.462,0.979-0.673,1.442c-0.3,0.662-0.564,1.286-0.809,1.888  c-1.477,3.636-1.99,6.202-1.995,8.094c-0.072,3.221,1.761,4.521,2.204,4.618l0.13,0.047l3.249,0.962  c0.034,0.011,0.07,0.01,0.104,0.017c0.027,0.006,0.055,0.009,0.082,0.013c0.069,0.018,0.141,0.019,0.213,0.026  c0.08,0.009,0.156,0.034,0.238,0.028c0.434,0.009,2.593,0.086,4.954,0.832c2.587,0.818,5.286,2.36,6.625,5.275  c0.245,0.528,0.768,0.84,1.316,0.84c0.203,0,0.41-0.042,0.606-0.133c0.727-0.335,1.043-1.195,0.709-1.922  c-1.832-3.953-5.393-5.885-8.386-6.824c-1.972-0.618-3.74-0.837-4.824-0.916l-0.893-4.976l-0.385-2.144l-0.685-3.815  c-0.012-0.065-0.028-0.131-0.048-0.193c0.075-0.171,0.152-0.343,0.232-0.519c0.242-0.531,0.493-1.071,0.772-1.64  c0.084-0.173,0.132-0.352,0.144-0.543c0.002-0.026,0.021-0.333,0.021-0.827c-0.028-1.489-0.102-4.626-1.785-7.074  c-0.629-0.892-1.552-1.686-2.758-2.067c-0.002-0.001-0.004-0.001-0.007-0.002L9.384,15.122c-0.108-0.392-0.151-0.746-0.151-1.096  c0-1.803,1.207-3.465,3.038-3.952c0.357-0.098,0.712-0.143,1.065-0.143c1.803,0,3.463,1.207,3.953,3.037L23.63,35.4l2.66,9.667  c0.178,0.643,0.761,1.064,1.397,1.064c0.127,0,0.255-0.017,0.383-0.052c0.771-0.212,1.226-1.012,1.014-1.781L28.672,42.8  c0-0.131-0.01-0.263-0.047-0.395h-0.002l-2.19-7.747L19.109,8.048c-0.094-0.35-0.139-0.704-0.139-1.053  c0-1.805,1.208-3.467,3.037-3.954c0.358-0.097,0.711-0.144,1.065-0.144c1.804,0.002,3.468,1.208,3.955,3.038l10.707,37.8  c0.207,0.726,0.932,1.158,1.658,1.022c0.021,0.005,0.041,0.014,0.063,0.016c0.072,0.011,0.145,0.017,0.215,0.017  c0.707,0,1.326-0.517,1.436-1.235l-0.002-0.002L46.392,8.02c0.287-2.062,2.045-3.54,4.049-3.54c0.191,0,0.383,0.012,0.576,0.041  c2.049,0.285,3.527,2.043,3.527,4.049c0,0.185-0.012,0.382-0.041,0.589l-0.906,6.286c-0.152,0.433-0.268,0.886-0.332,1.358  l-2.713,19.761l-0.543,3.762c-0.014,0.093-0.016,0.186-0.012,0.276l-0.4,2.917c-0.109,0.794,0.445,1.524,1.238,1.633  c0.791,0.108,1.523-0.446,1.633-1.238l0.93-6.778l3.016-20.921c0.623-1.513,2.104-2.54,3.768-2.54c0.188,0,0.379,0.014,0.574,0.042  c2.049,0.284,3.531,2.044,3.531,4.051C64.287,17.961,64.273,18.154,64.246,18.348z M15.225,51.374l0.885,4.927l-0.777-0.229  c-0.12-0.121-0.456-0.544-0.476-1.952C14.854,53.439,14.952,52.536,15.225,51.374z"/></svg>