<svg height="512pt" viewBox="-30 0 512 512.00105" width="512pt" xmlns="http://www.w3.org/2000/svg"><path d="m417.027344 225.851562c-4.351563 0-7.878906-3.523437-7.878906-7.875v-18.875c0-101.097656-82.25-183.347656-183.347657-183.347656-101.101562 0-183.351562 82.25-183.351562 183.347656v18.875c0 4.351563-3.523438 7.875-7.875 7.875-4.351563 0-7.878907-3.523437-7.878907-7.875v-18.875c0-109.785156 89.320313-199.101562 199.105469-199.101562 109.785157 0 199.101563 89.316406 199.101563 199.101562v18.875c0 4.351563-3.523438 7.875-7.875 7.875zm0 0" fill="#20a5d3"/><path d="m408.59375 387.59375h-19.988281c-4.351563 0-7.878907-3.527344-7.878907-7.878906 0-4.347656 3.527344-7.875 7.878907-7.875h19.988281c5.066406 0 9.1875-4.121094 9.1875-9.1875v-41.75c0-4.351563 3.527344-7.878906 7.878906-7.878906 4.351563 0 7.875 3.527343 7.875 7.878906v41.75c0 13.75-11.1875 24.941406-24.941406 24.941406zm0 0" fill="#20a5d3"/><path d="m170.941406 392.445312h108.089844v92.742188h-108.089844zm0 0" fill="#ccc"/><path d="m387.335938 358.253906c1.503906-6.050781 2.300781-12.382812 2.300781-18.894531v-133.375c0-43.207031-35.035157-78.234375-78.246094-78.234375h-171.179687c-43.207032 0-78.246094 35.027344-78.246094 78.234375v133.375c0 43.21875 35.039062 78.242187 78.246094 78.242187h171.179687c19.746094 0 37.789063-7.320312 51.558594-19.386718" fill="#e6e6e6"/><path d="m122.914062 369.597656v46.082032c-34.890624-7.875-60.949218-39.046876-60.949218-76.320313v-46.085937c34.890625 7.867187 60.949218 39.046874 60.949218 76.324218zm0 0" fill="#ccc"/><path d="m389.636719 293.273438v46.085937c0 6.511719-.796875 12.84375-2.300781 18.894531l-24.386719 39.960938c-9.621094 8.433594-21.339844 14.554687-34.257813 17.464844v-46.085938c0-37.273438 26.054688-68.445312 60.945313-76.320312zm0 0" fill="#ccc"/><path d="m203.355469 245.898438c0 27.839843-22.570313 50.410156-50.410157 50.410156-27.84375 0-50.410156-22.570313-50.410156-50.410156 0-27.84375 22.566406-50.414063 50.410156-50.414063 27.839844 0 50.410157 22.570313 50.410157 50.414063zm0 0" fill="#fff"/><path d="m349.066406 245.898438c0 27.839843-22.570312 50.410156-50.410156 50.410156s-50.410156-22.570313-50.410156-50.410156c0-27.84375 22.570312-50.414063 50.410156-50.414063s50.410156 22.570313 50.410156 50.414063zm0 0" fill="#fff"/><path d="m152.945312 264.796875c-10.425781 0-18.902343-8.480469-18.902343-18.902344s8.476562-18.902343 18.902343-18.902343c10.421876 0 18.902344 8.480468 18.902344 18.902343s-8.480468 18.902344-18.902344 18.902344zm0 0" fill="#42444c"/><path d="m298.65625 264.796875c-10.421875 0-18.902344-8.480469-18.902344-18.902344s8.480469-18.902343 18.902344-18.902343 18.902344 8.480468 18.902344 18.902343-8.480469 18.902344-18.902344 18.902344zm0 0" fill="#42444c"/><g fill="#ff4a4a"><path d="m195.996094 335.6875h21.925781v81.917969h-21.925781zm0 0"/><path d="m233.675781 335.6875h21.929688v81.917969h-21.929688zm0 0"/><path d="m271.359375 336.738281v80.867188h22.179687v-51.859375c0-13.871094-9.402343-25.542969-22.179687-29.007813zm0 0"/><path d="m180.242188 336.738281c-12.777344 3.460938-22.179688 15.136719-22.179688 29.007813v51.859375h22.179688zm0 0"/></g><path d="m61.964844 233.414062v77.300782c0 11.886718-7.992188 21.90625-18.902344 24.964844-2.238281.640624-4.601562.976562-7.039062.976562h-10.082032c-14.324218 0-25.941406-11.617188-25.941406-25.941406v-77.300782c0-14.324218 11.617188-25.941406 25.941406-25.941406h10.082032c2.4375 0 4.800781.335938 7.039062.976563 10.910156 3.054687 18.902344 13.074219 18.902344 24.964843zm0 0" fill="#e53333"/><path d="m61.964844 233.414062v77.300782c0 11.886718-7.992188 21.90625-18.902344 24.964844-10.914062-3.058594-18.90625-13.078126-18.90625-24.964844v-77.300782c0-11.890624 7.992188-21.910156 18.90625-24.964843 10.910156 3.054687 18.902344 13.074219 18.902344 24.964843zm0 0" fill="#ff4a4a"/><path d="m451.597656 233.414062v77.300782c0 11.886718-7.992187 21.90625-18.90625 24.964844-2.234375.640624-4.597656.976562-7.035156.976562h-10.082031c-14.324219 0-25.941407-11.617188-25.941407-25.941406v-77.300782c0-14.324218 11.617188-25.941406 25.941407-25.941406h10.082031c2.4375 0 4.800781.335938 7.035156.976563 10.914063 3.054687 18.90625 13.074219 18.90625 24.964843zm0 0" fill="#e53333"/><path d="m451.597656 233.414062v77.300782c0 11.886718-7.992187 21.90625-18.90625 24.964844-10.910156-3.058594-18.902344-13.078126-18.902344-24.964844v-77.300782c0-11.890624 7.992188-21.910156 18.902344-24.964843 10.914063 3.054687 18.90625 13.074219 18.90625 24.964843zm0 0" fill="#ff4a4a"/><path d="m374.953125 357.660156h7.351563c12.179687 0 22.054687 9.875 22.054687 22.054688 0 12.183594-9.875 22.058594-22.054687 22.058594h-7.351563c-12.183594 0-22.054687-9.875-22.054687-22.058594 0-12.179688 9.871093-22.054688 22.054687-22.054688zm0 0" fill="#42444c"/><path d="m382.527344 510.394531v1.605469h-315.089844v-1.605469c0-27.8125 22.558594-50.371093 50.371094-50.371093h214.347656c27.820312 0 50.371094 22.558593 50.371094 50.371093zm0 0" fill="#ccc"/><path d="m382.527344 510.394531v1.605469h-256.800782v-1.605469c0-27.8125 22.550782-50.371093 50.371094-50.371093h156.058594c27.820312 0 50.371094 22.558593 50.371094 50.371093zm0 0" fill="#e6e6e6"/></svg>