<svg id="Layer_1" data-name="Layer 1" xmlns="http://www.w3.org/2000/svg" xmlns:xlink="http://www.w3.org/1999/xlink" viewBox="0 0 171.35 170.37">
  <defs>
    <style>
      .cls-1 {
        fill: none;
      }

      .cls-2 {
        fill: #87de87;
      }

      .cls-3 {
        clip-path: url(#clip-path);
      }

      .cls-4 {
        fill: #fff;
        stroke: #000;
        stroke-linecap: round;
        stroke-linejoin: round;
        stroke-width: 3.53px;
      }
    </style>
    <clipPath id="clip-path" transform="translate(1 0)">
      <path class="cls-1" d="M170.35,85.18A85.17,85.17,0,0,1,0,85.21v0a85.17,85.17,0,0,1,170.35,0v0Z"/>
    </clipPath>
  </defs>
  <title>lizard</title>
  <g id="g3457">
    <path id="path3414" class="cls-2" d="M170.35,85.18A85.17,85.17,0,1,1,85.17,0,85.17,85.17,0,0,1,170.35,85.18Z" transform="translate(1 0)"/>
    <g class="cls-3">
      <g id="g3384">
        <path id="path3382" class="cls-4" d="M89.56,58.06c-1.28.21-7.72,1.29-10.79,2.17C75,61.3,70.16,63.29,66.43,64.5c-3.09,1-7.44,1-9.61,3.45-2.43,2.71-1.8,11.52-1.92,12l16.49,7.54c-0.17-1.5,8.87-10.61,9.93-11.92,0,0,7.28-.51,8.7-1.11S100.82,71,100.82,71l0-.14c-0.09-.26,8.05,1.36,9,1.32s7.54,0,7.54,0c3.78,2.41,7.34,2.32,9.07,2.63,9.1,1.61,9-4.08,8.46-5.37-0.31-.73-10-5.15-14.4-7.22a23.13,23.13,0,0,0-3.29-1.52c-0.91-.27-2.54-0.43-3.48-0.58-1.53-.25-5-1.39-6.49-1.65-2-.34-4.64-0.57-6.65-0.79-1.37-.15-3.82-1.21-5.19-1.13C94.27,56.69,92,57.68,89.56,58.06Z" transform="translate(1 0)"/>
        <path id="path3380" class="cls-4" d="M88.09,49.58c-1.51.24-9.11,1.53-12.74,2.56-4.45,1.27-10.16,3.61-14.55,5C57.15,58.37,52,58.4,49.46,61.26c-2.87,3.2-2.12,13.6-2.26,14.17l19.45,8.9c-0.2-1.77,10.91-11,12.17-12.52,0,0,8.14-2.16,9.82-2.87s12.73-4,12.73-4l-0.06-.17c-0.1-.3,9.5,1.6,10.61,1.55s8.89,0,8.89,0c4.46,2.85,8.67,2.74,10.71,3.11,10.74,1.9,10.63-4.82,10-6.34-0.37-.87-11.84-6.08-17-8.53a27.29,27.29,0,0,0-3.89-1.8c-1.07-.31-3-0.5-4.1-0.69-1.8-.3-5.86-1.64-7.66-1.95-2.35-.4-5.48-0.67-7.85-0.93-1.62-.18-4.51-1.43-6.13-1.33C93.65,48,90.93,49.13,88.09,49.58Z" transform="translate(1 0)"/>
        <path id="path3378" class="cls-4" d="M93.69,44.32c-1.51.24-9.11,1.53-12.74,2.56a118.08,118.08,0,0,0-14.55,5c-5.75,2.59-18.91,4.1-19,7.93a223.38,223.38,0,0,1-2.26,24.33L69.45,71.36c-0.2-1.77,9.86-3.61,11.12-5.16,0,0,12-1.81,13.67-2.52s12.73-4,12.73-4l-0.06-.17c-0.1-.3,9.5,1.6,10.61,1.55s8.89,0,8.89,0c4.46,2.85,8.67,2.74,10.71,3.11,10.74,1.9,10.63-4.82,10-6.34-0.37-.87-11.84-6.08-17-8.53a27.29,27.29,0,0,0-3.89-1.8c-1.07-.31-3-0.5-4.1-0.69-1.8-.3-5.86-1.64-7.66-1.95-2.35-.4-5.48-0.67-7.85-0.93-1.62-.18-4.51-1.43-6.13-1.33C99.25,42.7,96.54,43.87,93.69,44.32Z" transform="translate(1 0)"/>
        <path id="path3373" class="cls-4" d="M88.88,46.72c-1.51.24-9.11,1.53-12.74,2.56-4.45,1.27-10.16,3.61-14.55,5C58,55.51,52.82,55.54,50.26,58.4,47.39,61.6,48.13,72,48,72.56s-10.6,34.58-10.6,34.58l-29,31.73,27.17,23.52S55.9,141.12,59.2,139.13c5.06-3,11.15-1.79,17.91-6.88C84,127,93,119.78,94.86,118.8S106.92,110,106.92,110s10.08-6.85,11.9-7.41,8.81-6.2,8.81-6.2,2.25-7.52,3.21-9.68c2.14-4.86,7.77-9.93,4.24-13.89-2.42-2.71-10.66-.93-12.07.32-1.09,1-7.06,7.64-8.5,11.9a3.44,3.44,0,0,1-1.12,1.66S105.46,91.5,101.62,92c-3.42.48-7,1.61-10.12,0.11-5.36-2.59-16.76-12-17-14.54-0.2-1.77,2.15-6.77,3.41-8.31,0,0,9.89-2.52,11.57-3.22s12.73-4,12.73-4l-0.06-.17c-0.1-.3,9.5,1.6,10.61,1.55s8.89,0,8.89,0c4.46,2.85,8.67,2.74,10.71,3.11,10.74,1.9,10.63-4.82,10-6.34-0.37-.87-11.84-6.08-17-8.53a27.29,27.29,0,0,0-3.89-1.8c-1.07-.31-3-0.5-4.1-0.69-1.8-.3-5.86-1.64-7.66-1.95-2.35-.4-5.48-0.67-7.85-0.93-1.62-.18-4.51-1.43-6.13-1.33C94.44,45.1,91.73,46.26,88.88,46.72Z" transform="translate(1 0)"/>
      </g>
      <path class="cls-1" d="M169.35,85.18A85.17,85.17,0,0,1-1,85.21v0a85.17,85.17,0,0,1,170.35,0v0Z" transform="translate(1 0)"/>
    </g>
  </g>
</svg>
