<svg id="Layer_1" data-name="Layer 1" xmlns="http://www.w3.org/2000/svg" xmlns:xlink="http://www.w3.org/1999/xlink" viewBox="0 0 187.85 184.04">
  <defs>
    <style>
      .cls-1 {
        fill: none;
      }

      .cls-2 {
        fill: #fd5;
      }

      .cls-3 {
        clip-path: url(#clip-path);
      }

      .cls-4, .cls-5 {
        fill: #fff;
        stroke: #000;
        stroke-linecap: round;
        stroke-linejoin: round;
        stroke-width: 3.53px;
      }

      .cls-5 {
        fill-opacity: 0.17;
      }
    </style>
    <clipPath id="clip-path" transform="translate(17.5)">
      <circle class="cls-1" cx="85.17" cy="85.17" r="85.17"/>
    </clipPath>
  </defs>
  <title>paper</title>
  <g id="g3479">
    <path id="use3422" class="cls-2" d="M170.35,85.17A85.17,85.17,0,1,1,85.17,0,85.17,85.17,0,0,1,170.35,85.17Z" transform="translate(17.5)"/>
    <g class="cls-3">
      <g id="g3260">
        <path id="path3240" class="cls-4" d="M-15.74,134.18c-0.21,0,23.75-11,34.24-16.73,1-.57.38-5.69,1.35-7.89,1.17-2.67,9.27-26.88,10-29,0.2-.58,5.48-5.88,9.95-11.67s7.33-11,9.67-12,4.52-1,8.42-2.06A42.25,42.25,0,0,0,65,51.85c2.1-.92,5.06-2,7.12-1.15,1.9,0.74,1.16,2.36,1.54,4.23,2-2.13,5-4.16,7.54-6.31s4.38-4.37,6.51-6.19,4.84-3.56,7.16-5.53c2.09-1.78,3.62-3.69,5.54-5,3.51-2.48,9.29-6.7,13.46-7.69,3.11-.74,5.73.31,7.31,4,0.5,1.19-.52,3.58-1.15,4.81,5.62-3.79,6.19-5.83,9-6.73,5.43-1.71,8,1.08,8.46,5.39,0.36,3.42-3.2,6.92-6.16,9.81,4.87-3.45,8.6,1.75,8.85,5.77,0.11,1.82-1.19,3.26-2.45,5-1.65,2.32-3.23,5.05-4.47,7.08-2.68,4.41-1.81,2.35-11.54,15.39,8.74-7.3,8.43-10.2,12.12-10.39,2.61-.13,3.3,1.73,4,4.23,1,3.22-2.62,8.71-4.42,11.54-3.34,5.23-8.93,11.38-12.89,16.16-3.16,3.81-7.74,8.59-10.77,12.5s-5.7,9.95-9.23,13.27c-13,12.22-33,29.83-43.09,33.47C42.1,161.09,5,181.69,5.23,182.26,5.6,183.15-15.74,134-15.74,134.18Z" transform="translate(17.5)"/>
        <path id="path3242" class="cls-5" d="M120.44,32.62L99.11,51.87c-6.3,6.26-12.84,14-18.67,17.49" transform="translate(17.5)"/>
        <path id="path3244" class="cls-5" d="M131.6,41.47c-6.63,7.45-12.21,14.38-20.7,22.76-5.17,6.9-13.77,11.2-16.23,16.48" transform="translate(17.5)"/>
        <path id="path3246" class="cls-5" d="M122.37,74.16c-9.47,12.46-13.08,10.29-21.93,26" transform="translate(17.5)"/>
        <path id="path3248" class="cls-5" d="M33.12,84.55C46.43,72.25,60,66.93,73.7,54.74h0" transform="translate(17.5)"/>
      </g>
    </g>
  </g>
</svg>
