<svg id="Layer_1" data-name="Layer 1" xmlns="http://www.w3.org/2000/svg" xmlns:xlink="http://www.w3.org/1999/xlink" viewBox="0 0 170.35 170.35">
  <defs>
    <style>
      .cls-1 {
        fill: none;
      }

      .cls-2 {
        fill: #ff8080;
      }

      .cls-3 {
        clip-path: url(#clip-path);
      }

      .cls-4, .cls-5 {
        fill: #fff;
        stroke: #000;
        stroke-linecap: round;
        stroke-linejoin: round;
        stroke-width: 3.53px;
      }

      .cls-5 {
        fill-opacity: 0.1;
      }
    </style>
    <clipPath id="clip-path">
      <circle class="cls-1" cx="85.17" cy="85.17" r="85.17"/>
    </clipPath>
  </defs>
  <title>rock</title>
  <g id="g3488">
    <path id="use3420" class="cls-2" d="M170.35,85.17A85.17,85.17,0,1,1,85.17,0,85.17,85.17,0,0,1,170.35,85.17Z"/>
    <g class="cls-3">
      <g id="g3267">
        <path id="path2432" class="cls-4" d="M-4.06,113.78S19,103.9,26.22,101.2c3.38-1.27,8.39-1.68,11.54-3.46C41.42,95.67,46,92,48.15,88.32,49.07,86.72,52,72.65,53.72,66.2A72,72,0,0,1,59.3,54.27c3-4.72,9.15-10.7,12.5-15.2,1.1-1.48,2-3.89,3.27-5.19a31.53,31.53,0,0,1,10.39-6.54,7.19,7.19,0,0,1,5.19-.19c0.61,0.25,1.46,1.25,2.12,1.15,4.57-.65,13.64-1.35,18.66,1.15,2.31,1.15,4.51,4.19,5.58,6.54,0.94,2.06-.41,4.68-0.7,6.16,2,1,9.58,10.83,10.89,14.62,0.51,1.47-.07,2.43.38,3.93a36,36,0,0,1,4,6.85,49.15,49.15,0,0,1,2.12,8.85c0.69,3.66,2.64,8.69,1.73,12.31-0.71,2.84-4.32,4.38-5.39,7.12a11.89,11.89,0,0,1-1,2.5c-5.48,5.68-13.9,10.13-22.7,18.47-4.27,4-8.42,8.71-13.46,11.73-2.35,1.41-6.93,3.48-9.43,4.62-4.45,2-8.51,5.62-13.46,7.69-3,1.27-11.38,4.24-15.77,6.35-8.32,4-19.75,11.93-25.2,14.23Z"/>
        <path id="path3224" class="cls-5" d="M116.54,42.31a49.46,49.46,0,0,0-5.27-2.06"/>
        <path id="path3226" class="cls-5" d="M97,37.66c1.36,0.51,7.37-1.52,10.84-.38s4.78,6.27,6.79,7.56"/>
        <path id="path3228" class="cls-5" d="M111.5,50.1c2,1.38,6.86.92,9.08,2.44s3,5.77,4.88,8.17h0"/>
        <path id="path3230" class="cls-5" d="M127.84,61a26.64,26.64,0,0,0-4.2-4"/>
        <path id="path3232" class="cls-5" d="M130.81,69.56c-0.29.58,2,3.42,2.52,5s-0.16,4.49,0,5.27h0"/>
      </g>
    </g>
  </g>
</svg>
