<svg id="Layer_1" data-name="Layer 1" xmlns="http://www.w3.org/2000/svg" xmlns:xlink="http://www.w3.org/1999/xlink" viewBox="0 0 186.49 179.41">
  <defs>
    <style>
      .cls-1 {
        fill: none;
      }

      .cls-2 {
        fill: #e580ff;
      }

      .cls-3 {
        clip-path: url(#clip-path);
      }

      .cls-4, .cls-5 {
        fill: #fff;
        stroke: #000;
        stroke-linecap: round;
        stroke-linejoin: round;
        stroke-width: 3.53px;
      }

      .cls-5 {
        fill-opacity: 0.06;
      }
    </style>
    <clipPath id="clip-path" transform="translate(16.14)">
      <circle class="cls-1" cx="85.17" cy="85.17" r="85.17"/>
    </clipPath>
  </defs>
  <title>scissors</title>
  <g id="g3472">
    <path id="use3424" class="cls-2" d="M170.35,85.17A85.17,85.17,0,1,1,85.17,0,85.17,85.17,0,0,1,170.35,85.17Z" transform="translate(16.14)"/>
    <g class="cls-3">
      <g id="g3281">
        <path id="path3275" class="cls-4" d="M-14.37,133.6c0.15-.34,30.77-14.2,38.08-18.47C25,114.41,43.6,87.06,56,74.36c1.75-1.79,2.36-4.83,4.13-7.51,1.44-2.18,4.1-4,5.1-5.76,3.52-6.25,6.91-15.27,10.39-21.54,2.25-4.06,5.7-9.22,8.27-13.08C86.14,23.12,90,16.91,92.76,14c3-3.21,9-3.78,10,2.5,0.57,3.65-4.34,11-6.35,15.58-1.8,4.09-4.37,9.48-6,13.66-1.07,2.79-1.85,6.1-3.05,9.43-1.09,3-2.66,6.12-2.53,8.84,0.08,1.7.58,3.95,1.92,5,1.58,1.24,11.79-8.56,19-11.73,3.54-1.55,7-4.13,13.66-7.12,2.67-1.2,5.83-3.51,8.46-4.81s8.93-3.63,11.73-4c3.71-.54,7.52,4.16,6,8.27-0.56,1.47-9,6.3-12.89,9-5.22,3.71-12.66,8.1-17.31,12.5-5.88,5.57-18.43,9.61-20,12.69-0.25.48,0.47,1.3,1,1.54,0.89,0.43,2.31-.61,3.27-0.38a15.09,15.09,0,0,1,7.12,4.62c4.7,5.67-1.25,10.38-2.31,13.27-0.38,1,2.76,2.8,3.08,6.16a10,10,0,0,1-3.27,8.27c-2.67,2.2-7.78,3.11-10,5.77-0.55.66-.3,2.15-1,2.69-7.76,6.38-14,12.13-20,16.54s-17,11.06-20.2,10.58c-1.81-.27-12.57,7-23.66,11.93-6.74,3-21,12.89-21,12.89Z" transform="translate(16.14)"/>
        <path id="path3277" class="cls-5" d="M104.69,103.59c-1.93-2.78-5.75-3.89-6-5.39" transform="translate(16.14)"/>
        <path id="path3279" class="cls-5" d="M96.61,120.71l2.69-2.31,3.46-1" transform="translate(16.14)"/>
      </g>
    </g>
  </g>
</svg>
