<svg id="Layer_1" data-name="Layer 1" xmlns="http://www.w3.org/2000/svg" xmlns:xlink="http://www.w3.org/1999/xlink" viewBox="0 0 170.35 187.24">
  <defs>
    <style>
      .cls-1 {
        fill: none;
      }

      .cls-2 {
        fill: #80b3ff;
      }

      .cls-3 {
        clip-path: url(#clip-path);
      }

      .cls-4, .cls-5 {
        fill: #fff;
        stroke: #000;
        stroke-linecap: round;
        stroke-linejoin: round;
        stroke-width: 3.22px;
      }

      .cls-5 {
        fill-opacity: 0.13;
      }
    </style>
    <clipPath id="clip-path" transform="translate(0 0)">
      <circle class="cls-1" cx="85.17" cy="85.17" r="85.17"/>
    </clipPath>
  </defs>
  <title>spock</title>
  <g id="g3465">
    <path id="use3418" class="cls-2" d="M170.35,85.17A85.17,85.17,0,1,1,85.17,0,85.17,85.17,0,0,1,170.35,85.17Z" transform="translate(0 0)"/>
    <g class="cls-3">
      <g id="g3409">
        <path id="path3403" class="cls-4" d="M69.25,185.42c-0.63-3.16.24-39.18-.63-44.26-4-4.12-13-7.46-18.76-13.7-5.08-5.5-7.12-13.13-11.8-19-2.43-3-7.33-8.89-10.33-11.38-2.54-2.11-9.21-5.34-9.27-8.64-0.06-3.15,4.26-4.41,7.38-4.85C31.25,82.86,41.92,88.45,44,91c0.56,0.7,8.37,7.56,11.38,11.8,3.14-.66.83-12,1.05-15.17a77.12,77.12,0,0,0,.21-10.54c-0.21-.84-1.26-6.74-1.48-9.06s-1.9-9.06-1.9-10.12-1.05-8.85-1.05-10.33a77.53,77.53,0,0,0-.42-8.64,74.47,74.47,0,0,1-.42-15c0.42-3.72,4.92-7.32,8.85-4.43,1.62,1.19,2.29,4.16,3.16,5.9-0.45-2.06-1.65-8.15-1.05-11.59,1.17-6.78,8.41-6.47,10.33-3s3.12,11.83,4.64,16.65c1.82,5.78,2.85,13.89,4,20.23,2.34,4.74,3.37,12.1,5.9,16.44,0.72,1.23,2.17,2.62,3.58,2.53s1.48,0,3.79-4.64a47.87,47.87,0,0,1,3.16-5.9c1.69-2.74,2.53-5.69,3.79-7.59a69.42,69.42,0,0,0,4-9.27c0.9-2.63,2-5.34,2.74-8,1.15-4,2.55-8.79,4-12.65,2-5.37,7.72-5.49,10.33-.21,1.92,3.9-.68,9.84-1.48,15,2.63-3.66,7.57-.32,8.22,2.32,0.8,3.25.27,7.85-.21,11.17-0.27,1.88-1.28,4.25-1.69,6.11-0.51,2.32-1.06,4.88-1.69,7.17s-1.67,5.44-2.32,7.59c-0.88,2.91-1.39,7-2.11,9.91-0.45,1.85-1.42,4.23-1.69,6.11-0.63,4.44-.14,10.47-0.21,15-0.06,3.6-.06,8.41-0.21,12-0.28,6.65-.37,15.57-1.48,22.13-0.56,3.3-2.53,7.43-3,10.75-1.59,12.48,2.11,42.15.63,41.94s-46.58.21-46.16-.21h0Z" transform="translate(0 0)"/>
        <path id="path3405" class="cls-5" d="M63.35,25C65.08,34.6,68.25,48.21,72,70.56h0" transform="translate(0 0)"/>
        <path id="path3407" class="cls-5" d="M121.09,33c-8.81,24.8-5.17,10.7-15.39,42.15" transform="translate(0 0)"/>
      </g>
    </g>
  </g>
</svg>
