<svg xmlns="http://www.w3.org/2000/svg" viewBox="0 0 244.29 212.64"><defs><style>.cls-1{fill:#fecf01;}</style></defs><title>lizard</title><g id="Layer_2" data-name="Layer 2"><g id="lizard_Image" data-name="lizard Image"><path class="cls-1" d="M156.55,0h5c.12.37.45.26.7.3,1.94.27,3.88.5,5.82.79C176.87,2.44,185.6,4,194.27,5.78c4.41.93,8.89,1.63,13.09,3.37,12,4.95,23.56,10.81,35.23,16.46a1.5,1.5,0,0,1,.85,1.07,22.63,22.63,0,0,1,.78,7.72c-.38,4.22-2.66,6.72-6.54,7.22-4.44.58-5.15,1.24-5.75,5.68a4.81,4.81,0,0,1-3.7,4.23,19.32,19.32,0,0,1-4.48.73A1.64,1.64,0,0,0,222,54.09a5.31,5.31,0,0,0,.27,1.89,35.94,35.94,0,0,0,2.83,5.94,2.75,2.75,0,0,1-.29,3.4,44.13,44.13,0,0,0-5.87,10.27c-3.08,7-5.7,14.23-8.34,21.43a11.06,11.06,0,0,1-3.91,5.14c-4.18,3.16-8.57,6-13,8.85-23.35,15.17-46.34,30.87-68.38,47.9-2.68,2.07-5.2,4.36-8.24,6-4.06,2.14-8.12,4.29-12.27,6.24-4.51,2.13-9.07,4.08-14.14,4.65a16.67,16.67,0,0,0-11.28,6.4c-1.27,1.54-2.55,3.08-3.93,4.52-8.2,8.59-16.88,16.7-25.49,24.87-.34.31-.82.53-.86,1.09h-.72c0-.6-.59-.58-.94-.77-2.16-1.12-4.28-2.32-6.34-3.62A131.41,131.41,0,0,1,.38,167.48a1.31,1.31,0,0,1,.17-2q20.82-22.06,41.58-44.17a5.13,5.13,0,0,0,1.28-2C48,104.66,52.55,90,56.59,75.16a56.49,56.49,0,0,0,2.31-16.3,108.62,108.62,0,0,1,1-17.83,33.68,33.68,0,0,1,3-10.81,8,8,0,0,1,5-4.38c1.6-.47,3.16-1.09,4.76-1.6,15.38-4.93,30.88-9.5,46.4-14,10.07-2.91,20.16-5.8,30.32-8.41Zm-6.26,91.59a53,53,0,0,0,11.84-1.21,45,45,0,0,0,18.83-9,7.12,7.12,0,0,0,2.19-2.47,62.67,62.67,0,0,1,5.58-9.36,36.46,36.46,0,0,1,8-8.88c.53-.4.41-.6-.12-.77-1.84-.6-3.61-1.28-4.82-2.93-.22-.29-.57-.24-.89-.26-2-.1-4-.17-6-.31a118.53,118.53,0,0,1-15.95-1.7,23.36,23.36,0,0,0-10.09.1c-4.51,1-8.95,2.38-13.45,3.45-4.89,1.17-9.75,2.49-14.83,2.65a9.78,9.78,0,0,0-6.76,2.95c-2,2-4,4-6,5.9-.53.51-.52.83,0,1.36,5.74,6,11.75,11.66,18.75,16.16C141,90,145.54,92.17,150.29,91.59Z"/></g></g></svg>