<svg xmlns="http://www.w3.org/2000/svg" viewBox="0 0 244.25 252.24"><defs><style>.cls-1{fill:#fecf00;}</style></defs><title>paper</title><g id="Layer_2" data-name="Layer 2"><g id="paper_Image" data-name="paper Image"><path class="cls-1" d="M244.25,41.21v2.88c-.77,1.29-1,2.8-1.85,4.1-5.45,8.69-10.6,17.56-15.81,26.4-.19.33-.5.62-.49,1.06.34.2.62,0,.91-.1a27.11,27.11,0,0,1,4.77-1.13,6,6,0,0,1,6.3,2.51,13.83,13.83,0,0,1,2.47,11.46c-.56,2.78-2.3,5-3.88,7.22-9.44,13.49-19.76,26.31-29.91,39.25-5.55,7.07-11.37,13.92-16.72,21.15-3.76,5.07-7.18,10.38-10.86,15.49a123,123,0,0,1-16.75,18.57,468.94,468.94,0,0,1-50.73,40.44c-9.75,6.71-19.79,12.9-31,16.91A62.27,62.27,0,0,0,70.42,252a2,2,0,0,1-2.22-.19,166.16,166.16,0,0,1-67.9-69c-.55-1-.34-1.41.63-1.86,4.87-2.29,9.69-4.71,14.59-6.93a8.15,8.15,0,0,0,4.65-5.71c1.8-6.87,3.49-13.75,5.72-20.51,3.62-10.94,6.42-22.14,10-33.11,1.16-3.59,2.13-7.23,4.58-10.31C50.71,91.44,61.19,78.7,71.5,65.83A21.14,21.14,0,0,1,82,58.93c1.83-.59,3.74-.81,5.55-1.46,6.61-2.38,13-5.19,19.53-7.88a19.94,19.94,0,0,1,8.93-1.87c3.77.23,6,2.2,6.5,5.93,0,.21,0,.49.35.59L127.69,50c13.92-12.35,28.05-24.46,43-35.55,5.61-4.15,11.29-8.24,17.64-11.25A29.19,29.19,0,0,1,201.75,0c2.62.07,4.88,1,5.82,3.62a27.53,27.53,0,0,1,2.1,8.44c0,.29-.16.7.24.84s.48-.23.7-.39c3-2.21,6.08-4.39,9.06-6.68a6.52,6.52,0,0,1,3.82-1.45,31.62,31.62,0,0,1,7.4.32c5.75,1.07,8.56,5.06,7.63,10.82-.81,5-3.3,9.11-6.26,13-1.29,1.72-1.31,1.75.86,2.07,5.43.8,8.85,3.91,10.56,9C243.86,40.18,243.8,40.79,244.25,41.21Z"/></g></g></svg>