<svg xmlns="http://www.w3.org/2000/svg" viewBox="0 0 244.51 240.87"><defs><style>.cls-1{fill:#fecf00;}</style></defs><title>rock</title><g id="Layer_2" data-name="Layer 2"><g id="rock_Image" data-name="rock Image"><path class="cls-1" d="M0,155.82v-.72a8.45,8.45,0,0,0,.89-.3c8.46-4,17-7.79,25.59-11.4,9.24-3.87,18.48-7.71,28.34-9.83a35.1,35.1,0,0,0,14-6.16c4.71-3.54,8.5-8,12.14-12.54a2.94,2.94,0,0,0,.46-1.09c1.54-6.49,3.09-13,4.58-19.48,1.08-4.67,1.91-9.4,2.87-14.09,1-5.19,3.65-9.79,6.2-14.36a301.71,301.71,0,0,1,23.51-35c5.79-7.61,11.66-15.15,18.65-21.71a39.36,39.36,0,0,1,11.1-7.86c4.49-1.94,8.77-1.84,12.68,1.43a1.51,1.51,0,0,0,1.21.35c2.19-.18,4.38-.39,6.57-.48,7.55-.31,15.1-.58,22.61.57,2.8.43,5.61.95,8,2.69q2.55,1.89,5,3.91a14.44,14.44,0,0,1,5.39,9.82,36.37,36.37,0,0,1-.35,9.44,1.79,1.79,0,0,0,.59,1.78,99.07,99.07,0,0,1,12.68,14.68c2.83,4.09,5.7,8.33,6.15,13.35.3,3.31,1.7,5.74,3.31,8.39,6.14,10.08,8.8,21.33,10.64,32.84.5,3.16.52,6.38,1.35,9.48a11.1,11.1,0,0,1-.22,6c-.84,2.93-2.83,5-4.81,7.19a23.39,23.39,0,0,0-5.43,8.67,2.42,2.42,0,0,1-.95,1.18c-2.78,2.16-5.57,4.3-8.34,6.46-13.64,10.59-27.25,21.19-39.24,33.73-8.74,9.14-18.67,16.68-30.45,21.64-5.4,2.28-11,4.35-15.81,7.67a134,134,0,0,1-20.44,11c-4.62,2.1-9.48,3.58-14.13,5.57-9.26,4-18,9-26.72,14a109.17,109.17,0,0,0-12.39,7.73,1.73,1.73,0,0,1-2.21.21,63.43,63.43,0,0,1-7.48-5,161.16,161.16,0,0,1-29.15-28.85A144.08,144.08,0,0,1,2,161.83,49,49,0,0,0,0,155.82Z"/></g></g></svg>