<svg xmlns="http://www.w3.org/2000/svg" viewBox="0 0 253.2 272.53"><defs><style>.cls-1{fill:#fecf01;}</style></defs><title>scissors</title><g id="Layer_2" data-name="Layer 2"><g id="scissors_Image" data-name="scissors Image"><path class="cls-1" d="M60.52,272.53c-3.1-1.89-6.26-3.66-9.28-5.68-16.65-11.12-30.75-24.77-41.46-41.78A111.65,111.65,0,0,1,.17,205.81c-.34-.9-.2-1.27.73-1.65q11.19-4.59,22.11-9.77a28.92,28.92,0,0,0,10.81-8.95c14.73-19.26,29.44-38.53,44.43-57.59,2.87-3.64,6-7,8.68-10.85a41.45,41.45,0,0,0,4.89-8.9,10.81,10.81,0,0,1,1.45-2.33A62.59,62.59,0,0,1,102,95.16c1.71-1.59,2.55-3.84,3.56-5.92,4.5-9.26,8.86-18.58,13.43-27.8a332.81,332.81,0,0,1,25.87-44.2c3.93-5.57,8.33-10.73,14-14.6,2.27-1.54,4.71-2.79,7.56-2.62A9.1,9.1,0,0,1,174.65,8a21.48,21.48,0,0,1-2.33,12.41c-8,16.49-15.71,33.1-22.43,50.15-3.07,7.79-6.07,15.63-7.86,23.84a12.23,12.23,0,0,0,3.26,11.6,2.77,2.77,0,0,0,3.37.74,21,21,0,0,0,4.81-3.11c16.25-13.06,34-23.78,52.43-33.42,9.47-5,18.93-9.93,28.88-13.89,1-.41,2.1-.77,3.15-1.15a8.53,8.53,0,0,1,7.27.17c3,1.52,5.46,3.43,6.93,6.5,2.21,4.65.79,8.61-2.36,12.22a41.92,41.92,0,0,1-10.18,8.29c-8.2,5-16.17,10.27-24.09,15.67-4.46,3-9.14,5.83-13,9.62-7.45,7.35-16.7,11.8-25.65,16.79a103.24,103.24,0,0,0-12.1,7.5,15.49,15.49,0,0,0-2,1.84c-.73.8-.58,1.38.39,1.9A2.5,2.5,0,0,0,165,136c4-1.2,7.22.58,10.33,2.75a39.45,39.45,0,0,1,7.3,6.35,10.65,10.65,0,0,1,2.43,9.48,28,28,0,0,1-5.61,12.93c-1.2,1.48-1.21,1.45-.22,3.06a31,31,0,0,1,4,8.28c1.82,7.12-1.89,15.44-8.48,19.06-3.18,1.74-6.42,3.38-9.64,5.06a10,10,0,0,0-4.84,5.09c-1.57,3.71-4.69,6.11-7.59,8.66-14,12.31-28.55,24-44.25,34.16A101,101,0,0,1,88.06,261.5,34.3,34.3,0,0,1,83,262.9c-.27.05-.64.16-.81,0-1.11-.84-1.93-.13-2.81.42-4.47,2.82-9.33,4.87-14.05,7.19-1.36.67-2.72,1.32-4.09,2Z"/></g></g></svg>