<svg xmlns="http://www.w3.org/2000/svg" viewBox="0 0 257.88 278.19"><defs><style>.cls-1{fill:#fecf01;}</style></defs><title>spock</title><g id="Layer_2" data-name="Layer 2"><g id="spock_Image" data-name="spock Image"><path class="cls-1" d="M29.05,89.49c0-4.23-1-11-2.48-17.81-.91-4.12-1.95-8.25-1.8-12.52.14-4.07,2.66-6.55,6.72-6.81,5.09-.32,9.4,1.65,13.18,4.78,7.42,6.15,12.08,14.14,14.87,23.27s3.57,18.8,3.3,28.42c-.06,2.52-.32,5-.47,7.54-.11,1.78,1,2.54,2.68,1.83a10.25,10.25,0,0,0,3.65-2.84c4.25-4.84,8.07-10,11.89-15.17,6.66-9,13.24-18,19.19-27.5,6.79-10.8,14.28-21.1,21.76-31.41,7-9.66,14.17-19.22,21.7-28.49a104.25,104.25,0,0,1,7.45-8.42,9.46,9.46,0,0,1,5.09-2.43,15.33,15.33,0,0,1,6.64,0c4,1,6.29,3.79,6.19,7.94,0,1-.17,2.07-.21,3.1,0,.58-.28,1.37.37,1.63s.93-.52,1.23-.93c1.67-2.28,3.27-4.62,4.93-6.93a24.87,24.87,0,0,1,4.58-5.19,5.48,5.48,0,0,1,4.6-1.47c4.42.79,8.19,2.63,10.8,6.41a6.54,6.54,0,0,1,.82,6.47c-2.22,5.65-4.87,11.11-7.57,16.54C180.05,45.8,171.84,62,163.74,78.35a204.14,204.14,0,0,0-8.86,19.11c-1.21,3.24-2.36,6.55-2.35,10.09,0,2.79,1.25,4,4,4a21.47,21.47,0,0,0,7-1.44c5.86-1.94,11.36-4.72,16.91-7.35,9.53-4.51,18.9-9.35,28.26-14.2,8.68-4.5,17.32-9.06,25.89-13.77,2.62-1.44,5.21-2.94,7.83-4.37,7-3.85,12.5-.14,14.9,5.73,1.27,3.1.08,6.07-1.46,8.79-2.39,4.24-5.84,7.57-9.49,10.71-2,1.74-4.15,3.36-6.33,4.89-.8.56-.85.85,0,1.42a17.39,17.39,0,0,1,4.34,4.26,6.59,6.59,0,0,1,.68,7.1c-1.88,4.14-4.57,7.77-6.95,11.59-2,3.18-5,4.93-8,6.91-4.18,2.85-8.41,5.62-12.63,8.42l-22.39,15c-7.47,5-15,9.94-22.39,15-1.41,1-2.3,2.54-3.39,3.85q-15.44,18.57-31.87,36.26c-7,7.58-14.24,15-21.89,22a95.62,95.62,0,0,1-15.48,11.8,54.41,54.41,0,0,0-14.28,12.62c-5.71,7-11.64,13.79-17.43,20.71a1.68,1.68,0,0,1-2.24.56,158.86,158.86,0,0,1-37-20.24A124.3,124.3,0,0,1,.4,228.45a1.43,1.43,0,0,1,.17-2.13Q16.31,208.5,32,190.62a1.67,1.67,0,0,0,.44-1.63c-1.77-7.24-3.27-14.56-5.52-21.68-1.65-5.24-1.5-10.65-1.69-16-.19-5.07,0-10.14.24-15.21s1-10.08,1.73-15.1c.48-3.31.84-6.65,1.13-10A208.61,208.61,0,0,0,29.05,89.49Z"/></g></g></svg>