<svg xmlns="http://www.w3.org/2000/svg" xmlns:xlink="http://www.w3.org/1999/xlink" version="1.1" x="0px" y="0px" viewBox="0 0 84.863 112.5" enable-background="new 0 0 84.863 90" xml:space="preserve"><path d="M84.863,29.988c-0.002-3.863-3.133-6.996-6.994-6.996H40.948c0,0-0.001,0-0.002,0h-24.89  C7.191,22.994,0.003,30.18,0.001,39.048v8.658c-0.002,0.051,0,0.131,0,0.194c-0.018,4.879,2.58,8.644,6.168,11.263  c10.752,7.819,30.857,7.791,30.979,7.845h0.009c0.327,0,0.638-0.107,0.896-0.308c4.198-3.279,7.908-5.031,10.547-5.966  c1.317-0.467,2.368-0.729,3.076-0.871c0.354-0.072,0.621-0.113,0.794-0.139c0.175-0.023,0.225-0.024,0.225-0.026  c0.524-0.043,0.987-0.367,1.206-0.849c0.646-1.434,0.968-2.719,0.968-3.903c0.028-2.005-1.025-3.604-2.327-4.49  c-2.45-1.683-5.584-1.756-7.072-1.784c-0.499,0-0.811,0.021-0.838,0.024c-0.184,0.012-0.369,0.062-0.533,0.144  c-5.398,2.645-8.658,3.319-10.42,3.313c-1.157-0.004-1.654-0.262-1.855-0.396c-0.019-0.012-0.034-0.023-0.048-0.035l-0.636-3.917  h43.489c3.864-0.002,6.994-3.133,6.995-6.997c-0.012-1.549-0.5-3.042-1.353-4.268C82.946,35.558,84.86,33.006,84.863,29.988z   M79.327,33.813H49.061c-0.802,0-1.449,0.649-1.449,1.45c0,0.801,0.647,1.449,1.449,1.449h27.028  c1.455,0.558,2.654,2.331,2.632,4.095c-0.004,2.263-1.836,4.095-4.097,4.097H29.433c-0.425,0-0.829,0.188-1.104,0.511  c-0.275,0.323-0.395,0.75-0.327,1.171l0.964,5.948l0.086,0.306c0.096,0.443,1.396,2.285,4.624,2.211  c2.423-0.007,5.943-0.833,11.421-3.475c0.098-0.003,0.222-0.005,0.37-0.005c1.241-0.028,4.041,0.231,5.396,1.249  c0.719,0.547,1.081,1.05,1.107,2.127c0,0.508-0.112,1.168-0.416,1.988c-2.157,0.383-7.924,1.847-14.876,7.166  c-0.816-0.022-2.6-0.09-4.97-0.3c-4.941-0.435-12.374-1.512-18.406-4.011c-3.017-1.245-5.667-2.841-7.501-4.797  C3.968,53.027,2.909,50.781,2.9,47.9v-0.154v-8.698C2.913,31.78,8.793,25.903,16.057,25.89h19.572c0.007,0,0.012,0.002,0.019,0.002  h42.221c2.261,0.002,4.092,1.834,4.096,4.097C81.967,31.735,80.868,33.224,79.327,33.813z"/><text x="0" y="105" fill="#000000" font-size="5px" font-weight="bold" font-family="'Helvetica Neue', Helvetica, Arial-Unicode, Arial, Sans-serif">Created by Studio Fibonacci</text><text x="0" y="110" fill="#000000" font-size="5px" font-weight="bold" font-family="'Helvetica Neue', Helvetica, Arial-Unicode, Arial, Sans-serif">from the Noun Project</text></svg>