<svg xmlns="http://www.w3.org/2000/svg" xmlns:xlink="http://www.w3.org/1999/xlink" version="1.1" x="0px" y="0px" viewBox="0 0 100 125" enable-background="new 0 0 100 100" xml:space="preserve"><g><g><g><g><g><g><path fill="#000000" d="M50.074,65.101c-0.848-1.23-0.957-2.559-0.279-3.273c0.295-0.306,0.699-0.476,1.166-0.47        c0.732-0.005,1.572,0.409,2.234,1.108c1.691,1.876,3.598,3.517,4.359,3.788c-0.348-1.171-4.024-5.62-7.449-9.239        c-1.08-1.108-1.227-2.825-0.307-3.803c0.424-0.44,0.992-0.674,1.607-0.65c0.755,0.021,1.498,0.416,2.045,1.068        c2.697,3.447,6.08,7.174,7.361,7.866c-0.377-1.444-3.926-6.222-7.355-10.157c-0.988-1.203-0.988-2.954,0.006-3.87        c0.456-0.421,1.055-0.619,1.69-0.574c0.761,0.055,1.493,0.465,2.024,1.119c2.861,4.025,6.287,8.416,7.99,10.074        c-0.875-1.752-3.239-5.141-5.472-8.001c-0.522-0.792-0.749-1.579-0.619-2.333c0.104-0.567,0.407-1.043,0.853-1.341        c0.447-0.298,1.004-0.394,1.57-0.277c0.752,0.163,1.455,0.668,1.923,1.421c2.917,4.956,6.669,10.481,7.659,10.791        c0.443-0.063,1.715-1.804,2.467-2.851c1.719-2.352,3.34-4.58,5.012-3.866c0.823,0.349,1.309,0.8,1.477,1.377        c0.247,0.833-0.269,1.593-0.678,2.198c-0.126,0.178-0.25,0.359-0.337,0.534c-0.119,0.214-0.345,0.592-0.643,1.062        c-0.862,1.395-2.874,4.652-2.747,5.845c0.23,2.184,1.259,4.484,2.131,6.477c0.385,0.877,0.895,1.659,1.326,2.506        c0.317,0.63,0.576,0.953,1.062,1.48c0.585,0.631,0.812,1.386,1.321,2.06c0.901,1.202,2.769,1.603,1.612,3.604        c-2.551-1.619-4.045-4.885-5.769-7.455c-0.837-1.208-2.868-6.651-3.069-8.525c-0.168-1.538,1.363-4.163,2.953-6.72        c0.263-0.438,0.48-0.786,0.584-0.987c0.119-0.213,0.262-0.438,0.422-0.664c0.219-0.324,0.552-0.815,0.494-1.02        c-0.039-0.12-0.234-0.298-0.685-0.489c-0.655-0.276-2.401,2.12-3.338,3.409c-1.448,1.991-2.601,3.569-3.809,3.397        c-1.88-0.261-6.665-8.088-8.636-11.437c-0.242-0.381-0.641-0.704-1.028-0.784c-0.14-0.023-0.335-0.04-0.503,0.075        c-0.131,0.084-0.217,0.231-0.248,0.424c-0.069,0.381,0.065,0.896,0.352,1.246c1.896,2.426,6.314,8.302,6.096,10.019        c-0.041,0.364-0.227,0.574-0.371,0.689c-0.201,0.155-0.457,0.218-0.723,0.178c-1.746-0.258-7.396-7.976-9.738-11.282        c-0.266-0.319-0.644-0.538-1.021-0.565c-0.174-0.012-0.432,0.012-0.641,0.206c-0.461,0.421-0.384,1.348,0.115,1.95        c3.975,4.561,8.527,10.363,7.512,12.044c-0.181,0.306-0.495,0.493-0.85,0.514c-1.791,0.113-6.296-5.276-8.826-8.493        c-0.272-0.331-0.648-0.543-0.996-0.554c-0.221-0.005-0.406,0.067-0.549,0.218c-0.404,0.427-0.262,1.324,0.29,1.886        c5.818,6.134,8.395,9.85,7.671,11.062c-0.196,0.323-0.514,0.524-0.899,0.562c-1.543,0.152-4.501-2.933-5.704-4.266        c-0.432-0.456-0.922-0.662-1.211-0.662c-0.285,0.176-0.261,0.967,0.377,1.73c1.654,1.408,3.311,2.817,4.966,4.225        c3.067,2.608,6.139,5.219,9.204,7.83c1.326,1.126,2.65,2.252,3.974,3.38c0.623,0.529,3.058,2.073,3.204,2.793        c0.447,2.201-3.291-1.016-3.667-1.329c-1.101-0.925-2.199-1.847-3.3-2.769L50.341,65.455        C50.247,65.335,50.16,65.22,50.074,65.101z"/></g></g></g></g><g><g><g><g><path fill="#000000" d="M18.801,34.786c-0.463-0.626-0.87-1.279-1.171-1.97c-1.909-4.391-4.058-9.102-5.692-11.224        c-0.711-0.915-1.473-1.799-2.226-2.682c-0.694-0.804-1.416-1.599-2.054-2.452c-0.695-0.929-0.676-1.384,0.395-1.627        c0.896,1.063,1.754,2.159,2.659,3.219c0.771,0.898,1.548,1.8,2.269,2.727c1.658,2.172,3.821,6.821,5.861,11.506        c0.68,1.57,2.001,2.946,3.281,4.277l0.723,0.763c1.674,1.786,2.917,3.356,4.737,2.509c0.539-0.253,0.792-1.353,1.312-1.636        c0.924-0.507,2.678,0.101,3.727-0.238c2.404-0.771,3.124-0.493,4.594,0.871l0.283,0.261c1.568,1.436,3.023,2.986,4.25,4.312        c0.836,0.905,1.836,1.516,2.38,1.449c0.116-0.012,0.251-0.059,0.384-0.305c0.416-0.753-0.506-2.633-2.305-4.698        c-0.43-0.495-0.702-0.792-0.92-1.03c-0.453-0.493-0.681-0.739-1.505-1.852c-0.419-0.562-0.87-1.101-1.313-1.634        c-0.557-0.667-1.121-1.347-1.64-2.073c-0.066-0.104-0.167-0.229-0.28-0.372c-0.645-0.789-1.125-1.451-1.084-2.106        c0.041-0.569,0.309-1.025,0.751-1.293c0.628-0.386,1.424-0.263,1.919-0.046c2.855,1.269,5.574,2.853,8.21,4.392        c2.685,1.563,3.727,1.638,4.149,1.437c0.071-0.035,0.254-0.125,0.326-0.587c0.073-0.459-0.774-1.311-2.518-2.537L47.93,31.88        c-0.932-0.683-1.895-1.34-2.861-1.953c-0.961-0.611-2.008-1.098-3.115-1.619c-2.098-0.988-4.271-2.008-5.844-3.91        c-0.811-0.971-1.129-2.203-1.428-3.373c-0.12-0.484-0.242-0.965-0.404-1.42c-0.568-1.61-1.623-2.686-3.63-3.702        c-1.606-0.815-3.313-1.205-5.114-1.615c-1.343-0.305-2.729-0.619-4.076-1.128c-0.664-0.251-1.317-0.541-1.97-0.816        c-0.499-0.21-1.075-0.488-1.511-0.805c-0.312-0.231-0.623-0.475-0.973-0.641c-0.445-0.211-0.889-0.419-1.335-0.619        c-0.504-0.229-2.421-0.745-2.5-1.278c-0.292-1.943,4.25,0.162,4.888,0.795c0,0,1.072,1.073,3.869,2.125        c1.261,0.478,2.602,0.784,3.9,1.082c1.797,0.409,3.662,0.835,5.419,1.722c1.635,0.824,3.413,2,4.278,4.442        c0.172,0.494,0.306,1.013,0.439,1.538c0.271,1.071,0.523,2.094,1.162,2.853c1.385,1.675,3.334,2.587,5.389,3.557        c1.1,0.513,2.23,1.047,3.262,1.697c0.991,0.629,1.979,1.306,2.936,2.005l0.354,0.248c1.589,1.123,3.27,2.434,3.061,3.817        c-0.143,0.954-0.656,1.389-1.058,1.583c-1.372,0.654-3.435-0.349-5.275-1.419c-2.715-1.587-5.401-3.154-8.193-4.39        c-0.245-0.111-0.554-0.125-0.703-0.032c-0.029,0.017-0.096,0.061-0.108,0.25c0.02,0.231,0.561,0.902,0.786,1.188        c0.136,0.172,0.26,0.321,0.343,0.442c0.485,0.694,1.025,1.338,1.564,1.981c0.464,0.556,0.929,1.113,1.359,1.692        c0.787,1.062,0.985,1.277,1.422,1.75c0.22,0.247,0.503,0.554,0.941,1.058c1.346,1.542,3.451,4.403,2.471,6.198        c-0.396,0.72-0.973,0.932-1.387,0.983c-1.18,0.146-2.59-0.869-3.51-1.865c-1.207-1.306-2.639-2.83-4.166-4.234L36.314,39.8        c-1.543-1.437-2.144-1.436-3.731-0.925c-0.938,0.298-2.146-0.02-3.054,0.48c-0.543,0.298-1.092,0.594-1.651,0.854        c-2.887,1.348-4.612-0.497-5.995-1.981l-0.715-0.749C20.374,36.656,19.521,35.764,18.801,34.786z"/></g></g></g></g><g><g><g><g><path fill="none" d="M23.801,31.551c0.914,1.666,2.654,2.682,3.926,4.01c0.887,0.923,5.254,5.297,6.123,1.673        c0.248-1.044-0.446-1.973-0.946-2.755c-0.956-1.467-2.136-2.719-3.231-4.066c-0.786-0.961-1.852-2.375-3.156-2.677        C24.707,27.319,22.955,30.016,23.801,31.551z"/></g></g></g><g><g><g><path fill="#000000" d="M32.435,40.057c-1.94,0-4.185-1.914-5.726-3.519c-0.411-0.43-0.897-0.844-1.321-1.199        c-0.761-0.646-1.618-1.375-2.305-2.304c-0.198-0.265-0.374-0.541-0.52-0.816c-0.783-1.413-0.275-3.179,0.579-4.296        c0.941-1.25,2.372-1.862,3.688-1.562c1.682,0.387,2.883,1.865,3.759,2.943l0.178,0.221c0.302,0.368,0.61,0.738,0.923,1.099        c0.829,0.978,1.676,1.977,2.396,3.087l0.118,0.182c0.552,0.84,1.388,2.112,1.016,3.669c-0.408,1.712-1.466,2.239-2.06,2.401        C32.93,40.025,32.686,40.057,32.435,40.057z M26.15,27.786c-0.652,0-1.312,0.38-1.813,1.044        c-0.542,0.709-0.914,1.846-0.454,2.675c0.123,0.233,0.26,0.443,0.404,0.636c0.586,0.793,1.339,1.433,2.067,2.052        c0.45,0.377,0.974,0.823,1.438,1.308c2.067,2.154,3.939,3.302,4.974,3.016c0.486-0.132,0.82-0.57,0.995-1.302        c0.222-0.927-0.352-1.799-0.812-2.5l-0.12-0.185c-0.67-1.031-1.449-1.951-2.273-2.924c-0.321-0.371-0.64-0.752-0.953-1.135        l-0.167-0.208c-0.75-0.922-1.763-2.168-2.939-2.439C26.385,27.799,26.268,27.786,26.15,27.786z"/></g></g></g></g><g><g><g><g><path fill="none" d="M26.479,40.383c0.83,0.169,1.596-0.023,2.132-0.815c1.133-1.664-0.557-3.073-1.582-3.94        c-1.067-0.905-2.347-3.055-4.041-2.654c-1.395,0.336-1.972,1.757-1.602,2.963C21.741,37.115,24.336,39.946,26.479,40.383z"/></g></g></g><g><g><g><path fill="#000000" d="M27.001,41.848c-0.262,0-0.531-0.028-0.804-0.083c-1.988-0.407-4.104-2.244-5.321-3.884        c-0.434-0.586-0.709-1.089-0.841-1.537c-0.312-1.016-0.191-2.126,0.329-3.039c0.494-0.863,1.309-1.467,2.294-1.702        c0.247-0.059,0.505-0.144,0.748-0.089c0.678,0.152,1.866,2.399,2.705,3.313l1.14,0.756c0.214,0.231,0.721,0.499,0.916,0.667        c0.474,0.396,0.821,0.393,1.334,1.083c1.018,1.373,1.17,1.71,0.28,3.026C29.123,41.321,28.136,41.848,27.001,41.848z         M23.406,33.014c-0.132,0-0.267,0.016-0.399,0.048c-0.579,0.138-1.055,0.489-1.34,0.988c-0.316,0.554-0.389,1.233-0.196,1.862        c0.058,0.194,0.209,0.533,0.61,1.077c1.044,1.407,2.896,2.996,4.415,3.306c0.855,0.173,1.571-0.087,2.046-0.779        c0.524-0.777,0.472-1.573-0.164-2.431c-0.405-0.547-0.961-1.011-1.407-1.384c-0.243-0.208-0.487-0.469-0.744-0.748        l-0.115-0.125C25.408,34.061,24.448,33.014,23.406,33.014z"/></g></g></g></g></g><g><g><g><g><g><path fill="#000000" d="M23.105,21.306l0.686-1.126c0.732,0.446,2.012,0.727,3.25,1.003c1.215,0.271,2.367,0.524,3.197,0.951        c2.068,1.07,1.539,2.704,1.152,3.905c-0.096,0.292-0.195,0.599-0.263,0.903c-0.121,0.565-0.053,1.153,0.188,1.5        c0.137,0.163,0.317,0.299,0.568,0.332c0.891,0.118,2.002-1.306,2.6-2.075l0.248-0.314c0.189-0.237,0.348-0.519,0.503-0.79        c0.297-0.524,0.64-1.117,1.211-1.542l0.788,1.06c-0.35,0.265-0.594,0.688-0.854,1.14c-0.189,0.329-0.383,0.667-0.621,0.961        l-0.231,0.298c-0.818,1.047-2.175,2.793-3.818,2.574c-0.616-0.082-1.109-0.377-1.478-0.89        c-0.451-0.648-0.603-1.597-0.393-2.536c0.076-0.349,0.184-0.697,0.292-1.026c0.429-1.316,0.522-1.799-0.5-2.321        c-0.68-0.349-1.796-0.599-2.88-0.838C25.413,22.175,24.024,21.869,23.105,21.306z"/></g></g></g></g><g><g><g><g><path fill="#000000" d="M24.932,21.957c-0.068,0-0.143-0.015-0.212-0.037l-2.009-0.702c-0.334-0.117-0.51-0.483-0.393-0.817        s0.637-0.549,0.973-0.431l1.852,0.737c0.334,0.119,0.512,0.484,0.395,0.818C25.443,21.791,25.197,21.957,24.932,21.957z"/></g></g></g></g></g></g><text x="0" y="115" fill="#000000" font-size="5px" font-weight="bold" font-family="'Helvetica Neue', Helvetica, Arial-Unicode, Arial, Sans-serif">Created by Michael Rojas</text><text x="0" y="120" fill="#000000" font-size="5px" font-weight="bold" font-family="'Helvetica Neue', Helvetica, Arial-Unicode, Arial, Sans-serif">from the Noun Project</text></svg>