<?xml version="1.0" encoding="utf-8"?>
<!-- Generator: Adobe Illustrator 18.1.1, SVG Export Plug-In . SVG Version: 6.00 Build 0)  -->
<svg version="1.1" id="Layer_1" xmlns="http://www.w3.org/2000/svg" xmlns:xlink="http://www.w3.org/1999/xlink" x="0px" y="0px"
	 viewBox="0 0 411 364" enable-background="new 0 0 411 364" xml:space="preserve" fill="#222222">
<path fill="none" d="M231.7,140.7c1.8,6,7.2,3.5,13.9,1c6.7-2.5,16.3-11.5,16.3-11.5l-34.3-11.6
	C227.6,118.7,229.8,134.7,231.7,140.7z"/>
<path d="M320,95.9c0,0,3.9,1.4,10-0.4c6-1.8,8.3-11.7,2.5-17.9c-5.8-6.1-66.4-29-70.3-29.2c-4-0.1-25.5,8.6-44.9,14.1
	c-19.4,5.5-28.1,5.9-40.7,7.5c-12.7,1.7-18.8,7.5-20.9,12.1c-2.1,4.6,4.6,2.1-5,11.2c-9.6,9-7,14.4-7.2,19.7
	c-0.1,5.3-6.1,3.2-15.1,18.2c-9,15-32.8,56.9-41.5,83.3c-3.2,9.7-7.4,18-11.5,24.5c1.9,0.4,3.8,0.9,5.7,1.5c1.5-0.1,3-0.1,4.6-0.1
	c33.9,0,63.3,19.8,77.1,48.4c4.2-14.5,8.2-27.7,11.5-34c8.4-15.7,11.7-16.3,31.2-23.1c19.5-6.8,28.4-19.2,40.7-29.5
	c12.2-10.3,25.4-30.6,36.2-36.9c10.8-6.4,29.6-12.5,39.8-20.9c10.2-8.4,3.4-26.5,3.4-26.5s6.7-3.8,8.2-7.8
	C335,106.3,320,95.9,320,95.9z M245.6,141.7c-6.7,2.5-12.1,5-13.9-1c-1.8-6-4.1-22-4.1-22l34.3,11.6
	C261.9,130.2,252.3,139.3,245.6,141.7z"/>
</svg>
