<?xml version="1.0" encoding="UTF-8" standalone="no"?>
<svg
   xmlns:dc="http://purl.org/dc/elements/1.1/"
   xmlns:cc="http://creativecommons.org/ns#"
   xmlns:rdf="http://www.w3.org/1999/02/22-rdf-syntax-ns#"
   xmlns:svg="http://www.w3.org/2000/svg"
   xmlns="http://www.w3.org/2000/svg"
   xmlns:sodipodi="http://sodipodi.sourceforge.net/DTD/sodipodi-0.dtd"
   xmlns:inkscape="http://www.inkscape.org/namespaces/inkscape"
   version="1.1"
   x="0px"
   y="0px"
   viewBox="0 0 100 125"
   enable-background="new 0 0 100 100"
   xml:space="preserve"
   id="svg4196"
   inkscape:version="0.91 r13725"
   sodipodi:docname="noun_976250_cc.svg"><metadata
     id="metadata4216"><rdf:RDF><cc:Work
         rdf:about=""><dc:format>image/svg+xml</dc:format><dc:type
           rdf:resource="http://purl.org/dc/dcmitype/StillImage" /></cc:Work></rdf:RDF></metadata><defs
     id="defs4214" /><sodipodi:namedview
     pagecolor="#ffffff"
     bordercolor="#666666"
     borderopacity="1"
     objecttolerance="10"
     gridtolerance="10"
     guidetolerance="10"
     inkscape:pageopacity="0"
     inkscape:pageshadow="2"
     inkscape:window-width="1920"
     inkscape:window-height="1030"
     id="namedview4212"
     showgrid="false"
     inkscape:zoom="6.848"
     inkscape:cx="50"
     inkscape:cy="62.5"
     inkscape:window-x="0"
     inkscape:window-y="0"
     inkscape:window-maximized="1"
     inkscape:current-layer="svg4196" /><g
     id="g4198"
     style="fill:#00ff00"><path
       d="M48.237,75.614H19.36c-4,0-6.687-2.25-6.687-5.6c0-3.218,3.073-5.836,6.85-5.836c0.829,0,1.5,0.671,1.5,1.5   s-0.671,1.5-1.5,1.5c-2.087,0-3.85,1.299-3.85,2.836c0,2.413,2.822,2.6,3.687,2.6h28.919c15.034,0,34.798-7.463,40.295-7.618   c0.804-0.022,1.756-0.254,1.982-0.394c0.095-0.108,0.248-0.722,0.256-1.181V40.503c-0.07-0.218,0-1.17-1.239-1.525   c-0.703-0.202-7.25-0.533-9.096-1.587c-0.128-0.073-0.273-0.175-1.225-0.852c-8.335-5.928-11.131-7.471-11.992-7.697   c-1.064-0.112-12.205-0.925-19.689-1.462l-14.827,2.586c1.005,5.877,9.643,7.114,13.17,4.978c0.266-0.161,0.589-0.201,0.896-0.162   l9.432,1.23c0.575,0.075,1.056,0.475,1.234,1.027c0.032,0.099,3.249,9.888,8.802,12.715c0.738,0.376,1.032,1.279,0.656,2.018   c-0.376,0.738-1.279,1.031-2.018,0.656c-5.612-2.858-8.969-10.838-9.977-13.56l-8.063-1.051c-4.146,1.964-8.711,1.022-11.111,0.263   c-4.881-1.544-6.303-8.724-6.361-9.029c-0.075-0.395,0.011-0.803,0.24-1.134s0.58-0.556,0.976-0.625l16.617-2.898   c0.121-0.021,20.483,1.478,20.616,1.507c1.664,0.367,5.469,2.741,13.137,8.194c0.54,0.384,0.903,0.644,1.017,0.718   c1.136,0.647,8.86,0.994,10.179,1.938c1.484,1.063,1.625,2.109,1.625,3.578V63.44c-0.003,0.401-0.082,2.402-1.358,3.483   c-1.166,0.987-3.689,1.069-3.796,1.072C83.869,68.13,64.625,75.614,48.237,75.614z"
       id="path4200"
       style="fill:#00ff00" /><path
       d="M48.199,67.178H15.604c-3.789,0-6.871-2.796-6.871-6.232c0-3.192,3.071-6.61,7.642-6.61c0.829,0,1.5,0.671,1.5,1.5   s-0.671,1.5-1.5,1.5c-2.735,0-4.642,1.902-4.642,3.61c0,1.752,1.772,3.232,3.871,3.232h32.595c0.829,0,1.5,0.671,1.5,1.5   S49.028,67.178,48.199,67.178z"
       id="path4202"
       style="fill:#00ff00" /><path
       d="M43.278,57.336H13.163c-3.911,0-6.975-2.673-6.975-6.086c0-2.669,2.016-5.689,5.273-5.914   c0.937-0.064,6.287-0.139,6.805-0.139c0.829,0,1.5,0.671,1.5,1.5s-0.671,1.5-1.5,1.5c-0.546,0-5.781,0.076-6.6,0.132   c-1.46,0.1-2.479,1.62-2.479,2.92c0,1.73,1.746,3.086,3.975,3.086h30.115c0.829,0,1.5,0.671,1.5,1.5S44.106,57.336,43.278,57.336z"
       id="path4204"
       style="fill:#00ff00" /><path
       d="M43.278,48.197H17.644c-3.88,0-6.92-2.59-6.92-5.896c0-1.853,0.952-6.166,9.773-6.205l20.456-0.079   c0.002,0,0.004,0,0.006,0c0.826,0,1.497,0.668,1.5,1.494c0.003,0.829-0.666,1.502-1.494,1.506L20.51,39.096   c-2.534,0.011-6.786,0.443-6.786,3.205c0,1.624,1.722,2.896,3.92,2.896h25.634c0.829,0,1.5,0.671,1.5,1.5   S44.106,48.197,43.278,48.197z"
       id="path4206"
       style="fill:#00ff00" /></g></svg>