<?xml version="1.0" encoding="utf-8"?>
<!-- Generator: Adobe Illustrator 18.1.1, SVG Export Plug-In . SVG Version: 6.00 Build 0)  -->
<svg version="1.1" id="Layer_1" xmlns="http://www.w3.org/2000/svg" xmlns:xlink="http://www.w3.org/1999/xlink" x="0px" y="0px"
	 viewBox="0 0 411 364" enable-background="new 0 0 411 364" xml:space="preserve" fill="#222222">
<path d="M312.7,69.3c4-6.8,11.7-19.1,6.2-26.6c-7.5-10.1-20.2-0.3-24.1,7.9c2.2-11.8-4.1-16.9-14.6-11.4c-5.3,2.8-9,7.5-12.3,11.9
	c-5.6,7.6-20.9,24.6-20.1,26.2c-0.6-0.4-0.8-1.1-0.2-0.6c10.5-16-0.2-29.2-13.8-14.7c-6.7,7.2-15.6,15.7-21,23.1
	c-8.2,11.2-18.8,25.4-28.3,37.6c-4.6,5.9-10.8,11-15.7,17.3c-6.2,8-11.9,16.2-17.2,24.7c-5.6,8.9-11.8,17.5-15.9,27.2
	c-3.4,8-3.4,16.1-9.1,23c-10.4,12.4-25.9,29.7-36.7,39.4c-2.4,2.1-11.7,10.7-18.8,17.4c10.7,4.1,20.8,10,29.9,17.9
	c12.3,10.6,21.4,23.6,27.2,37.6c16.2-18,35.6-38.8,47.6-48.8c7.2-6,11.4-6,20.2-6.1c7.4,0,13.3-2.6,20.3-4.7
	c13.4-4.1,35.3-6.5,45-17.5c8.1-9.2,12.7-18.7,20.3-28.9c4.9-6.5,9.9-13,13.2-20.5c1-2.3,2.4-6.2,4.1-8.1
	c3.8-4.5,11.7-15.4,10.6-21.6c-2.5-13.8-20.9-2.9-27.3,1.1c12.1-16.1,22-30.7,30.4-49.3c5.1-11.4,12.1-22.3,15-34.6
	C329.3,79.5,328.6,60.4,312.7,69.3z"/>
</svg>
