<?xml version="1.0" encoding="UTF-8" standalone="no"?>
<svg
   xmlns:dc="http://purl.org/dc/elements/1.1/"
   xmlns:cc="http://creativecommons.org/ns#"
   xmlns:rdf="http://www.w3.org/1999/02/22-rdf-syntax-ns#"
   xmlns:svg="http://www.w3.org/2000/svg"
   xmlns="http://www.w3.org/2000/svg"
   xmlns:sodipodi="http://sodipodi.sourceforge.net/DTD/sodipodi-0.dtd"
   xmlns:inkscape="http://www.inkscape.org/namespaces/inkscape"
   version="1.1"
   x="0px"
   y="0px"
   viewBox="0 0 100 125"
   enable-background="new 0 0 100 100"
   xml:space="preserve"
   id="svg3402"
   inkscape:version="0.91 r13725"
   sodipodi:docname="noun_976244_cc.svg"><metadata
     id="metadata3428"><rdf:RDF><cc:Work
         rdf:about=""><dc:format>image/svg+xml</dc:format><dc:type
           rdf:resource="http://purl.org/dc/dcmitype/StillImage" /></cc:Work></rdf:RDF></metadata><defs
     id="defs3426" /><sodipodi:namedview
     pagecolor="#ffffff"
     bordercolor="#666666"
     borderopacity="1"
     objecttolerance="10"
     gridtolerance="10"
     guidetolerance="10"
     inkscape:pageopacity="0"
     inkscape:pageshadow="2"
     inkscape:window-width="1920"
     inkscape:window-height="1030"
     id="namedview3424"
     showgrid="false"
     inkscape:zoom="6.848"
     inkscape:cx="28.752921"
     inkscape:cy="62.5"
     inkscape:window-x="0"
     inkscape:window-y="0"
     inkscape:window-maximized="1"
     inkscape:current-layer="svg3402" /><g
     id="g3404"
     style="fill:#fa21e2;fill-opacity:1"><path
       d="M43.974,81.492c-5.645,0-11.031-0.529-15.306-1.873c-0.79-0.249-1.229-1.091-0.98-1.881   c0.248-0.79,1.105-1.286,1.881-0.981C45,82.813,79.25,70.292,88.159,70.292c1.018,0,3.229-1.734,3.257-2.407l-0.001-28.578   c-0.1-0.311-0.507-1.331-1.762-2.181c-0.846-0.574-9.181-0.727-11.399-1.995c-0.145-0.083-0.317-0.205-1.854-1.309   c-13.434-9.657-17.478-11.926-18.493-12.177c-1.72-0.425-28.493,6.759-28.567,6.857c-0.262,0.343-0.178,0.582-0.097,1.068   c1.337,8.088,3.31,18.02,4.05,21.692c7.544-2.469,7.116-15.527,7.366-15.849s0.62-0.53,1.025-0.574   c0.039-0.004,3.865-0.42,6.514-1.223c0.481-0.146,1.001-0.042,1.388,0.276c0.388,0.318,0.59,0.809,0.54,1.308   c-0.04,0.443-0.854,11.021,12.406,13.587c0.813,0.157,1.345,0.944,1.188,1.758c-0.157,0.813-0.942,1.343-1.758,1.188   c-12.182-2.359-14.413-10.804-14.778-14.76c-1.355,0.302-2.722,0.521-3.711,0.661c0.153,2.659,0.041,8.222-3.017,12.295   c-1.922,2.561-4.659,4.099-8.136,4.572c-0.778,0.106-1.513-0.411-1.672-1.185c-0.026-0.13-2.689-13.125-4.364-23.257   c-0.163-0.978-0.387-2.624,0.341-3.601c0.725-0.976,29-8.333,31.928-7.744c2.001,0.403,7.854,4.229,19.599,12.671   c0.893,0.642,1.483,1.069,1.636,1.167c1.508,0.86,9.966,1.016,11.55,2.089c2.508,1.7,3.003,3.94,3.051,4.19   c0.019,0.094,0.027,0.189,0.027,0.284V67.94c-0.017,0.507-0.166,2.852-1.616,4.081c-1.144,0.97-3.677,1.246-4.556,1.27   C82.84,73.443,56.822,81.492,43.974,81.492z"
       id="path3406"
       style="fill:#fa21e2;fill-opacity:1" /><path
       d="M25.646,79.932L25.646,79.932c-3.715,0-6.41-2.023-7.033-5.279c-0.718-3.752,1.962-7.023,6.517-7.955l19.222-3.932   c0.634-0.129,1.279-0.195,1.921-0.195c3.771,0,6.823,2.239,7.259,5.324c0.551,3.902-2.107,7.25-6.466,8.141l-19.304,3.677   C27.062,79.857,26.345,79.932,25.646,79.932z M46.272,65.572c-0.439,0-0.884,0.045-1.319,0.134l-19.222,3.932   c-2.23,0.456-4.66,1.896-4.171,4.452c0.49,2.565,3.814,3.083,5.62,2.681l19.304-3.677c2.754-0.563,4.4-2.485,4.076-4.778   C50.337,66.725,48.533,65.572,46.272,65.572z"
       id="path3408"
       style="fill:#fa21e2;fill-opacity:1" /><path
       d="M16.99,71.224L16.99,71.224c-3.853,0-6.838-2.298-7.607-5.856c-0.416-1.922-0.02-3.938,1.115-5.679   c1.223-1.874,3.193-3.208,5.406-3.661l22.404-4.583c0.714-0.146,1.426-0.22,2.116-0.22c3.923,0,6.803,2.33,7.515,6.081   c0.866,4.554-1.71,8.138-6.563,9.131L18.971,71.02C18.309,71.156,17.643,71.224,16.99,71.224z M40.425,54.226   c-0.489,0-0.999,0.053-1.515,0.159l-22.404,4.583c-1.434,0.293-4.839,2.845-4.191,5.767c0.477,2.15,2.258,3.49,4.676,3.49l0,0   c0.451,0,0.915-0.048,1.379-0.143l22.405-4.583c1.531-0.313,5.006-1.488,4.218-5.631C44.391,54.698,41.873,54.226,40.425,54.226z"
       id="path3410"
       style="fill:#fa21e2;fill-opacity:1" /><path
       d="M42.187,53.938c-0.401-0.725-0.386-1.546,0.339-1.948c1.364-0.754,1.945-1.511,1.787-4.001   c-0.088-1.376-1.5-2.392-2.67-3.001c-0.734-0.382-1.02-1.289-0.637-2.023c0.383-0.735,1.288-1.021,2.023-0.637   c3.358,1.75,4.18,3.941,4.277,5.471c0.217,3.414-0.747,5.389-3.328,6.817C43.749,54.742,42.461,54.433,42.187,53.938z"
       id="path3412"
       style="fill:#fa21e2;fill-opacity:1" /><path
       d="M13.431,57.885c-2.325,0-4.422-0.715-5.848-2.024c-1.307-1.2-1.998-2.83-1.998-4.714c0-4.373,2.987-7.455,7.61-7.853   l16.777-1.012c0.802-0.06,1.537,0.58,1.587,1.407s-0.58,1.538-1.407,1.587l-16.738,1.01c-3.01,0.26-4.956,1.485-4.829,4.861   c0.111,2.955,3.736,3.867,5.604,3.704L25.877,54c0.799-0.053,1.544,0.561,1.604,1.387c0.061,0.826-0.561,1.545-1.388,1.605   l-11.668,0.849C14.091,57.871,13.759,57.885,13.431,57.885z"
       id="path3414"
       style="fill:#fa21e2;fill-opacity:1" /><path
       d="M42.335,45.157c-0.781,0-1.44-0.606-1.494-1.398c-0.057-0.826,0.568-1.542,1.395-1.598   c2.679-0.182,4.143-1.733,4.122-4.368c-0.002-0.313-0.09-0.866-0.494-1.733c-0.351-0.75-0.025-1.643,0.726-1.993   c0.751-0.353,1.642-0.026,1.993,0.726c0.508,1.089,0.769,2.091,0.775,2.978c0.032,4.262-2.618,7.091-6.919,7.384   C42.404,45.156,42.369,45.157,42.335,45.157z"
       id="path3416"
       style="fill:#fa21e2;fill-opacity:1" /><path
       d="M29.821,45.242H17.174c-4.941,0-8.262-2.934-8.262-7.3c0-4.23,3.475-7.3,8.262-7.3h10.538c0.828,0,1.5,0.671,1.5,1.5   c0,0.829-0.672,1.5-1.5,1.5H17.174c-2.534,0-5.262,1.346-5.262,4.3c0,3.99,4.027,4.3,5.262,4.3h12.647c0.828,0,1.5,0.671,1.5,1.5   S30.649,45.242,29.821,45.242z"
       id="path3418"
       style="fill:#fa21e2;fill-opacity:1" /></g></svg>