<?xml version="1.0" encoding="utf-8"?>
<!-- Generator: Adobe Illustrator 18.1.1, SVG Export Plug-In . SVG Version: 6.00 Build 0)  -->
<svg version="1.1" id="Layer_1" xmlns="http://www.w3.org/2000/svg" xmlns:xlink="http://www.w3.org/1999/xlink" x="0px" y="0px"
	 viewBox="0 0 411 364" enable-background="new 0 0 411 364" xml:space="preserve" fill="#222222">
<path d="M330.7,113c-2.1-22.7-7.6-19.2-26-26.4c-6.9-16.2-9.2-15.5-23.9-17.5c-8.3-8.8-11.5-7.2-11.8-7.5
	c-20.4-5.3-31.1,14.6-44.1,26.1c-13.7,12-27,21.8-34.2,39.3c-8.8,21.3-25.3,32.4-42.3,47.4c-27,23.9-53.8,47.6-81.1,70.8
	c36.4,4.6,68.1,26.6,85.5,58.2c10.3-12,27.1-29.7,34.2-37.6c1.2-1.3,11.3-11.2,14.2-14.5c12.7-14.5,24.6-32,42.9-43.5
	c5.8-1.8,38.4-9.8,42.1-9.1c4.8,0.9,9.8,2.3,23.7-3.2c20.2-14.2,38.2-26.7,24.9-42.5C346.1,127.9,348.8,126.4,330.7,113z"/>
</svg>
