<?xml version="1.0" encoding="iso-8859-1"?>
<!-- Generator: Adobe Illustrator 19.0.0, SVG Export Plug-In . SVG Version: 6.00 Build 0)  -->
<svg version="1.1" id="Layer_1" xmlns="http://www.w3.org/2000/svg" xmlns:xlink="http://www.w3.org/1999/xlink" x="0px" y="0px"
	 viewBox="0 0 512 512" style="enable-background:new 0 0 512 512;" xml:space="preserve">
<circle style="fill:#273B7A;" cx="256" cy="256" r="256"/>
<path style="fill:#121149;" d="M282.053,510.69c104.631-10.576,190.638-84.164,219.529-182.227L331.064,157.281l-116.14,80.906
	l-77.422,38.771l76.241,75.688l-78.239,11.698L282.053,510.69z"/>
<path style="fill:#D0D1D3;" d="M387.017,337.363c0,45.225-58.658,49.131-131.017,49.131s-131.017-3.906-131.017-49.131
	S183.641,255.478,256,255.478S387.017,292.138,387.017,337.363z"/>
<g>
	<path style="fill:#A6A8AA;" d="M256,255.478c72.359,0,131.017,36.661,131.017,81.886S328.359,386.495,256,386.495V255.478z"/>
	<path style="fill:#A6A8AA;" d="M343.345,254.981c0,37.002-47.994,40.198-107.196,40.198s-107.196-3.196-107.196-40.198
		s47.994-66.998,107.196-66.998S343.345,217.979,343.345,254.981z"/>
</g>
<path style="fill:#808183;" d="M236.149,187.983c59.202,0,107.196,29.996,107.196,66.998s-47.994,40.198-107.196,40.198
	L236.149,187.983L236.149,187.983z"/>
<path style="fill:#D0D1D3;" d="M343.345,184.51c0,28.779-37.328,31.265-83.375,31.265s-83.375-2.486-83.375-31.265
	s37.328-52.109,83.375-52.109S343.345,155.731,343.345,184.51z"/>
<path style="fill:#A6A8AA;" d="M259.97,132.401c46.047,0,83.375,23.33,83.375,52.109s-37.328,31.265-83.375,31.265V132.401z"/>
<g>
</g>
<g>
</g>
<g>
</g>
<g>
</g>
<g>
</g>
<g>
</g>
<g>
</g>
<g>
</g>
<g>
</g>
<g>
</g>
<g>
</g>
<g>
</g>
<g>
</g>
<g>
</g>
<g>
</g>
</svg>
