<?xml version="1.0" encoding="utf-8"?>
<!-- Generator: Adobe Illustrator 18.1.1, SVG Export Plug-In . SVG Version: 6.00 Build 0)  -->
<svg version="1.1" id="Layer_1" xmlns="http://www.w3.org/2000/svg" xmlns:xlink="http://www.w3.org/1999/xlink" x="0px" y="0px"
	 viewBox="0 0 411 364" enable-background="new 0 0 411 364" xml:space="preserve" fill="#222222">
<path d="M333.3,87.8c-9.8-3.5-20.8,3.9-28.8,8.9c-11,6.8-22,13.6-32.8,20.5c-9.8,6.3-18.2,14.5-28.1,20.7
	c-12.8,7.9-12.6-7.8-8.1-15.2c6.1-9.8,10.3-20.2,15.6-30.4c5-9.7,12.7-17.3,18.6-26.4c4.5-7.1,6.8-19.7-5.3-20.5
	c-10.8-0.7-19.4,12.2-24.8,19.8c-13.4,18.8-28.6,36.6-39.3,57.1c-4,7.7-13.9,17.8-21.5,21.8c-2.4,1.3-16.8,7.6-20.4,10.4
	c-3.5,2.7-10.6,11.8-11.8,14.5c-2.1,4.8-6.2,12.1-7.6,14.8c-3,5.6-5.4,11.9-9.7,18c-1.2,1.7-6.7,9.8-9.3,13.4
	c-7.7,10.3-17,13.2-26.4,21.5c-7.5,6.7-15.7,14.2-23.5,20.3c27.7,11.1,49.5,33.6,59.8,61.7c3-2.8,6-5.6,9.1-8.3
	c10.4-9.4,20-20.1,30.9-28.9c9.4-7.6,20.2-9.5,30.4-15.3c12.1-6.9,22.6-16.4,32.2-26.3c4.5-4.7,10.4-6.7,15-11.2
	c4.1-4.1,7.2-9,10.8-13.6c4.2-5.4,8.2-10.8,10.2-16.2c0.5-1.4,1.4-3.2-0.7-8.4c-0.8-1.8-2.3-1.9-7.4-1.9c-0.4-3.7,6.6-8.5,8.5-11.3
	c1.8-2.7,2.7-4.3,2.9-7c0-0.2-1-9.6-5-10.2c-1.6-0.3-4.7,0.6-5.3,0.8c1.2-0.4-2.7,0.3-3.1,0.4c0.5,0.3,23.1-16.4,25.4-18.2
	c10-7.4,19-16,29.4-22.9C319.4,115.9,356.9,96.2,333.3,87.8z"/>
</svg>
