<?xml version="1.0" encoding="iso-8859-1"?>
<!-- Generator: Adobe Illustrator 19.0.0, SVG Export Plug-In . SVG Version: 6.00 Build 0)  -->
<svg version="1.1" id="Layer_1" xmlns="http://www.w3.org/2000/svg" xmlns:xlink="http://www.w3.org/1999/xlink" x="0px" y="0px"
	 viewBox="0 0 512 512" style="enable-background:new 0 0 512 512;" xml:space="preserve">
<path style="fill:#FF757C;" d="M256,512c141.002,0,256-115.003,256-256S397.002,0,256,0S0,115.003,0,256
	C0,397.002,115.003,512,256,512z"/>
<path style="fill:#ECF0F1;" d="M290.197,297.661c0,0-11.981-13.103-20.868-18.055c-8.887-4.947-14.956-5.173-14.956-5.173
	L179.125,66.69c0,0-0.702-2.36,2.817-4.646l117.534,230.685L290.197,297.661z"/>
<path style="fill:#0E7886;" d="M360.121,348.87c36.825,2.702,49.208,53.467,28.027,71.536
	c-23.856,20.346-78.625-7.796-63.965-48.529c-0.434-6.314-2.342-22.978-10.559-35.662c-10.346-15.972-25.588-35.204-25.588-35.204
	v-1.63l14.762-8.983c0,0,1.15-0.309,2.305,0.79c1.155,1.095,31.301,44.76,42.599,51.005c11.298,6.245,9.51,5.182,12.42,6.688V348.87
	z M340.745,364.62L340.745,364.62c-11.593,9.889-12.42,27.962-1.838,40.363c10.577,12.401,31.251,17.815,42.848,7.926
	c11.593-9.889,9.718-31.334-0.859-43.74c-10.582-12.401-28.553-14.443-40.146-4.554L340.745,364.62z"/>
<path style="fill:#FFFFFF;" d="M221.803,297.657c6.161-6.032,27.551-23.343,35.551-26.401l75.522-204.57c0,0,0.702-2.36-2.817-4.646
	l-70.88,139.113l-39.001,76.542l-7.538,14.789l9.159,5.168L221.803,297.657z"/>
<path style="fill:#0E7886;" d="M151.874,348.87c-36.825,2.702-49.208,53.467-28.022,71.536c23.856,20.346,78.63-7.796,63.965-48.529
	c0.434-6.314,2.337-22.978,10.559-35.662c10.351-15.972,25.588-35.204,25.588-35.204v-1.63l-14.762-8.983
	c0,0-0.48-0.688-1.067,0.226c-0.591,0.915-26.743,42.119-43.837,51.569c-5.501,3.039-9.51,5.182-12.42,6.688L151.874,348.87z
	 M171.25,364.62L171.25,364.62c11.593,9.889,12.42,27.962,1.838,40.363s-31.251,17.815-42.848,7.926
	c-11.593-9.889-9.718-31.334,0.864-43.74c10.582-12.401,28.553-14.443,40.146-4.554V364.62z"/>
<path style="fill:#ECF0F1;" d="M256.125,245.266c-4.069-0.43-7.242-3.871-7.242-8.055c0-4.185,3.173-7.621,7.242-8.051v-0.018h0.212
	h1.289h0.212v0.018c4.074,0.43,7.247,3.866,7.247,8.051c0,4.185-3.173,7.621-7.247,8.055v0.018h-0.212h-1.289h-0.212V245.266z"/>
<g>
</g>
<g>
</g>
<g>
</g>
<g>
</g>
<g>
</g>
<g>
</g>
<g>
</g>
<g>
</g>
<g>
</g>
<g>
</g>
<g>
</g>
<g>
</g>
<g>
</g>
<g>
</g>
<g>
</g>
</svg>
