<?xml version="1.0" encoding="UTF-8" standalone="no"?>
<svg
   xmlns:dc="http://purl.org/dc/elements/1.1/"
   xmlns:cc="http://creativecommons.org/ns#"
   xmlns:rdf="http://www.w3.org/1999/02/22-rdf-syntax-ns#"
   xmlns:svg="http://www.w3.org/2000/svg"
   xmlns="http://www.w3.org/2000/svg"
   xmlns:sodipodi="http://sodipodi.sourceforge.net/DTD/sodipodi-0.dtd"
   xmlns:inkscape="http://www.inkscape.org/namespaces/inkscape"
   version="1.1"
   x="0px"
   y="0px"
   viewBox="0 0 100 125"
   enable-background="new 0 0 100 100"
   xml:space="preserve"
   id="svg4196"
   inkscape:version="0.91 r13725"
   sodipodi:docname="noun_976245_cc.svg"><metadata
     id="metadata4216"><rdf:RDF><cc:Work
         rdf:about=""><dc:format>image/svg+xml</dc:format><dc:type
           rdf:resource="http://purl.org/dc/dcmitype/StillImage" /></cc:Work></rdf:RDF></metadata><defs
     id="defs4214" /><sodipodi:namedview
     pagecolor="#ffffff"
     bordercolor="#666666"
     borderopacity="1"
     objecttolerance="10"
     gridtolerance="10"
     guidetolerance="10"
     inkscape:pageopacity="0"
     inkscape:pageshadow="2"
     inkscape:window-width="1920"
     inkscape:window-height="1030"
     id="namedview4212"
     showgrid="false"
     inkscape:zoom="6.848"
     inkscape:cx="50"
     inkscape:cy="62.5"
     inkscape:window-x="0"
     inkscape:window-y="0"
     inkscape:window-maximized="1"
     inkscape:current-layer="svg4196" /><g
     id="g4198"
     style="fill:#70c8f8;fill-opacity:1"><path
       d="M59.107,75.879c-4.013,0-8.28-0.803-12.599-2.97c-0.74-0.372-1.039-1.273-0.668-2.014c0.373-0.741,1.244-0.989,1.925-0.52   c12.458,8.585,32.359-5.65,41.852-6.09c2.085-0.097,2.241-1.072,2.292-1.547V40.776c-0.108-0.263,0.07-1.026-1.283-1.497   c-0.65-0.226-7.067-0.504-8.857-1.527c-0.127-0.072-14.897-10.035-15.628-10.384c-3.474-1.66-20.127,7.821-22.557,9.347   c-0.014,0.111-0.023,0.29,0.005,0.466c0.278,1.694,2.304,12.352,3.067,16.363c5.656-1.867,4.872-10.746,4.861-10.795   c-0.087-0.438,0.026-0.893,0.309-1.24s0.704-0.549,1.151-0.553c0.029,0,3.511-0.081,4.753-2.376   c0.323-0.596,1.011-0.905,1.667-0.745c0.66,0.157,1.133,0.739,1.151,1.417c0.012,0.237,0.391,6.14,9.392,8.439   c0.803,0.205,1.287,1.021,1.082,1.824s-1.021,1.286-1.824,1.083c-7.028-1.795-9.816-5.59-10.922-8.28   c-1.218,0.842-2.579,1.251-3.614,1.45c0.162,2.132,0.081,5.971-2.034,8.999c-1.555,2.224-3.884,3.591-6.924,4.064   c-0.795,0.125-1.552-0.406-1.704-1.201c-0.123-0.646-3.023-15.841-3.372-17.965c-0.135-0.829-0.057-2.01,0.566-2.846   c0.833-1.121,18.294-10.015,21.97-10.481c0.837-0.107,2.622-0.12,3.624,0.101c1.608,0.354,16.396,10.658,16.521,10.74   c1.072,0.611,7.693,0.731,9.001,1.617c2.018,1.368,2.508,3.183,2.557,3.385c0.028,0.116,0.043,0.235,0.043,0.355v22.272   c0,0.039-0.002,0.078-0.005,0.117c-0.028,0.372-0.234,2.279-1.438,3.297c-1.151,0.976-3.739,1.061-3.765,1.062   C85.595,67.399,66.939,75.879,59.107,75.879z"
       id="path4200"
       style="fill:#70c8f8;fill-opacity:1" /><path
       d="M43.025,73.233c-3.87,0-6.002-2.172-6.002-6.116c0-2.58,1.814-5.37,6.907-5.461l17.416-0.595   c0.068-0.003,0.147,0,0.222,0.009c4.171,0.478,4.93,3.651,5.063,4.613c0.23,1.658-0.12,3.155-1.016,4.329   c-1.037,1.36-2.731,2.229-4.9,2.512c-0.045,0.006-0.09,0.01-0.135,0.012l-17.495,0.697C43.065,73.233,43.045,73.233,43.025,73.233z    M61.33,64.063l-17.321,0.592c-1.831,0.033-3.985,0.487-3.985,2.462c0,2.291,0.779,3.109,2.974,3.116l17.394-0.693   c2.172-0.228,3.422-0.541,3.27-3.446C63.599,64.923,62.716,64.25,61.33,64.063z"
       id="path4202"
       style="fill:#70c8f8;fill-opacity:1" /><path
       d="M40.686,64.725c-0.057,0-0.114-0.003-0.171-0.01c-3.947-0.453-6.182-2.803-6.289-6.618   c-0.038-1.34,0.443-2.577,1.394-3.579c1.336-1.41,3.545-2.286,5.909-2.345l3.156-0.139c0.805-0.041,1.528,0.604,1.565,1.433   c0.036,0.828-0.605,1.528-1.433,1.564l-3.186,0.14c-1.566,0.039-4.408,0.87-4.408,2.84c0,2.263,1.154,3.41,3.531,3.71   c7.813-0.217,19.629-0.567,20.452-0.649c0.654-0.112,2.139-0.363,1.982-3.58c-0.089-1.817-1.279-2.814-3.356-2.814   c-0.026,0-0.052,0-0.079,0c-3.819,0.046-9.641,0.125-9.641,0.125l-0.041-3c0,0,5.825-0.079,9.646-0.125   c3.652-0.056,6.299,2.233,6.467,5.668c0.185,3.79-1.427,6.167-4.538,6.692c-0.646,0.109-13.385,0.476-20.92,0.685   C40.713,64.725,40.699,64.725,40.686,64.725z"
       id="path4204"
       style="fill:#70c8f8;fill-opacity:1" /><path
       d="M5.18,58.041c-0.703-2.818,1.372-5.798,4.423-6.846c1.022-0.351,20.873-6.126,28.133-8.237l-25.053-6.904   C10.299,35.4,4.667,33.86,5.77,28.325c0.793-3.981,4.903-4.573,7.434-3.975l34.505,7.098c0.811,0.167,1.333,0.96,1.166,1.771   c-0.166,0.812-1.89,1.124-2.359,1.046l-33.961-6.987c-1.229-0.292-3.409-0.39-3.838,1.609c-0.373,1.737-0.134,2.931,4.761,4.272   l27.212,7.5c0.5,0.138,0.894,0.525,1.04,1.022c0,0,0.521,2.333,0.33,2.683c-0.191,0.35-0.514,0.609-0.897,0.72   c-8.181,2.376-29.625,8.617-30.585,8.947c-1.629,0.559-2.874,2.122-2.448,3.46c0.777,2.444,2.908,2.677,4.028,2.467   c1.04-0.196,16.456-4.476,26.564-7.305c0.797-0.223,1.626,0.243,1.849,1.04c0.224,0.798-0.242,1.625-1.04,1.849   c-2.59,0.725-25.348,7.091-26.823,7.366C12.114,63.021,6.667,64,5.18,58.041z"
       id="path4206"
       style="fill:#70c8f8;fill-opacity:1" /></g></svg>