<?xml version="1.0" encoding="utf-8"?>
<!-- Generator: Adobe Illustrator 18.1.1, SVG Export Plug-In . SVG Version: 6.00 Build 0)  -->
<svg version="1.1" id="Layer_1" xmlns="http://www.w3.org/2000/svg" xmlns:xlink="http://www.w3.org/1999/xlink" x="0px" y="0px"
	 viewBox="0 0 411 364" enable-background="new 0 0 411 364" xml:space="preserve" fill="#222222">
<path d="M279.2,139.6c1.7-1.5,5.4-4.1,7.5-6.5C284.3,135.2,280.6,136.6,279.2,139.6z"/>
<path d="M244.2,94.4c-5.7,7.2-13,13.1-18.6,20.4c12.3-9.2,30.6-27.9,39-40.9C256.7,79.7,250.2,86.8,244.2,94.4z"/>
<path d="M328.8,95.8c-12.6,7-24.5,15-37.3,21.6c-8.7,4.4-21.7,15.7-30.8,17.7c-15.2,3.4,9.2-21.1,10.5-22.6c9-10,15.1-22.1,24.4-32
	c6.5-7,27.4-20.4,20.8-31.9c-6.6-11.6-17.8-4.4-24.6,2.2c-0.9-9.1-7.6-16.4-23.6-7.5c-14.9,8.3-29.3,22.5-41.7,34.2
	c-13.6,12.8-25,26.8-39.5,38.8c-4.8,4-23.1,16.1-29.8,17.4c9.6-24-11.6-75.4-31.6-66.9c-8.7,3.7,6.6,22,7,28.2
	c0.2,3.3-0.4,12.2,0.9,14.8c0.9,2.5-7.8,28-8,38.5c1.6,14.8,2.3,43.6-1.7,51.4c-7,13.8-30.5,35.5-40.8,43.5
	c-2.4,1.9-11.2,10.7-20.6,20c28.4,10.6,51,33.2,61.7,61.6c2.4-2.8,4.6-5.5,6.8-7.8c17.3-19.1,38.3-57.1,62.6-67.2
	c35.3-14.6,56.3-50.6,87-72c15.1-10.5,32.6-19,45.4-32.5c10.2-10.8-0.9-22.7-12.9-15c9.7-7.4,27.9-11.7,34.3-22.5
	C354.3,95.4,336.4,91.6,328.8,95.8z M228.5,117c6.7-8.8,15.3-15.7,22.1-24.3c7.1-9,14.9-17.5,24.2-24.3
	C264.9,83.8,243.1,106,228.5,117z M292.2,146.5c1.7-3.6,6-5.3,8.9-7.7C298.6,141.7,294.3,144.7,292.2,146.5z"/>
</svg>
