<?xml version="1.0" encoding="utf-8"?>
<!-- Svg Vector Icons : http://www.onlinewebfonts.com/icon -->
<!DOCTYPE svg PUBLIC "-//W3C//DTD SVG 1.1//EN" "http://www.w3.org/Graphics/SVG/1.1/DTD/svg11.dtd">
<svg version="1.1" xmlns="http://www.w3.org/2000/svg" xmlns:xlink="http://www.w3.org/1999/xlink" x="0px" y="0px" viewBox="0 0 1000 1000" enable-background="new 0 0 1000 1000" xml:space="preserve">
<metadata> Svg Vector Icons : http://www.onlinewebfonts.com/icon </metadata>
<g><g><g><path d="M442.8,387.8l-230.6,35.6c-3.4-3.1-7-6.1-10.9-8.7c-42.7-28.9-104.9-20.8-148,19.2c-23.9,22.3-39,51.2-42.5,81.6c-3.6,31.4,5.4,60.6,25.4,82.1c5,5.4,10.5,10.1,16.5,14.2c0,0.1,0,0,0,0.1c32.7,22.1,76.8,22.4,115,3.5c1.6,2,3.4,3.8,5.7,5.3c12.6,8.6,29.8,5.2,38.3-7.4c6.7-9.9,6-22.5-0.6-31.5c17.9-20.4,29.2-45.1,32.1-70.8c1.9-16.1,0.3-31.6-4.3-45.9l226.4-18.3L442.8,387.8z M210.5,507.1c-2.6,22.6-14,44.3-32.2,61.2c-31.9,29.6-76.9,36.4-107,16c-3.9-2.6-7.6-5.8-10.8-9.3c-13.4-14.4-19.3-34.2-16.8-55.8c2.6-22.6,14.1-44.3,32.2-61.2c31.9-29.7,76.9-36.5,107-16.1c3.9,2.6,7.6,5.8,10.8,9.3C207,465.7,213,485.5,210.5,507.1z"/><polygon points="581.9,437.2 974.6,184.4 990,157.5 706.5,287.1 579.2,437.5 "/><path d="M328.4,869.5c15-2.8,29.7-8.2,43.5-16.1c51.1-29.1,77.4-86.2,62.6-135.5c-1.3-4.5-3.1-8.8-5.1-13l125.3-267L904.1,25.2L867,46.9L466.7,394.5l21.4,56L387.6,660.5c-9.8-5.4-20.7-9.3-32.5-11.5c-30.1-5.8-62.2,0.1-90.6,16.2c-51.1,29.1-77.4,86.1-62.6,135.5c2.1,7,5,13.7,8.6,20c8.1,14.2,19.6,25.8,33.5,34.4c27.3,34.1,4.3,84.6,3.4,96.8c-0.9,12.5,21.5,27.4,26.6,21.5C278.8,968,289.1,883.8,328.4,869.5z M512.7,418.3c-6.6-6.9-6.4-17.8,0.5-24.5c6.9-6.6,17.9-6.4,24.4,0.5c6.6,6.9,6.4,17.8-0.5,24.4C530.3,425.4,519.3,425.1,512.7,418.3z M355.5,824.8c-21.5,12.2-45.7,16.7-68,12.4c-21.4-4.1-38.5-15.7-48.3-32.7c-2.4-4.1-4.3-8.6-5.6-13.1c-10.4-34.8,9.4-75.7,47.3-97.3c21.5-12.3,45.7-16.7,68-12.4c21.4,4.1,38.6,15.7,48.3,32.7c2.3,4.1,4.2,8.6,5.6,13.1C413.2,762.2,393.3,803.1,355.5,824.8z"/></g></g><g></g><g></g><g></g><g></g><g></g><g></g><g></g><g></g><g></g><g></g><g></g><g></g><g></g><g></g><g></g></g>
</svg>