<?xml version="1.0"?>
<svg xmlns="http://www.w3.org/2000/svg" viewBox="0 0 50 50">
    <path style="line-height:normal;text-indent:0;text-align:start;text-decoration-line:none;text-decoration-style:solid;text-decoration-color:#000;text-transform:none;block-progression:tb;isolation:auto;mix-blend-mode:normal" d="M 21.332031 4 C 19.987358 4 18.645951 4.3965679 17.351562 5.3183594 C 16.057174 6.2401509 14.782794 7.6507727 13.310547 9.7285156 C 11.496119 12.28976 7.71543 18.223157 7.6933594 18.257812 C 7.6903694 18.262213 7.6885269 18.265111 7.6855469 18.269531 L 7.6777344 18.283203 C 4.0642156 23.610862 4 27.311699 4 30 L 4 46 L 6 46 L 6 30 C 6 27.307 5.9379376 24.39813 9.3476562 19.382812 A 1.0001 1.0001 0 0 0 9.3652344 19.359375 C 9.3652344 19.359375 13.209128 13.330048 14.941406 10.884766 C 16.343159 8.9065111 17.504607 7.6644741 18.511719 6.9472656 C 19.51883 6.2300571 20.344705 6 21.332031 6 L 42 6 C 43.393744 6 44 6.8049495 44 8 C 44 8.7553904 43.708023 9.3189933 43.183594 9.6601562 C 42.553752 9.2454738 41.805027 9 41 9 L 24 9 A 1.0001 1.0001 0 1 0 24 11 L 41 11 C 42.116666 11 43 11.883334 43 13 C 43 14.116666 42.116666 15 41 15 L 37 15 L 28 15 C 25.75 15 24.125219 15.915724 23.199219 17.150391 C 22.273219 18.385057 22 19.833333 22 21 C 22 22.412147 22.655231 23.86338 23.78125 24.890625 C 24.907269 25.91787 26.726319 26.403938 28.433594 25.470703 C 30.774928 24.190774 33.583065 23 36 23 C 37.076437 23 38.488922 23.269093 39.515625 23.744141 C 40.028976 23.981665 40.440046 24.268688 40.6875 24.542969 C 40.934954 24.817249 41.027344 25.038567 41.027344 25.314453 C 41.027344 25.532298 41.032444 25.85101 40.996094 26.140625 C 40.968824 26.357836 40.879548 26.518324 40.886719 26.539062 C 40.616945 26.765067 40.073784 27 37.998047 27 C 33.125672 27 29.995295 31.51332 28.056641 33.625 C 26.99238 34.783879 24.946485 35.572271 23.255859 36.230469 C 22.064489 36.694923 21.221818 37.626021 20.714844 38.667969 C 20.207869 39.709917 20 40.875218 20 42 L 20 43 L 20 43.8125 L 20 46 L 22 46 L 22 43.8125 L 22 43 L 22 42 C 22 41.131782 22.174147 40.240771 22.513672 39.542969 C 22.853197 38.845167 23.321792 38.351296 23.982422 38.09375 L 23.982422 38.095703 C 25.625796 37.455901 27.961557 36.683683 29.529297 34.976562 C 31.646642 32.670196 34.416422 29 37.998047 29 C 40.332938 29 41.509323 28.686708 42.275391 27.990234 C 42.853683 27.466118 42.920073 26.87176 42.980469 26.390625 C 43.040859 25.90949 43.027344 25.467608 43.027344 25.314453 C 43.027344 24.49534 42.672374 23.755719 42.173828 23.203125 C 41.675287 22.650531 41.041617 22.24521 40.355469 21.927734 C 38.983171 21.292782 37.381563 21 36 21 C 32.956935 21 29.931322 22.372726 27.472656 23.716797 C 26.455931 24.272562 25.798387 24.024817 25.128906 23.414062 C 24.459425 22.803308 24 21.712853 24 21 C 24 20.166667 24.226781 19.114943 24.800781 18.349609 C 25.374781 17.584276 26.25 17 28 17 L 37 17 L 41 17 C 43.197334 17 45 15.197334 45 13 C 45 12.334942 44.818578 11.715821 44.527344 11.162109 C 45.466047 10.410416 46 9.2319124 46 8 C 46 5.8950505 44.354256 4 42 4 L 21.332031 4 z" font-weight="400" font-family="sans-serif" white-space="normal" overflow="visible"/>
</svg>
