<?xml version="1.0"?>
<svg xmlns="http://www.w3.org/2000/svg" viewBox="0 0 50 50" enable-background="new 0 0 50 50">
    <path style="text-indent:0;text-align:start;line-height:normal;text-transform:none;block-progression:tb;-inkscape-font-specification:Bitstream Vera Sans" d="M 23 0 C 20.538596 0 19 2.0761905 19 4 L 19 4.59375 C 18.369262 4.2379952 17.685803 4 17 4 C 16.061905 4 15.117286 4.3129257 14.34375 4.96875 C 13.570214 5.6245743 13 6.6755482 13 7.90625 L 13 28.4375 C 12.557287 28.596765 12.15469 28.644315 11.34375 29.34375 C 10.166441 30.359179 9 32.184141 9 34.90625 C 9 36.88076 9.7846944 38.68512 10.09375 39.40625 A 1.0001 1.0001 0 0 0 10.09375 39.4375 L 12.90625 45.03125 C 12.91015 45.03925 12.90235 45.0545 12.90625 45.0625 C 14.383462 48.106322 17.53733 50 20.90625 50 L 30 50 C 34.945455 50 39 45.945455 39 41 L 39 12 C 39 11.252381 38.961624 10.112257 38.4375 9.03125 C 37.913376 7.9502434 36.709524 7 35 7 C 34.205689 7 33.56136 7.2639298 33 7.59375 L 33 7 C 33 5.4809524 32.735242 4.2589402 32.03125 3.34375 C 31.327258 2.4285598 30.2 2 29 2 C 28.092013 2 27.369791 2.2983404 26.75 2.6875 C 26.233021 1.2382051 24.900109 0 23 0 z M 23 2 C 24.338596 2 25 3.1238095 25 4 L 25 6 L 25 22 L 27 22 L 27 6 C 27 5.4666667 27.132707 4.9338307 27.40625 4.59375 C 27.679793 4.2536693 28.081884 4 29 4 C 29.8 4 30.172742 4.1776902 30.46875 4.5625 C 30.764758 4.9473098 31 5.7190476 31 7 L 31 12 L 31 23 L 33 23 L 33 12 C 33 11.347619 33.06787 10.475243 33.34375 9.90625 C 33.619626 9.3372566 33.909524 9 35 9 C 36.090476 9 36.380374 9.3372566 36.65625 9.90625 C 36.932126 10.475243 37 11.347619 37 12 L 37 41 C 37 44.854545 33.854545 48 30 48 L 20.90625 48 C 18.284028 48 15.815198 46.498391 14.6875 44.15625 L 11.90625 38.59375 C 11.90365 38.58775 11.90885 38.56865 11.90625 38.5625 C 11.612038 37.87353 11 36.319121 11 34.90625 C 11 32.728359 11.833559 31.584571 12.65625 30.875 C 13.478941 30.165429 14.25 29.96875 14.25 29.96875 A 1.0001 1.0001 0 0 0 15 29 L 15 7.90625 C 15 7.2369518 15.248536 6.8191757 15.625 6.5 C 16.001464 6.1808243 16.538095 6 17 6 C 17.461905 6 18.000362 6.1742276 18.375 6.5 C 18.749638 6.8257724 19 7.2666667 19 8 L 19 23 L 21 23 L 21 8 L 21 4 C 21 3.1238095 21.661404 2 23 2 z" stroke-width="2" overflow="visible" enable-background="accumulate" font-family="Bitstream Vera Sans"/>
</svg>
