<?xml version="1.0"?>
<svg xmlns="http://www.w3.org/2000/svg" viewBox="0 0 50 50">
    <path style="line-height:normal;text-indent:0;text-align:start;text-decoration-line:none;text-decoration-style:solid;text-decoration-color:#000;text-transform:none;block-progression:tb;isolation:auto;mix-blend-mode:normal" d="M 26.976562 5 C 24.952703 5 22.92914 5.9690434 21.652344 7.7753906 C 20.890334 7.4487779 19.662315 7 18 7 C 15.28443 7 13.251021 8.3453845 11.646484 10.25 C 11.057947 10.141563 9.9131608 9.9838284 8.2226562 10.322266 C 6.618957 10.643005 5.3187896 11.704888 4.421875 13.017578 C 3.5249604 14.330269 3 15.917395 3 17.488281 L 3 31 C 3 32.646556 3.3531394 34.116997 4.1992188 35.230469 C 5.0452981 36.34394 6.4108366 37 8 37 C 9.4408357 37 10.676735 36.806263 11.617188 36.033203 C 11.798077 35.88451 11.868124 35.643307 12.009766 35.460938 C 13.123905 37.003253 14.973832 38 17 38 C 18.504494 38 19.955656 37.64155 21.09375 36.814453 C 21.347564 36.629996 21.496349 36.332069 21.708984 36.097656 C 21.874249 36.448624 21.970648 36.826499 22.226562 37.138672 C 22.919704 37.984188 23.955472 38.570051 25.294922 38.835938 C 25.001769 39.343763 24.690694 39.921036 24.417969 40.5625 C 23.976248 41.602611 23.592815 42.736338 23.853516 43.910156 C 23.983866 44.497065 24.343275 45.096611 24.910156 45.470703 C 25.477037 45.844795 26.180872 46 27 46 C 29.25 46 31.753419 45.219866 34.3125 44.732422 C 36.871581 44.244978 39.417054 44.042994 41.628906 44.927734 L 41.806641 45 L 42 45 C 43.579545 45 44.922853 44.481393 45.888672 43.566406 C 46.854491 42.65142 47.4348 41.406048 47.769531 40.015625 C 48.438994 37.23478 48.184689 33.776105 47.611328 30.335938 C 46.479455 23.544694 44.022936 16.885683 43.958984 16.712891 L 44 16.029297 L 44 16 C 44 13.196919 43.33945 11.373124 42.369141 10.177734 C 41.398831 8.9823453 40.192379 8.4777897 39.447266 8.1054688 C 38.089495 7.4265832 36.479205 7.4979779 35.150391 7.6308594 C 34.104613 7.7354371 33.595819 7.8701162 33.267578 7.9453125 C 31.563495 6.3175075 29.71621 5 26.976562 5 z M 26.976562 7 C 29.317491 7 30.57559 7.9896529 32.292969 9.7070312 L 32.693359 10.107422 L 33.242188 9.9707031 C 33.242188 9.9707031 34.178424 9.7362591 35.349609 9.6191406 C 36.520795 9.5020221 37.910505 9.5734167 38.552734 9.8945312 C 39.388621 10.31221 40.181965 10.655889 40.816406 11.4375 C 41.449778 12.217794 41.996201 13.499619 41.998047 15.990234 L 41 32.482422 L 41 32.511719 C 41 35.609375 39.19536 37 37 37 C 34.895651 37 33 35.104349 33 33 L 33 17 C 33 16.166667 33.20416 15.578009 33.394531 15.197266 C 33.584903 14.816523 33.707031 14.707031 33.707031 14.707031 L 32.292969 13.292969 C 32.292969 13.292969 31.915097 13.683477 31.605469 14.302734 C 31.29584 14.921991 31 15.833333 31 17 L 31 33 C 31 35.104349 29.104349 37 27 37 C 25.19325 37 24.309383 36.524858 23.773438 35.871094 C 23.237492 35.21733 23 34.216168 23 33 L 23 17 L 21 17 L 21 33 C 21 34.052175 20.609624 34.694613 19.917969 35.197266 C 19.226313 35.699918 18.176506 36 17 36 C 14.768335 36 12.953125 34.604381 12.953125 32.511719 L 12.943359 32.511719 L 13 19.003906 L 11 18.996094 L 10.941406 32.712891 C 10.912442 33.735003 10.689423 34.207346 10.347656 34.488281 C 9.981858 34.788971 9.2401643 35 8 35 C 6.9081634 35 6.2746863 34.65606 5.7910156 34.019531 C 5.307345 33.383003 5 32.353444 5 31 L 5 17.488281 C 5 16.378168 5.4014303 15.128294 6.0722656 14.146484 C 6.743101 13.164675 7.6519807 12.475463 8.6132812 12.283203 L 8.6152344 12.283203 C 10.407273 11.924439 11.697266 12.269531 11.697266 12.269531 L 12.347656 12.441406 L 12.751953 11.902344 C 14.177449 10.002918 15.663347 9 18 9 C 19.728272 9 21.542969 9.8886719 21.542969 9.8886719 L 22.441406 10.351562 L 22.894531 9.4472656 C 23.715646 7.8050365 25.336774 7 26.976562 7 z M 43.626953 22.179688 C 44.339297 24.596412 45.131881 27.62332 45.638672 30.664062 C 46.190311 33.973895 46.373506 37.26522 45.824219 39.546875 C 45.549575 40.687702 45.106447 41.551705 44.513672 42.113281 C 43.944336 42.652651 43.219617 42.965671 42.126953 42.990234 C 39.410619 41.985892 36.550408 42.269881 33.9375 42.767578 C 31.246581 43.280134 28.75 44 27 44 C 26.438628 44 26.141994 43.888705 26.011719 43.802734 C 25.881443 43.716764 25.847915 43.662403 25.806641 43.476562 C 25.724091 43.104881 25.889491 42.215639 26.259766 41.34375 C 26.726976 40.244846 27.288474 39.378313 27.568359 38.960938 C 29.43833 38.764737 31.026906 37.627223 32 36.078125 C 33.070694 37.782596 34.883443 39 37 39 C 40.150157 39 42.968772 36.508819 42.998047 32.572266 L 43.626953 22.179688 z" font-weight="400" font-family="sans-serif" white-space="normal" overflow="visible"/>
</svg>
