<?xml version="1.0"?>
<svg xmlns="http://www.w3.org/2000/svg" viewBox="0 0 50 50">
    <path style="line-height:normal;text-indent:0;text-align:start;text-decoration-line:none;text-decoration-style:solid;text-decoration-color:#000;text-transform:none;block-progression:tb;isolation:auto;mix-blend-mode:normal" d="M 42.990234 10.476562 C 42.673092 10.473086 42.342488 10.502497 42.001953 10.564453 A 1.0001 1.0001 0 0 0 41.935547 10.578125 L 22.931641 15.376953 C 22.866913 15.250082 22.823406 15.131145 22.746094 15.001953 C 21.948095 13.668476 20.372205 12.205468 17.703125 11.738281 C 16.734857 11.568662 15.785911 11.578269 14.966797 11.664062 C 14.15099 11.749512 13.466203 11.910157 13.019531 12.042969 L 4.21875 14.587891 C 1.0129316 15.515666 -0.52734375 18.927618 -0.52734375 22.007812 L -0.52734375 34.527344 C -0.52734375 39.48586 3.5141403 43.527344 8.4726562 43.527344 L 19.472656 43.527344 C 23.26708 43.527344 26.071769 41.940354 26.744141 41.527344 L 29.472656 41.527344 C 31.534385 41.527344 33.190796 39.921147 33.394531 37.910156 A 1.0001 1.0001 0 0 0 33.472656 37.527344 C 33.472656 36.780179 33.252125 36.086872 32.890625 35.486328 C 34.75195 35.283999 36.204955 33.781396 36.394531 31.910156 A 1.0001 1.0001 0 0 0 36.466797 31.630859 L 45.373047 32.521484 A 1.0001 1.0001 0 0 0 45.472656 32.527344 C 46.69649 32.527344 47.760587 32.084457 48.458984 31.326172 C 49.085078 30.646391 49.362573 29.755225 49.421875 28.837891 A 1.0001 1.0001 0 0 0 49.472656 28.527344 C 49.472656 27.455834 49.039812 26.483445 48.332031 25.8125 C 47.62425 25.141555 46.693804 24.749909 45.666016 24.546875 A 1.0001 1.0001 0 0 0 45.628906 24.539062 L 30.853516 22.207031 L 42.724609 18.496094 C 43.852833 18.202191 44.772612 17.726669 45.433594 17.044922 C 46.094576 16.363175 46.458595 15.463633 46.472656 14.542969 A 1.0001 1.0001 0 0 0 46.472656 14.527344 L 46.472656 14.103516 C 46.485416 13.093268 46.163334 12.051342 45.367188 11.328125 C 44.770077 10.785712 43.94166 10.486991 42.990234 10.476562 z M 42.974609 12.470703 C 43.503635 12.465237 43.811103 12.617486 44.021484 12.808594 C 44.303337 13.064627 44.479901 13.504373 44.472656 14.078125 A 1.0001 1.0001 0 0 0 44.472656 14.089844 L 44.472656 14.513672 C 44.465756 14.968008 44.331815 15.308091 43.998047 15.652344 C 43.664279 15.996597 43.092479 16.333449 42.220703 16.560547 A 1.0001 1.0001 0 0 0 42.173828 16.574219 L 26.271484 21.542969 A 1.0001 1.0001 0 0 0 25.539062 22.125 A 1.0001 1.0001 0 0 0 25.517578 22.175781 A 1.0001 1.0001 0 0 0 25.509766 22.199219 A 1.0001 1.0001 0 0 0 26.433594 23.533203 L 45.285156 26.511719 C 46.045018 26.663075 46.614112 26.938599 46.957031 27.263672 C 47.30125 27.589977 47.472656 27.941853 47.472656 28.527344 C 47.472656 29.154677 47.289884 29.643238 46.988281 29.970703 C 46.689327 30.295292 46.249783 30.519466 45.486328 30.523438 L 35.933594 29.568359 C 35.243032 28.358809 33.955779 27.527344 32.472656 27.527344 L 24.925781 27.527344 L 23.642578 17.603516 C 23.642578 17.603516 23.625151 17.466644 23.591797 17.273438 L 42.367188 12.533203 C 42.597409 12.491961 42.798267 12.472525 42.974609 12.470703 z M 16.25 13.615234 C 16.623938 13.617228 17.001509 13.644341 17.359375 13.707031 A 1.0001 1.0001 0 0 0 17.359375 13.708984 C 19.489295 14.081798 20.470046 15.094774 21.029297 16.029297 C 21.588548 16.96382 21.648437 17.755859 21.648438 17.755859 A 1.0001 1.0001 0 0 0 21.652344 17.806641 L 23.140625 29.308594 A 1.0001 1.0001 0 0 0 23.160156 29.412109 C 23.482935 30.767349 22.66108 32.101068 21.306641 32.423828 C 20.569302 32.599441 20.007987 32.514408 19.523438 32.224609 C 19.041692 31.936494 18.595151 31.394461 18.273438 30.482422 L 16.011719 21.751953 A 1.0001 1.0001 0 0 0 14.564453 21.125 L 11.640625 22.71875 A 1.0003363 1.0003363 0 0 0 12.599609 24.474609 L 14.398438 23.494141 L 14.458984 23.726562 C 14.183225 24.23113 12.148801 27.692417 7.3007812 28.537109 A 1.0002293 1.0002293 0 1 0 7.6445312 30.507812 C 11.386663 29.855805 13.785817 27.757709 15.101562 26.210938 L 16.353516 31.052734 A 1.0001 1.0001 0 0 0 16.378906 31.132812 C 16.815795 32.383039 17.532644 33.365199 18.496094 33.941406 C 18.945954 34.210453 19.441668 34.37169 19.957031 34.449219 C 19.060408 35.184792 18.472656 36.286124 18.472656 37.527344 A 1.0001 1.0001 0 0 0 18.550781 37.912109 A 1.0001 1.0001 0 0 0 18.552734 37.916016 C 18.720738 39.548606 19.851537 40.898184 21.373047 41.351562 C 20.772309 41.452115 20.144593 41.527344 19.472656 41.527344 L 8.4726562 41.527344 C 4.5951724 41.527344 1.4726563 38.404828 1.4726562 34.527344 L 1.4726562 22.007812 C 1.4726562 19.604008 2.715209 17.104038 4.7753906 16.507812 L 13.576172 13.962891 A 1.0001 1.0001 0 0 0 13.583984 13.960938 C 14.036191 13.826121 15.128186 13.609252 16.25 13.615234 z M 25.181641 29.527344 L 32.472656 29.527344 C 33.589322 29.527344 34.472656 30.410678 34.472656 31.527344 C 34.472656 32.64401 33.589322 33.527344 32.472656 33.527344 L 29.472656 33.527344 L 23.488281 33.527344 C 24.680291 32.590028 25.342495 31.08742 25.181641 29.527344 z M 22.472656 35.527344 L 29.472656 35.527344 C 30.589322 35.527344 31.472656 36.410678 31.472656 37.527344 C 31.472656 38.64401 30.589322 39.527344 29.472656 39.527344 L 26.605469 39.527344 A 1.0001 1.0001 0 0 0 26.355469 39.527344 L 22.472656 39.527344 C 21.35599 39.527344 20.472656 38.64401 20.472656 37.527344 C 20.472656 36.410678 21.35599 35.527344 22.472656 35.527344 z" font-weight="400" font-family="sans-serif" white-space="normal" overflow="visible"/>
</svg>
