<?xml version="1.0"?>
<svg xmlns="http://www.w3.org/2000/svg" viewBox="0 0 50 50">
    <path style="line-height:normal;text-indent:0;text-align:start;text-decoration-line:none;text-decoration-style:solid;text-decoration-color:#000;text-transform:none;block-progression:tb;isolation:auto;mix-blend-mode:normal" d="M 21.865234 2.0019531 C 21.600015 2.0108368 21.331389 2.0471306 21.064453 2.1113281 C 18.92985 2.6246968 17.597693 4.7992138 18.111328 6.9335938 L 18.314453 7.7773438 C 17.605736 7.5219547 16.845705 7.3941415 16.064453 7.5820312 C 13.92985 8.0954 12.597861 10.271239 13.111328 12.40625 L 16.654297 27.160156 L 16.251953 29.759766 L 12.667969 25.458984 A 1.0001 1.0001 0 0 0 12.632812 25.419922 C 10.954954 23.612996 8.0822522 23.625918 6.3105469 25.380859 C 4.5112437 27.065344 4.5267748 29.940837 6.2929688 31.707031 L 6.2109375 31.615234 L 17.800781 46.5 C 19.489581 48.751733 22.107057 50 24.900391 50 L 33 50 C 37.945455 50 42 45.945455 42 41 L 41.998047 41.066406 L 42.96875 26.5 L 45.855469 16.066406 C 46.440763 13.950034 45.182929 11.729868 43.066406 11.144531 C 42.161733 10.894181 41.212067 10.993361 40.361328 11.314453 L 40.964844 8.796875 C 41.477131 6.6625655 40.145922 4.488202 38.011719 3.9746094 A 1.0001 1.0001 0 0 0 38.009766 3.9726562 C 35.875503 3.4603656 33.701093 4.7935307 33.1875 6.9277344 L 29.761719 21.189453 L 25.888672 5.0664062 C 25.504408 3.4654751 24.185467 2.3132346 22.648438 2.0546875 C 22.392266 2.0115965 22.130454 1.9930695 21.865234 2.0019531 z M 21.935547 4 C 22.865619 3.9685549 23.71987 4.5939562 23.945312 5.5332031 L 28.789062 25.705078 A 1.0001 1.0001 0 0 0 30.734375 25.705078 L 35.130859 7.3964844 L 35.130859 7.3945312 C 35.389981 6.3217143 36.469832 5.6603892 37.542969 5.9179688 C 38.616765 6.1763761 39.279197 7.2563876 39.021484 8.3300781 L 34.894531 25.509766 A 1.0001 1.0001 0 0 0 35.824219 26.742188 L 35.871094 26.744141 A 1.0001 1.0001 0 0 0 36.880859 26 L 39.962891 14.267578 C 40.240366 13.264884 41.40557 12.760216 42.533203 13.072266 C 43.59868 13.366929 44.22244 14.467575 43.927734 15.533203 L 41.013672 26.064453 A 1.0001 1.0001 0 0 0 40.980469 26.263672 L 40.001953 40.933594 A 1.0001 1.0001 0 0 0 40 41 C 40 44.854545 36.854545 48 33 48 L 24.900391 48 C 22.693724 48 20.711591 47.049048 19.400391 45.300781 A 1.0001 1.0001 0 0 0 19.388672 45.285156 L 7.7890625 30.384766 A 1.0001 1.0001 0 0 0 7.7070312 30.292969 C 6.6774202 29.263361 6.6919257 27.749239 7.6796875 26.832031 A 1.0001 1.0001 0 0 0 7.7070312 26.806641 C 8.7354255 25.778246 10.246533 25.794994 11.164062 26.779297 L 16.130859 32.740234 A 1.0001 1.0001 0 0 0 17.888672 32.253906 L 18.660156 27.271484 A 1.0001 1.0001 0 0 0 18.644531 26.884766 L 15.054688 11.939453 A 1.0001 1.0001 0 0 0 15.054688 11.9375 C 14.796154 10.862511 15.457806 9.784022 16.533203 9.5253906 C 17.607719 9.2669712 18.687665 9.9304814 18.945312 11.003906 A 1.0001 1.0001 0 0 0 18.947266 11.011719 L 22.560547 25.462891 L 22.5625 25.472656 A 1.0004693 1.0004693 0 1 0 24.505859 24.996094 L 24.503906 24.988281 L 20.054688 6.4667969 C 19.796323 5.3931768 20.457806 4.3133188 21.533203 4.0546875 C 21.667518 4.0223851 21.802679 4.0044922 21.935547 4 z" font-weight="400" font-family="sans-serif" white-space="normal" overflow="visible"/>
</svg>
